<svg width="28" height="31" viewBox="0 0 28 31" fill="none" xmlns="http://www.w3.org/2000/svg">
<path d="M27.8613 14.8756C26.7044 13.4285 25.4545 11.466 25.4545 10.8182V3.94418C25.4545 2.41945 24.3676 1.10473 22.8722 0.818364C20.9198 0.445455 17.794 0 14 0C10.206 0 7.08145 0.445455 5.12655 0.818364C3.63109 1.10473 2.54545 2.41945 2.54545 3.94418V10.8182C2.56073 11.4736 1.14036 13.6589 0 15.05V30.5455H28V15.05L27.8613 14.8756ZM18.1325 1.45473L14 13.3356L9.86745 1.45473C11.1185 1.34527 12.502 1.27273 14 1.27273C15.498 1.27273 16.8815 1.34527 18.1325 1.45473ZM1.27273 24.1818H8.90909V22.9091H1.27273V15.4942C1.92436 14.6618 3.81818 12.1278 3.81818 10.8182V3.94418C3.81818 3.02909 4.46982 2.24 5.36582 2.06818C6.216 1.90527 7.30418 1.73091 8.56545 1.58582L13.398 15.4776L13.3649 29.2715H1.27273V24.1818ZM14.6364 29.2727V15.3796L19.4345 1.58709C20.6958 1.73218 21.784 1.90655 22.6329 2.06945C23.5302 2.24127 24.1818 3.02909 24.1818 3.94545V10.8195C24.1818 12.1291 26.0756 14.6631 26.7273 15.4955V22.9104H19.0909V24.1831H26.7273V29.274L14.6364 29.2727ZM20.3598 21.2418C21.0445 20.7213 24.0215 18.9178 24.1818 16.2273C24.1818 14.9991 23.1827 14 21.9545 14C21.3322 14 20.7684 14.2571 20.3636 14.6695C19.9589 14.2558 19.3951 14 18.7727 14C17.5445 14 16.5455 14.9991 16.5455 16.2273C16.7084 18.8682 19.6776 20.7111 20.3598 21.2418ZM17.8182 16.2273C17.8182 15.7004 18.2471 15.2727 18.7727 15.2727C19.2984 15.2727 19.7273 15.7004 19.7273 16.2273V16.5455H21V16.2273C21 15.7004 21.4289 15.2727 21.9545 15.2727C22.4802 15.2727 22.9091 15.7004 22.9091 16.2273C22.9091 17.472 21.3105 18.9573 20.3675 19.6802C19.446 18.9585 17.8182 17.4325 17.8182 16.2273Z" fill="#4A7CFD"/>
</svg>
