<svg width="28" height="38" viewBox="0 0 28 38" fill="none" xmlns="http://www.w3.org/2000/svg">
<path d="M26.8598 29.148L20.9315 23.1249L22.7873 21.2691C25.1284 18.9684 26.4258 15.8822 26.4413 12.5798C26.4553 9.19799 25.1471 6.01688 22.7547 3.626C20.4167 1.288 17.3071 0 14.0016 0C10.696 0 7.58645 1.288 5.24846 3.626C2.8949 5.97955 1.5649 9.23843 1.59602 12.572C1.62868 15.8558 2.92757 18.9 5.23912 21.1229L7.14156 23.0937L1.14491 29.1417C0.401351 29.8822 -0.00309329 30.8637 1.78155e-05 31.9122C0.00468448 32.9591 0.418462 33.9391 1.16513 34.6717L2.7409 36.218C3.49535 36.96 4.48001 37.3302 5.46312 37.3302C6.46957 37.3302 7.47756 36.9428 8.23667 36.1697L14.0342 30.2337L19.7649 36.1713C20.524 36.9428 21.5304 37.3302 22.5353 37.3302C23.5184 37.3302 24.5031 36.96 25.2591 36.218L26.8349 34.6717C27.5815 33.9375 27.9953 32.9575 28 31.9122C28.0031 30.8637 27.5955 29.8806 26.8598 29.148ZM24.8842 12.5735C24.8702 15.4575 23.7393 18.1518 21.6907 20.1646L19.838 22.0173L15.148 17.2526C17.0053 15.6815 21.7778 11.3011 21.7778 7.77932C21.7778 6.35288 21.364 5.03222 20.6904 3.88111C21.0233 4.14399 21.3484 4.42244 21.6533 4.72733C23.7502 6.82421 24.8967 9.61021 24.8842 12.5735ZM14 1.55555C17.4316 1.55555 20.2222 4.34622 20.2222 7.77777C20.2222 8.74999 19.6591 9.91043 18.8456 11.074C17.4704 9.96643 15.7904 9.33332 14 9.33332C12.2096 9.33332 10.5296 9.96643 9.15289 11.074C8.33934 9.91043 7.77779 8.74999 7.77779 7.77777C7.77779 4.34622 10.5684 1.55555 14 1.55555ZM17.8998 12.3091C16.6071 13.8615 15.05 15.3051 13.9984 16.1886C12.9469 15.3051 11.3913 13.8615 10.0987 12.3091C12.3278 10.5327 15.6691 10.5311 17.8982 12.3091H17.8998ZM7.12445 35.0824C6.22223 35.9971 4.74601 36.0095 3.82979 35.112L2.25401 33.5657C1.80446 33.1255 1.55713 32.536 1.55402 31.9091C1.55402 31.2806 1.79513 30.6911 2.24468 30.2446L8.22112 24.2184L12.95 29.1184L7.1229 35.0855L7.12445 35.0824ZM25.7429 33.5642L24.1671 35.1104C23.2509 36.0111 21.7731 35.9955 20.8771 35.0855L6.33579 20.0215C4.3089 18.0709 3.17801 15.4202 3.15001 12.5564C3.12201 9.63821 4.28712 6.78377 6.34668 4.72577C6.65156 4.42088 6.97512 4.14399 7.30956 3.87955C6.63601 5.03066 6.22223 6.35133 6.22223 7.77777C6.22223 11.8487 12.5953 17.0675 13.4742 17.7675L25.7569 30.2446C26.2018 30.688 26.4444 31.2775 26.4429 31.906C26.4398 32.5328 26.1924 33.124 25.7429 33.5642Z" fill="#4A7CFD"/>
</svg>
