<svg width="28" height="28" viewBox="0 0 28 28" fill="none" xmlns="http://www.w3.org/2000/svg">
<path d="M16.5562 26.7703C16.9248 27.1612 17.346 27.5508 17.822 27.9347H2.90967C1.3055 27.9347 0 26.6303 0 25.025V2.32867H5.87767C6.14833 1.00217 7.32433 0 8.729 0H12.2208C13.6267 0 14.8015 1.001 15.0722 2.3275H20.9498V11.1242L19.7855 11.5103V3.49183H13.9662V2.90967C13.9662 1.94717 13.1833 1.16433 12.2208 1.16433H8.729C7.7665 1.16433 6.98367 1.94717 6.98367 2.90967V3.49183H1.16433V25.0238C1.16433 25.9863 1.94717 26.7692 2.90967 26.7692H16.5562V26.7703ZM28 16.3567V20.9102C27.9767 24.0637 25.8463 26.4997 22.155 27.9265C18.5185 26.159 16.3742 23.6798 16.3602 20.923V16.3567C16.3602 15.6042 16.8408 14.9403 17.556 14.7023L22.1795 13.1705L26.803 14.7023C27.5182 14.9392 28 15.6042 28 16.3567ZM26.8357 16.3567C26.8357 16.107 26.6758 15.8865 26.4378 15.8072L22.1795 14.3955L17.9212 15.8072C17.6832 15.8853 17.5233 16.107 17.5233 16.3567V20.9102C17.5712 23.0942 19.1462 25.0285 22.2052 26.6443C25.2688 25.3202 26.7832 23.4383 26.8345 20.8985V16.3567H26.8357ZM13.9673 13.9673H4.65617V15.1317H13.9673V13.9673ZM4.65617 19.7867H13.9673V18.6223H4.65617V19.7867ZM16.2948 9.31117H4.65617V10.4755H16.2948V9.31117Z" fill="#4A7CFD"/>
</svg>
