<svg width="28" height="34" viewBox="0 0 28 34" fill="none" xmlns="http://www.w3.org/2000/svg">
<path d="M21.7 0H10.5C7.0266 0 4.2 2.8266 4.2 6.3V23.1C4.2 26.5734 7.0266 29.4 10.5 29.4H21.7C25.1734 29.4 28 26.5734 28 23.1V6.3C28 2.8266 25.1734 0 21.7 0ZM26.6 23.1C26.6 25.802 24.402 28 21.7 28H10.5C7.798 28 5.6 25.802 5.6 23.1V6.3C5.6 3.598 7.798 1.4 10.5 1.4H21.7C24.402 1.4 26.6 3.598 26.6 6.3V23.1ZM14.7 17.5V23.1C14.7 23.4864 14.3864 23.8 14 23.8C13.6136 23.8 13.3 23.4864 13.3 23.1V17.5C13.3 17.1136 13.6136 16.8 14 16.8C14.3864 16.8 14.7 17.1136 14.7 17.5ZM10.5 20.3V23.1C10.5 23.4864 10.1864 23.8 9.8 23.8C9.4136 23.8 9.1 23.4864 9.1 23.1V20.3C9.1 19.9136 9.4136 19.6 9.8 19.6C10.1864 19.6 10.5 19.9136 10.5 20.3ZM18.9 14.7V23.1C18.9 23.4864 18.5864 23.8 18.2 23.8C17.8136 23.8 17.5 23.4864 17.5 23.1V14.7C17.5 14.3136 17.8136 14 18.2 14C18.5864 14 18.9 14.3136 18.9 14.7ZM23.1 17.5V23.1C23.1 23.4864 22.7864 23.8 22.4 23.8C22.0136 23.8 21.7 23.4864 21.7 23.1V17.5C21.7 17.1136 22.0136 16.8 22.4 16.8C22.7864 16.8 23.1 17.1136 23.1 17.5ZM21.7 11.2C21.3136 11.2 21 10.8864 21 10.5V7.9898L17.8514 11.1384C17.29 11.7012 16.31 11.7012 15.7486 11.1384L14.7616 10.1514L10.9956 13.7956C10.7226 14.0686 10.2788 14.0686 10.0058 13.7956C9.7328 13.5226 9.7328 13.0788 10.0058 12.8058L13.65 9.1616C14.2114 8.5988 15.1914 8.5988 15.7528 9.1616L16.7398 10.1486L19.9948 7H17.5014C17.115 7 16.8014 6.6864 16.8014 6.3C16.8014 5.9136 17.115 5.6 17.5014 5.6H20.3014C21.4592 5.6 22.4014 6.5422 22.4014 7.7V10.5C22.4014 10.8864 22.0864 11.2 21.7 11.2ZM21 32.9C21 33.2864 20.6864 33.6 20.3 33.6H6.3C2.8266 33.6 0 30.7734 0 27.3V7.7C0 7.3136 0.3136 7 0.7 7C1.0864 7 1.4 7.3136 1.4 7.7V27.3C1.4 30.002 3.598 32.2 6.3 32.2H20.3C20.6864 32.2 21 32.5136 21 32.9Z" fill="#4A7CFD"/>
</svg>
