<svg width="28" height="28" viewBox="0 0 28 28" fill="none" xmlns="http://www.w3.org/2000/svg">
<path d="M6.41804 13.9991C4.48849 13.9991 2.91826 15.5693 2.91826 17.4989C2.91826 19.4284 4.48849 20.9987 6.41804 20.9987C8.34758 20.9987 9.91782 19.4284 9.91782 17.4989C9.91782 15.5693 8.34758 13.9991 6.41804 13.9991ZM6.41804 19.8321C5.13128 19.8321 4.08485 18.7856 4.08485 17.4989C4.08485 16.2121 5.13128 15.1657 6.41804 15.1657C7.70479 15.1657 8.75122 16.2121 8.75122 17.4989C8.75122 18.7856 7.70479 19.8321 6.41804 19.8321ZM25.0835 17.4989C25.0835 15.5693 23.5133 13.9991 21.5837 13.9991C19.6542 13.9991 18.084 15.5693 18.084 17.4989C18.084 19.4284 19.6542 20.9987 21.5837 20.9987C23.5133 20.9987 25.0835 19.4284 25.0835 17.4989ZM19.2506 17.4989C19.2506 16.2121 20.297 15.1657 21.5837 15.1657C22.8705 15.1657 23.9169 16.2121 23.9169 17.4989C23.9169 18.7856 22.8705 19.8321 21.5837 19.8321C20.297 19.8321 19.2506 18.7856 19.2506 17.4989ZM27.9872 27.2959C28.0537 27.6121 27.8507 27.9201 27.5345 27.9854C27.2277 28.0531 26.9092 27.8512 26.8451 27.5328C26.3399 25.0981 24.1281 23.3307 21.5826 23.3307C19.0371 23.3307 16.8252 25.0981 16.3201 27.5328C16.2536 27.8489 15.9409 28.0554 15.6306 27.9854C15.3145 27.9201 15.1127 27.6121 15.178 27.2959C15.7928 24.3223 18.4864 22.1653 21.5814 22.1653C24.6764 22.1653 27.37 24.3235 27.9848 27.2959H27.9872ZM12.8215 27.2959C12.888 27.6121 12.685 27.9201 12.3688 27.9854C12.062 28.0531 11.7435 27.8512 11.6794 27.5328C11.1742 25.0981 8.96237 23.3307 6.41687 23.3307C3.87137 23.3307 1.65951 25.0981 1.15437 27.5328C1.08904 27.8489 0.775229 28.0554 0.464915 27.9854C0.148768 27.9201 -0.0530523 27.6121 0.0122769 27.2959C0.627071 24.3223 3.32073 22.1653 6.4157 22.1653C9.51067 22.1653 12.2043 24.3235 12.8191 27.2959H12.8215ZM25.0824 0L19.2494 0.00233319C17.6418 0.00233319 16.3341 1.31008 16.3341 2.91881L16.3364 11.5038C16.3002 12.5747 17.65 13.242 18.4806 12.5595L21.1661 10.4982H25.0835C26.6922 10.4982 28 9.19042 28 7.58169V2.91648C28 1.30775 26.6911 0 25.0824 0ZM26.8334 7.58285C26.8334 8.54762 26.0483 9.33274 25.0835 9.33274H20.9678C20.8395 9.33274 20.7146 9.37474 20.612 9.45407L17.769 11.6356C17.643 11.7149 17.5147 11.6554 17.5018 11.5049L17.4995 2.91998C17.4995 1.95521 18.2846 1.17009 19.2482 1.17009L25.0812 1.16776C26.046 1.16776 26.8322 1.95288 26.8322 2.91765L26.8334 7.58285ZM2.91826 10.4993H6.83568L9.52117 12.5607C10.3518 13.2432 11.7015 12.5759 11.6654 11.5049L11.6677 2.91998C11.6677 1.31008 10.36 0.00233319 8.75239 0.00233319L2.91943 0C1.31069 0 0.00177757 1.30775 0.00177757 2.91648V7.58285C0.00177757 9.19158 1.30953 10.4993 2.91826 10.4993ZM1.16837 2.91648C1.16837 1.95171 1.95465 1.16659 2.91943 1.16659L8.75239 1.16893C9.71599 1.16893 10.5011 1.95404 10.5011 2.91881L10.4988 11.5038C10.4859 11.6543 10.3576 11.7149 10.2316 11.6344L7.38864 9.4529C7.28598 9.37474 7.16232 9.33157 7.03283 9.33157H2.91826C1.95349 9.33157 1.16837 8.54646 1.16837 7.58169V2.91648Z" fill="#4A7CFD"/>
</svg>
