<svg width="28" height="31" viewBox="0 0 28 31" fill="none" xmlns="http://www.w3.org/2000/svg">
<path d="M12.3583 13.9315L13.1588 16.5301H11.5399L12.3583 13.9315ZM27.4656 23.6588C26.7083 24.8049 25.247 25.3983 23.205 25.3983C22.8326 25.3983 22.44 25.378 22.0308 25.3386C21.6814 25.3056 21.4247 24.9943 21.459 24.6461C21.4933 24.2954 21.8085 24.0425 22.1528 24.0743C24.2927 24.2814 25.7947 23.8837 26.4059 22.9586C26.7324 22.463 26.8099 21.8099 26.6371 21.0157C26.139 18.7348 23.7132 15.7575 20.2811 13.0535C21.013 18.811 19.0815 30.5091 13.9987 30.5091C12.5997 30.5091 11.2947 29.5192 10.2235 27.6488C10.0481 27.3438 10.1536 26.9562 10.4598 26.7809C10.7597 26.6055 11.1511 26.711 11.3264 27.0172C11.9072 28.0312 12.8411 29.2397 14 29.2397C15.8946 29.2397 17.9557 25.6626 18.7448 20.116C14.92 22.8595 8.69228 25.4987 4.80012 25.4263C3.13423 25.4581 1.21547 24.9345 0.454317 23.5342C-0.356391 22.1263 -0.0323622 20.1859 1.38828 17.9215C1.57762 17.6242 1.97281 17.5391 2.2638 17.722C2.56114 17.9088 2.65136 18.3015 2.46457 18.5975C1.32475 20.4108 1.00199 21.9382 1.55474 22.8989C1.84955 23.4135 2.39976 23.7757 3.18633 23.9764C5.33381 24.5266 8.82951 23.7934 12.5666 22.1276C11.7928 21.707 10.9262 21.2215 10.3264 20.8492C4.85349 17.4412 0.845693 13.0954 0.120122 9.77506C-0.128936 8.63397 0.00957089 7.65299 0.5331 6.86134C1.45055 5.47628 3.3871 4.90192 6.13054 5.19799C6.47871 5.23612 6.73158 5.54871 6.69346 5.89815C6.65661 6.24759 6.34148 6.50174 5.99331 6.46107C3.78356 6.22091 2.21932 6.61356 1.59159 7.56277C1.26502 8.05707 1.18751 8.71022 1.36033 9.5044C1.85844 11.7853 4.28294 14.7626 7.71638 17.4666C6.987 11.7065 9.44707 -0.415967 14 0.0109893C15.3978 0.0109893 16.7028 0.999595 17.7727 2.87007C17.7727 2.87007 17.7727 2.87007 17.774 2.87134C18.2391 3.68205 18.6482 4.65159 19.0028 5.7444C22.4133 4.9464 25.6727 4.36441 27.5444 6.98587C28.3716 8.42558 28.0184 10.4142 26.5202 12.7358C26.3296 13.0331 25.9319 13.1132 25.6434 12.9251C25.3486 12.7345 25.2622 12.3419 25.4541 12.0471C26.6587 10.1779 27.0107 8.60602 26.4427 7.61868C26.1479 7.10532 25.5977 6.74317 24.8111 6.54113C22.6649 5.996 19.1768 6.72284 15.4461 8.38365C16.1958 8.79535 17.0421 9.27822 17.6711 9.66832C23.1478 13.0751 27.1543 17.4221 27.8799 20.7412C28.1289 21.8823 27.9904 22.8633 27.4669 23.6549L27.4656 23.6588ZM9.2552 10.4053C9.72027 10.0927 10.1714 9.76744 10.6517 9.47391C13.0698 7.99354 15.5109 6.87278 17.7803 6.12561C17.455 5.12938 17.0891 4.23353 16.6723 3.50542C15.8527 2.07334 14.9047 1.28423 14.0013 1.28423C12.1067 1.28423 10.0456 4.86126 9.25647 10.4079L9.2552 10.4053ZM15.0178 18.2494L13.0889 11.9823C12.9911 11.6646 12.6975 11.4473 12.3646 11.4473C12.0342 11.4473 11.7407 11.6621 11.6416 11.9772L9.66945 18.2456C9.54111 18.6547 9.84608 19.0715 10.2756 19.0715C10.5526 19.0715 10.7978 18.8911 10.8817 18.6268L11.1422 17.8008H13.5514L13.8043 18.623C13.8869 18.8898 14.1322 19.0715 14.4117 19.0715C14.8387 19.0715 15.1449 18.6585 15.0191 18.2494H15.0178ZM17.8121 12.0827C17.8121 11.7319 17.5275 11.4473 17.1768 11.4473C16.826 11.4473 16.5414 11.7319 16.5414 12.0827V18.4362C16.5414 18.7869 16.826 19.0715 17.1768 19.0715C17.5275 19.0715 17.8121 18.7869 17.8121 18.4362V12.0827Z" fill="#4A7CFD"/>
</svg>
