<svg width="28" height="26" viewBox="0 0 28 26" fill="none" xmlns="http://www.w3.org/2000/svg">
<path d="M9.29356 8.73178L13.1356 4.88974L9.29356 1.04769C8.72446 0.495688 9.60498 -0.383611 10.157 0.184269L13.999 4.02632L17.8411 0.184269C18.3931 -0.384832 19.2724 0.495688 18.7045 1.04769L14.8625 4.88974L18.7045 8.73178C19.2736 9.28379 18.3931 10.1631 17.8411 9.59521L13.999 5.75316L10.157 9.59521C9.60498 10.1643 8.72568 9.28379 9.29356 8.73178ZM16.4427 23.2085C16.4427 24.5555 15.3473 25.651 14.0002 25.651C12.6532 25.651 11.5578 24.5555 11.5578 23.2085C11.5578 21.8614 12.6532 20.766 14.0002 20.766C15.3473 20.766 16.4427 21.8614 16.4427 23.2085ZM15.2215 23.2085C15.2215 22.5356 14.6732 21.9872 14.0002 21.9872C13.3273 21.9872 12.779 22.5356 12.779 23.2085C12.779 23.8814 13.3273 24.4297 14.0002 24.4297C14.6732 24.4297 15.2215 23.8814 15.2215 23.2085ZM27.8162 9.39248C25.5435 7.11974 22.7273 5.43075 19.6717 4.50749C18.9207 4.26568 18.5555 5.45884 19.3188 5.67622C22.1826 6.54209 24.8217 8.12605 26.9528 10.2559C27.5048 10.825 28.3841 9.94448 27.8162 9.39248ZM9.08961 4.91416C8.99191 4.59053 8.64874 4.40612 8.32877 4.50627C5.27321 5.42953 2.45701 7.11974 0.184269 9.39126C-0.384832 9.94326 0.495688 10.8226 1.04769 10.2547C3.17877 8.1236 5.81789 6.53965 8.68171 5.675C9.00535 5.5773 9.18731 5.23657 9.08961 4.91416ZM14.0002 12.2172C11.0644 12.2172 8.30435 13.3603 6.22823 15.4364C5.65913 15.9884 6.53964 16.8677 7.09165 16.2999C8.93696 14.4546 11.3904 13.4385 14.0002 13.4385C16.6101 13.4385 19.0635 14.4546 20.9088 16.2999C21.4609 16.869 22.3402 15.9884 21.7723 15.4364C19.6962 13.3603 16.9361 12.2172 14.0002 12.2172Z" fill="#4A7CFD"/>
</svg>
