<svg width="28" height="24" viewBox="0 0 28 24" fill="none" xmlns="http://www.w3.org/2000/svg">
<path d="M0 0V12.929L0.973 13.069C3.78933 13.474 5.83333 15.548 5.83333 18V24H8.16667V18C8.16667 15.243 10.7835 13 14 13C17.2165 13 19.8333 15.243 19.8333 18V24H22.1667V18C22.1667 15.548 24.2107 13.475 27.027 13.069L28 12.929V0H0ZM25.6667 5H21.5833V2H25.6667V5ZM8.75 5V2H12.8333V5H8.75ZM15.1667 2H19.25V5H15.1667V2ZM6.41667 2V5H2.33333V2H6.41667ZM21.0012 14.416C19.5732 12.374 16.9727 11 14 11C11.0273 11 8.42683 12.374 6.99883 14.416C5.971 12.937 4.33767 11.796 2.33333 11.289V7H25.6667V11.289C23.6635 11.796 22.0302 12.937 21.0012 14.416Z" fill="#4A7CFD"/>
</svg>
