<svg width="24" height="24" viewBox="0 0 24 24" fill="none" xmlns="http://www.w3.org/2000/svg">
<path d="M21.5 0H7.5C6.122 0 5 1.122 5 2.5V7H0V21C0 22.654 1.346 24 3 24H21C22.654 24 24 22.654 24 21V2.5C24 1.122 22.878 0 21.5 0ZM5 21C5 22.103 4.103 23 3 23C1.897 23 1 22.103 1 21V8H5V21ZM23 21C23 22.103 22.103 23 21 23H5.234C5.71 22.469 6 21.768 6 21V2.5C6 1.673 6.673 1 7.5 1H21.5C22.327 1 23 1.673 23 2.5V21ZM15 7H21V8H15V7ZM8 11H21V12H8V11ZM8 15H21V16H8V15ZM8 19H21V20H8V19ZM13 3H8V8H13V3ZM12 7H9V4H12V7Z" fill="#4A7CFD"/>
</svg>
