<svg width="29" height="28" viewBox="0 0 29 28" fill="none" xmlns="http://www.w3.org/2000/svg">
<path d="M7.5 16.3333C10.0737 16.3333 12.1667 14.2403 12.1667 11.6667C12.1667 9.093 10.0737 7 7.5 7C4.92633 7 2.83333 9.093 2.83333 11.6667C2.83333 14.2403 4.92633 16.3333 7.5 16.3333ZM7.5 8.16667C9.42967 8.16667 11 9.737 11 11.6667C11 13.5963 9.42967 15.1667 7.5 15.1667C5.57033 15.1667 4 13.5963 4 11.6667C4 9.737 5.57033 8.16667 7.5 8.16667ZM14.5 25.6667V27.4167C14.5 27.7387 14.2387 28 13.9167 28C13.5947 28 13.3333 27.7387 13.3333 27.4167V25.6667C13.3333 22.4502 10.7165 19.8333 7.5 19.8333C4.2835 19.8333 1.66667 22.4502 1.66667 25.6667V27.4167C1.66667 27.7387 1.40533 28 1.08333 28C0.761333 28 0.5 27.7387 0.5 27.4167V25.6667C0.5 21.8062 3.6395 18.6667 7.5 18.6667C11.3605 18.6667 14.5 21.8062 14.5 25.6667ZM24.4167 5.25C24.4167 6.3455 23.8112 7.3395 22.837 7.8435C22.2093 8.16667 22.0833 8.43033 22.0833 8.75C22.0833 9.072 21.822 9.33333 21.5 9.33333C21.178 9.33333 20.9167 9.072 20.9167 8.75C20.9167 7.64867 21.7065 7.11317 22.3015 6.80633C22.8872 6.50417 23.25 5.908 23.25 5.25C23.25 4.28517 22.4648 3.5 21.5 3.5C20.5352 3.5 19.75 4.28517 19.75 5.25C19.75 5.572 19.4887 5.83333 19.1667 5.83333C18.8447 5.83333 18.5833 5.572 18.5833 5.25C18.5833 3.64233 19.8923 2.33333 21.5 2.33333C23.1077 2.33333 24.4167 3.64233 24.4167 5.25ZM22.6667 11.6667C22.6667 12.3107 22.144 12.8333 21.5 12.8333C20.856 12.8333 20.3333 12.3107 20.3333 11.6667C20.3333 11.0227 20.856 10.5 21.5 10.5C22.144 10.5 22.6667 11.0227 22.6667 11.6667ZM28.5 2.91667V9.91667C28.5 11.5243 27.191 12.8333 25.5833 12.8333H24.4167C24.0947 12.8333 23.8333 12.572 23.8333 12.25C23.8333 11.928 24.0947 11.6667 24.4167 11.6667H25.5833C26.5482 11.6667 27.3333 10.8815 27.3333 9.91667V2.91667C27.3333 2.44883 27.1513 2.01017 26.8212 1.67883C26.491 1.34867 26.0512 1.16667 25.5845 1.16667H17.4167C16.4518 1.169 15.6667 1.95417 15.6667 2.919V13.8378C15.6807 13.9883 15.8102 14.0502 15.935 13.9697L18.2275 12.2092C18.4842 12.0132 18.8505 12.0633 19.0453 12.3165C19.2413 12.572 19.1935 12.9383 18.938 13.1343L16.6455 14.8948C16.2383 15.2075 15.7005 15.2577 15.2443 15.0337C14.7858 14.8073 14.5012 14.35 14.5012 13.839V2.919C14.5 1.31133 15.8078 0.00233333 17.4167 0.00116667H25.5833V0C26.3615 0 27.0942 0.303333 27.6448 0.854C28.1955 1.40467 28.5 2.13733 28.5 2.91667Z" fill="#4A7CFD"/>
</svg>
