<svg width="29" height="28" viewBox="0 0 29 28" fill="none" xmlns="http://www.w3.org/2000/svg">
<path d="M21.0511 6.37043C20.8003 4.62033 20.8003 2.84605 21.0511 1.09468C21.1504 0.397189 21.7893 -0.0902921 22.4906 0.0140773C23.1856 0.113356 23.6692 0.758664 23.57 1.45488C23.4834 2.06201 23.4338 2.67295 23.4172 3.28517L26.3268 0.375552C26.8245 -0.122112 27.6289 -0.122112 28.1266 0.375552C28.6242 0.873216 28.6242 1.67762 28.1266 2.17529L25.217 5.0849C25.8292 5.06708 26.4401 5.01744 27.0472 4.92962C27.7371 4.83671 28.3888 5.31401 28.4868 6.01023C28.5873 6.70645 28.1037 7.35048 27.4074 7.45103C26.533 7.57704 25.651 7.63813 24.7689 7.63813C23.8869 7.63813 23.0061 7.57577 22.1304 7.45103C21.5717 7.37085 21.1313 6.93046 21.0511 6.37043ZM3.78304 5.0849C3.1721 5.06708 2.56116 5.01744 1.95276 4.92962C1.25781 4.83162 0.612505 5.31401 0.513227 6.01023C0.412676 6.70645 0.896339 7.35048 1.59256 7.45103C2.46697 7.57704 3.34902 7.63813 4.23107 7.63813C5.11312 7.63813 5.99389 7.57577 6.86958 7.45103C7.42834 7.37085 7.86872 6.93046 7.94891 6.37043C8.19965 4.62033 8.19965 2.84605 7.94891 1.09468C7.84963 0.397189 7.19923 -0.0775641 6.50938 0.0140773C5.81443 0.113356 5.33077 0.758664 5.43004 1.45488C5.51659 2.06201 5.56623 2.67295 5.58278 3.28517L2.67316 0.374279C2.1755 -0.123385 1.37109 -0.123385 0.873428 0.374279C0.375765 0.871943 0.375765 1.67635 0.873428 2.17401L3.78304 5.0849ZM25.217 22.9181C25.8292 22.9359 26.4401 22.9855 27.0472 23.0734C27.732 23.1726 28.3875 22.689 28.4868 21.9927C28.5873 21.2965 28.1037 20.6525 27.4074 20.5519C25.6586 20.3012 23.8818 20.3012 22.1304 20.5519C21.5717 20.6321 21.1313 21.0725 21.0511 21.6325C20.8003 23.3826 20.8003 25.1569 21.0511 26.9083C21.1478 27.6083 21.8097 28.0894 22.4906 27.9889C23.1856 27.8896 23.6692 27.2443 23.57 26.5481C23.4834 25.941 23.4338 25.33 23.4172 24.7178L26.3268 27.6274C26.8245 28.1251 27.6289 28.1251 28.1266 27.6274C28.6242 27.1298 28.6242 26.3253 28.1266 25.8277L25.217 22.9181ZM6.86958 20.5519C5.11821 20.3012 3.34138 20.3012 1.59256 20.5519C0.896339 20.6525 0.412676 21.2965 0.513227 21.9927C0.612505 22.6902 1.2629 23.1777 1.95276 23.0734C2.56116 22.9868 3.17083 22.9359 3.78304 22.9181L0.873428 25.8277C0.375765 26.3253 0.375765 27.1298 0.873428 27.6274C1.37109 28.1251 2.1755 28.1251 2.67316 27.6274L5.58278 24.7178C5.56623 25.3287 5.51659 25.9397 5.43004 26.5481C5.33077 27.2443 5.81443 27.8896 6.50938 27.9889C7.19032 28.0894 7.85218 27.6083 7.94891 26.9083C8.19965 25.1569 8.19965 23.3826 7.94891 21.6325C7.87 21.0738 7.42961 20.6334 6.86958 20.5519ZM14.4962 12.0917C13.1916 12.1006 12.6188 12.6708 12.5921 14.0008C12.6201 15.3487 13.175 15.9024 14.5051 15.91C15.8313 15.9024 16.3863 15.3449 16.4105 13.9894C16.3876 12.6937 15.797 12.1006 14.4975 12.0917H14.4962ZM22.7159 14.3751C21.5386 18.2049 18.6251 20.3317 14.514 20.3648H14.4936C10.3672 20.333 7.45125 18.2049 6.28155 14.3725C6.20772 14.1307 6.20772 13.871 6.28155 13.6279C7.45379 9.80062 10.3672 7.67505 14.4847 7.63686C18.6073 7.67377 21.5208 9.79935 22.7121 13.6216C22.7885 13.8659 22.7897 14.1294 22.7134 14.3751H22.7159ZM20.1576 14.0034C19.2412 11.4934 17.3358 10.2092 14.486 10.1825C11.6057 10.2092 9.74737 11.4591 8.83987 14.0008C9.73846 16.5108 11.6413 17.7938 14.5038 17.8192C17.3523 17.7938 19.2539 16.5108 20.1576 14.0034Z" fill="#4A7CFD"/>
</svg>
