<svg width="29" height="34" viewBox="0 0 29 34" fill="none" xmlns="http://www.w3.org/2000/svg">
<path d="M14.5 16.7982C12.1845 16.7982 10.3001 18.6825 10.3001 20.9981C10.3001 23.3136 12.1845 25.198 14.5 25.198C16.8155 25.198 18.6999 23.3136 18.6999 20.9981C18.6999 18.6825 16.8155 16.7982 14.5 16.7982ZM14.5 23.798C12.9558 23.798 11.7001 22.5422 11.7001 20.9981C11.7001 19.4539 12.9558 18.1981 14.5 18.1981C16.0442 18.1981 17.2999 19.4539 17.2999 20.9981C17.2999 22.5422 16.0442 23.798 14.5 23.798ZM28.2953 19.3937L20.0999 27.5891V32.8992C20.0999 33.2856 19.7863 33.5992 19.3999 33.5992C19.0135 33.5992 18.6999 33.2856 18.6999 32.8992V27.9993H10.3001V32.8992C10.3001 33.2856 9.98651 33.5992 9.60012 33.5992C9.21373 33.5992 8.90014 33.2856 8.90014 32.8992V27.5891L0.704745 19.3937C0.431752 19.1207 0.431752 18.6769 0.704745 18.4039C0.977738 18.1309 1.42153 18.1309 1.69452 18.4039L9.88992 26.5993H19.1101L27.3055 18.4039C27.5785 18.1309 28.0223 18.1309 28.2953 18.4039C28.5682 18.6769 28.5682 19.1207 28.2953 19.3937ZM9.87732 9.49176L8.92114 12.5577C8.68455 13.3137 8.95054 14.1382 9.58332 14.6114C9.90811 14.855 10.2959 14.9838 10.7033 14.9838C11.0729 14.9838 11.4327 14.8746 11.7421 14.6688L14.5168 12.8111L17.3433 14.652C18.0055 15.0818 18.8721 15.0482 19.5021 14.5652C20.1293 14.0822 20.3827 13.2521 20.1349 12.5017L19.1437 9.48196L21.539 7.53041C22.1368 7.02782 22.358 6.19624 22.092 5.46126C21.8246 4.72908 21.119 4.23629 20.3379 4.23629H17.3307L16.2542 1.21657C15.984 0.488588 15.2812 0 14.5042 0C13.7272 0 13.0244 0.488588 12.7514 1.22497L11.6777 4.23629H8.67055C7.89077 4.23629 7.18658 4.72768 6.91919 5.45846C6.6504 6.19065 6.86879 7.02082 7.47498 7.53461L9.88012 9.49176H9.87732ZM8.22956 5.94145C8.29675 5.75946 8.47315 5.63626 8.66775 5.63626H12.1677C12.4631 5.63626 12.7276 5.45006 12.827 5.17147L14.0632 1.70236C14.1976 1.33977 14.8066 1.34817 14.934 1.69396L16.173 5.17007C16.2724 5.44866 16.5369 5.63486 16.8323 5.63486H20.3323C20.5282 5.63486 20.7046 5.75806 20.7704 5.94005C20.8376 6.12345 20.7816 6.33204 20.6402 6.45104L17.8809 8.69938C17.6569 8.88278 17.5673 9.18517 17.6583 9.45956L18.8007 12.9385C18.8623 13.1261 18.8007 13.3347 18.6439 13.4537C18.4857 13.5769 18.2687 13.5825 18.1021 13.4761L14.8892 11.3831C14.654 11.2291 14.3516 11.2333 14.1178 11.3873L10.9609 13.5013C10.7957 13.6119 10.5759 13.6035 10.4191 13.4873C10.2623 13.3697 10.1951 13.1625 10.2553 12.9721L11.3529 9.45256C11.4383 9.17957 11.3487 8.88138 11.1261 8.70078L8.36395 6.45384C8.21556 6.32784 8.16096 6.12065 8.22816 5.93725L8.22956 5.94145Z" fill="#4A7CFD"/>
</svg>
