<svg width="29" height="28" viewBox="0 0 29 28" fill="none" xmlns="http://www.w3.org/2000/svg">
<path d="M11.1607 3.88194C10.9401 3.6474 10.9506 3.27866 11.1852 3.05695L13.9647 0.439625C14.5458 -0.142652 15.6147 -0.154321 16.2215 0.451294L18.9882 3.05695C19.2227 3.2775 19.2332 3.6474 19.0127 3.88194C18.8983 4.0033 18.7431 4.06515 18.5879 4.06515C18.4444 4.06515 18.3009 4.01264 18.1877 3.90645L15.6707 1.53533V11.0676C15.6707 11.3897 15.4093 11.6511 15.0873 11.6511C14.7652 11.6511 14.5038 11.3897 14.5038 11.0676V1.53417L11.9868 3.90645C11.7523 4.12816 11.3824 4.11766 11.1619 3.88194H11.1607ZM2.65057 7.40711L5.16755 5.03483V11.0665C5.16755 11.3885 5.42893 11.6499 5.75099 11.6499C6.07306 11.6499 6.33444 11.3885 6.33444 11.0665V5.03483L8.85142 7.40594C8.9646 7.51213 9.10813 7.56464 9.25166 7.56464C9.40685 7.56464 9.56205 7.5028 9.6764 7.38144C9.89695 7.1469 9.88645 6.77816 9.6519 6.55645L6.88521 3.95079C6.27843 3.34401 5.20956 3.35684 4.62845 3.93912L1.85009 6.55762C1.61554 6.77816 1.60504 7.14806 1.82558 7.38261C2.04613 7.61832 2.41486 7.62882 2.65057 7.40711ZM27.7632 15.3618L19.8213 24.2768C17.7186 26.6351 14.7022 27.9875 11.5446 27.9875H4.58411C2.33201 27.9875 0.5 26.1555 0.5 23.9034V18.069C0.5 15.8169 2.33201 13.9849 4.58411 13.9849H16.0873C17.4969 13.9849 18.6871 14.9347 19.0535 16.2288L23.4083 11.4422C23.9346 10.8634 24.6557 10.5239 25.4376 10.4877C26.2147 10.4574 26.9685 10.7211 27.5485 11.2485C28.7282 12.3244 28.8239 14.1704 27.7632 15.363V15.3618ZM26.7631 12.1097C26.4154 11.7923 25.9592 11.6266 25.4936 11.6511C25.0233 11.6733 24.5892 11.8775 24.2718 12.2252L19.0267 17.9896C18.6754 19.0935 17.7151 19.9488 16.5225 20.118L9.32167 20.9792C8.99261 21.0294 8.71139 20.789 8.67288 20.4693C8.63437 20.1495 8.86308 19.859 9.18281 19.8205L16.372 18.9605C17.2973 18.8286 18.0045 18.013 18.0045 17.0654C18.0045 16.0094 17.1445 15.1482 16.0885 15.1482H4.58411C2.97614 15.1482 1.66689 16.4563 1.66689 18.0655V23.8999C1.66689 25.509 2.97614 26.8171 4.58411 26.8171H11.5446C14.3696 26.8171 17.0686 25.6071 18.9508 23.4962L26.8927 14.5823C27.5321 13.8647 27.4738 12.7538 26.7643 12.1062L26.7631 12.1097Z" fill="#4A7CFD"/>
</svg>
