<svg width="28" height="28" viewBox="0 0 28 28" fill="none" xmlns="http://www.w3.org/2000/svg">
<path d="M4.6672 4.6672C5.95418 4.6672 7.0008 3.62058 7.0008 2.3336C7.0008 1.04662 5.95418 0 4.6672 0C3.38022 0 2.3336 1.04662 2.3336 2.3336C2.3336 3.62058 3.38022 4.6672 4.6672 4.6672ZM4.6672 1.1668C5.31128 1.1668 5.834 1.69069 5.834 2.3336C5.834 2.97651 5.31128 3.5004 4.6672 3.5004C4.02313 3.5004 3.5004 2.97651 3.5004 2.3336C3.5004 1.69069 4.02313 1.1668 4.6672 1.1668ZM10.5012 5.834C11.7882 5.834 12.8348 4.78738 12.8348 3.5004C12.8348 2.21342 11.7882 1.1668 10.5012 1.1668C9.21423 1.1668 8.16761 2.21342 8.16761 3.5004C8.16761 4.78738 9.21423 5.834 10.5012 5.834ZM10.5012 2.3336C11.1453 2.3336 11.668 2.8575 11.668 3.5004C11.668 4.14331 11.1453 4.6672 10.5012 4.6672C9.85713 4.6672 9.33441 4.14331 9.33441 3.5004C9.33441 2.8575 9.85713 2.3336 10.5012 2.3336ZM16.3352 4.6672C17.6222 4.6672 18.6688 3.62058 18.6688 2.3336C18.6688 1.04662 17.6222 0 16.3352 0C15.0482 0 14.0016 1.04662 14.0016 2.3336C14.0016 3.62058 15.0482 4.6672 16.3352 4.6672ZM16.3352 1.1668C16.9793 1.1668 17.502 1.69069 17.502 2.3336C17.502 2.97651 16.9793 3.5004 16.3352 3.5004C15.6911 3.5004 15.1684 2.97651 15.1684 2.3336C15.1684 1.69069 15.6911 1.1668 16.3352 1.1668ZM27.0476 11.2655C26.4689 10.7381 25.7163 10.479 24.9369 10.5047C24.1551 10.542 23.434 10.8804 22.9078 11.4592L18.5533 16.2454C18.1869 14.9526 16.9956 14.0028 15.5861 14.0028H2.917C1.30798 14.0028 0 15.3119 0 16.9198V25.0874C0 26.6952 1.30798 28.0044 2.917 28.0044H16.0143L27.26 15.3819C28.3241 14.1906 28.2296 12.3436 27.0476 11.2666V11.2655ZM26.3895 14.6048L15.4904 26.8364H2.917C1.95206 26.8364 1.1668 26.0512 1.1668 25.0862V16.9186C1.1668 15.9537 1.95206 15.1684 2.917 15.1684H15.585C16.6409 15.1684 17.502 16.0283 17.502 17.0843C17.502 18.0317 16.7949 18.8473 15.865 18.9803L9.25973 19.8403L9.41025 20.9966L16.0237 20.1355C17.215 19.9651 18.1753 19.111 18.5265 18.0072L23.7724 12.2432C24.0886 11.8955 24.5227 11.6913 24.9929 11.6692C25.4573 11.6482 25.9135 11.8092 26.2624 12.1277C26.9729 12.7753 27.0301 13.8861 26.3895 14.6048ZM7.0008 8.75101C7.0008 7.78606 7.78606 7.0008 8.75101 7.0008H12.2514C13.2164 7.0008 14.0016 7.78606 14.0016 8.75101V10.5012H12.8348V8.75101C12.8348 8.42897 12.5723 8.16761 12.2514 8.16761H8.75101C8.43014 8.16761 8.16761 8.42897 8.16761 8.75101V10.5012H7.0008V8.75101ZM18.0854 5.834C19.0504 5.834 19.8356 6.61926 19.8356 7.5842V9.33441H18.6688V7.5842C18.6688 7.26217 18.4063 7.0008 18.0854 7.0008H15.9245C15.7156 6.56675 15.4426 6.16771 15.1007 5.834H18.0854ZM2.3336 9.33441H1.1668V7.5842C1.1668 6.61926 1.95206 5.834 2.917 5.834H5.90168C5.55981 6.16771 5.28677 6.56675 5.07792 7.0008H2.917C2.59613 7.0008 2.3336 7.26217 2.3336 7.5842V9.33441Z" fill="#4A7CFD"/>
</svg>
