<svg width="28" height="28" viewBox="0 0 28 28" fill="none" xmlns="http://www.w3.org/2000/svg">
<path d="M14 9.3345C15.2868 9.3345 16.3333 8.288 16.3333 7.00117C16.3333 5.71433 15.2868 4.66783 14 4.66783C12.7132 4.66783 11.6667 5.71433 11.6667 7.00117C11.6667 8.288 12.7132 9.3345 14 9.3345ZM14 5.8345C14.644 5.8345 15.1667 6.35717 15.1667 7.00117C15.1667 7.64517 14.644 8.16783 14 8.16783C13.356 8.16783 12.8333 7.64517 12.8333 7.00117C12.8333 6.35717 13.356 5.8345 14 5.8345ZM23.3333 22.1678C24.9422 22.1678 26.25 20.86 26.25 19.2512C26.25 17.6423 24.9422 16.3345 23.3333 16.3345C21.7245 16.3345 20.4167 17.6423 20.4167 19.2512C20.4167 20.86 21.7245 22.1678 23.3333 22.1678ZM23.3333 17.5012C24.2982 17.5012 25.0833 18.2863 25.0833 19.2512C25.0833 20.216 24.2982 21.0012 23.3333 21.0012C22.3685 21.0012 21.5833 20.216 21.5833 19.2512C21.5833 18.2863 22.3685 17.5012 23.3333 17.5012ZM1.75 19.2512C1.75 20.86 3.05783 22.1678 4.66667 22.1678C6.2755 22.1678 7.58333 20.86 7.58333 19.2512C7.58333 17.6423 6.2755 16.3345 4.66667 16.3345C3.05783 16.3345 1.75 17.6423 1.75 19.2512ZM6.41667 19.2512C6.41667 20.216 5.6315 21.0012 4.66667 21.0012C3.70183 21.0012 2.91667 20.216 2.91667 19.2512C2.91667 18.2863 3.70183 17.5012 4.66667 17.5012C5.6315 17.5012 6.41667 18.2863 6.41667 19.2512ZM27.9487 27.3292C27.9977 27.6477 27.734 27.9522 27.4167 28.0012C27.1343 28.0012 26.8403 27.7947 26.796 27.5065C26.5335 25.7927 24.92 24.5012 23.0417 24.5012C21.1633 24.5012 19.5498 25.7927 19.2873 27.5065C19.2442 27.7912 18.9467 27.9942 18.6667 28.0012C18.3867 28.0012 18.0915 27.7982 18.0448 27.5123C17.7637 25.795 16.0253 24.5012 14 24.5012C11.9747 24.5012 10.2363 25.795 9.95517 27.5123C9.9085 27.7958 9.60517 27.9988 9.33333 28.0012C9.051 28.0012 8.757 27.7947 8.71267 27.5065C8.45017 25.7927 6.83667 24.5012 4.95833 24.5012C3.08 24.5012 1.4665 25.7927 1.204 27.5065C1.155 27.825 0.863333 28.042 0.539 27.9942C0.221667 27.9452 0.00233333 27.6477 0.0513333 27.3292C0.400167 25.0518 2.5095 23.3345 4.95833 23.3345C6.84017 23.3345 8.51433 24.3542 9.34967 25.858C10.2352 24.3542 12.0073 23.3345 14 23.3345C15.9927 23.3345 17.7648 24.3542 18.6503 25.858C19.4857 24.3542 21.1598 23.3345 23.0417 23.3345C25.4905 23.3345 27.5998 25.0518 27.9487 27.3292ZM28 11.0845V14.5845C28 14.9065 27.7387 15.1678 27.4167 15.1678C27.0947 15.1678 26.8333 14.9065 26.8333 14.5845V11.0845C26.8333 9.47567 25.5255 8.16783 23.9167 8.16783H22.75C22.428 8.16783 22.1667 7.9065 22.1667 7.5845C22.1667 7.2625 22.428 7.00117 22.75 7.00117H23.9167C26.1683 7.00117 28 8.83283 28 11.0845ZM7.7805 9.22133C7.66267 9.67517 7.72917 10.1453 7.96483 10.5478C8.20167 10.9515 8.58083 11.2385 9.0335 11.3552C9.48733 11.4765 9.9575 11.4077 10.3623 11.1697L10.6225 11.0168C11.0973 11.4135 11.6503 11.7238 12.2512 11.9338V12.25C12.2512 13.2148 13.0363 14 14.0012 14C14.966 14 15.7512 13.2148 15.7512 12.25V11.9338C16.352 11.7238 16.9038 11.4135 17.3798 11.0168L17.64 11.1697C18.0448 11.4077 18.515 11.4765 18.9688 11.3552C19.4215 11.2373 19.8007 10.9503 20.0363 10.549C20.2732 10.1453 20.3397 9.67517 20.2218 9.22133C20.104 8.76867 19.817 8.3895 19.4145 8.1515L19.1438 7.99167C19.2173 7.64283 19.2535 7.32083 19.2535 7C19.2535 6.67917 19.2185 6.35717 19.1427 6.00717L19.4145 5.84733C19.8182 5.6105 20.1052 5.23133 20.2218 4.77867C20.3397 4.32483 20.2732 3.85467 20.0375 3.45217C19.8007 3.0485 19.4215 2.7615 18.9688 2.64483C18.515 2.52467 18.0448 2.59233 17.64 2.83033L17.3798 2.98317C16.905 2.5865 16.352 2.27617 15.7512 2.06617V1.75C15.7512 0.785167 14.966 0 14.0012 0C13.0363 0 12.2512 0.785167 12.2512 1.75V2.06617C11.6503 2.27617 11.0985 2.5865 10.6225 2.98317L10.3623 2.83033C9.9575 2.59233 9.48733 2.52467 9.0335 2.64483C8.58083 2.76267 8.20167 3.04967 7.966 3.451C7.72917 3.85467 7.66267 4.32483 7.7805 4.77867C7.89833 5.23133 8.18533 5.6105 8.58667 5.84617L8.85967 6.00717C8.785 6.35717 8.74883 6.67917 8.74883 7C8.74883 7.32083 8.78383 7.64283 8.8585 7.99167L8.58667 8.15267C8.18417 8.3895 7.89717 8.76867 7.7805 9.22133ZM10.0917 8.11533C9.9715 7.69417 9.91667 7.3395 9.91667 7.00117C9.91667 6.66283 9.97267 6.30817 10.0917 5.887C10.164 5.6315 10.0567 5.35967 9.82683 5.2255L9.177 4.84283C9.04283 4.76467 8.94717 4.6375 8.90867 4.487C8.87017 4.3365 8.89117 4.179 8.97167 4.04483C9.04983 3.91067 9.17583 3.815 9.3275 3.7765C9.47917 3.73683 9.6355 3.759 9.76967 3.83833L10.3997 4.20933C10.6295 4.34467 10.9223 4.3085 11.1078 4.1195C11.6107 3.6155 12.2558 3.25267 12.9792 3.066C13.237 2.99833 13.4167 2.76617 13.4167 2.50133V1.75233C13.4167 1.4315 13.6792 1.169 14 1.169C14.3208 1.169 14.5833 1.4315 14.5833 1.75233V2.50133C14.5833 2.76733 14.763 2.9995 15.0208 3.066C15.743 3.25267 16.3893 3.61667 16.8922 4.1195C17.0788 4.30733 17.3705 4.3435 17.6003 4.20933L18.2303 3.83833C18.3633 3.76017 18.5208 3.738 18.6725 3.7765C18.8242 3.815 18.949 3.91067 19.0295 4.046C19.1077 4.179 19.1298 4.3365 19.0913 4.487C19.0528 4.6375 18.9572 4.7635 18.8218 4.844L18.1732 5.2255C17.9445 5.35967 17.836 5.63267 17.9083 5.887C18.0285 6.30817 18.0833 6.66283 18.0833 7.00117C18.0833 7.3395 18.0273 7.69417 17.9083 8.11533C17.836 8.37083 17.9445 8.64267 18.1743 8.778L18.8218 9.15717C18.9572 9.2365 19.0528 9.36367 19.0913 9.51533C19.1298 9.66583 19.1088 9.82333 19.0283 9.9575C18.9502 10.0917 18.8242 10.1873 18.6725 10.2258C18.5185 10.2643 18.3645 10.2433 18.2303 10.164L17.6003 9.793C17.3717 9.65883 17.08 9.695 16.8922 9.88283C16.3893 10.3868 15.7442 10.7497 15.0208 10.9363C14.763 11.004 14.5833 11.2362 14.5833 11.501V12.25C14.5833 12.5708 14.3208 12.8333 14 12.8333C13.6792 12.8333 13.4167 12.5708 13.4167 12.25V11.501C13.4167 11.235 13.237 11.0028 12.9792 10.9363C12.257 10.7497 11.6107 10.3857 11.1078 9.88283C10.9958 9.76967 10.8453 9.7125 10.6948 9.7125C10.5933 9.7125 10.4907 9.73817 10.3985 9.793L9.7685 10.164C9.63667 10.2422 9.48033 10.2655 9.32633 10.2258C9.17467 10.1873 9.04983 10.0917 8.96933 9.95633C8.89117 9.82333 8.869 9.66583 8.9075 9.51533C8.946 9.36367 9.04167 9.23767 9.17583 9.15833L9.8245 8.778C10.0532 8.64267 10.164 8.36967 10.0917 8.11533ZM0 14.5845V11.0845C0 8.83283 1.83167 7.00117 4.08333 7.00117H5.25C5.572 7.00117 5.83333 7.2625 5.83333 7.5845C5.83333 7.9065 5.572 8.16783 5.25 8.16783H4.08333C2.4745 8.16783 1.16667 9.47567 1.16667 11.0845V14.5845C1.16667 14.9065 0.905333 15.1678 0.583333 15.1678C0.261333 15.1678 0 14.9065 0 14.5845ZM11.0833 19.2512C11.0833 20.86 12.3912 22.1678 14 22.1678C15.6088 22.1678 16.9167 20.86 16.9167 19.2512C16.9167 17.6423 15.6088 16.3345 14 16.3345C12.3912 16.3345 11.0833 17.6423 11.0833 19.2512ZM15.75 19.2512C15.75 20.216 14.9648 21.0012 14 21.0012C13.0352 21.0012 12.25 20.216 12.25 19.2512C12.25 18.2863 13.0352 17.5012 14 17.5012C14.9648 17.5012 15.75 18.2863 15.75 19.2512Z" fill="#4A7CFD"/>
</svg>
