<svg width="45" height="45" viewBox="0 0 45 45" fill="none" xmlns="http://www.w3.org/2000/svg">
<g clip-path="url(#clip0_830_1688)">
<path d="M41.8444 3.9158C39.8419 2.2433 37.2206 1.54955 34.65 2.0183L27.1594 3.38143C25.1475 3.74705 23.4769 4.9733 22.5 6.63643C21.5231 4.97143 19.8525 3.74705 17.8387 3.38143L10.3481 2.0183C7.77938 1.5533 5.15812 2.2433 3.15375 3.9158C1.14938 5.59018 0 8.04455 0 10.6564V31.9827C0 36.2258 3.03188 39.8577 7.2075 40.6189L19.5262 42.8577C20.5125 43.0377 21.5062 43.1277 22.4981 43.1277C23.49 43.1277 24.4856 43.0377 25.4719 42.8577L37.7906 40.6189C41.9681 39.8577 44.9981 36.2239 44.9981 31.9827V10.6564C44.9981 8.04643 43.8506 5.59018 41.8444 3.9158ZM21.5625 41.2208C20.9944 41.1833 20.4281 41.1139 19.8619 41.0127L7.54312 38.7739C4.25812 38.1758 1.875 35.3183 1.875 31.9827V10.6564C1.875 8.6033 2.77875 6.67205 4.35563 5.3558C5.60812 4.30955 7.17 3.75268 8.77125 3.75268C9.18375 3.75268 9.59813 3.79205 10.0125 3.86705L17.5031 5.23018C19.8544 5.65955 21.5625 7.7033 21.5625 10.0939V41.2264V41.2208ZM43.125 31.9808C43.125 35.3164 40.7419 38.1739 37.4569 38.772L25.14 41.0108C24.5737 41.1139 24.0075 41.1833 23.4394 41.2189V10.0902C23.4394 7.70143 25.1456 5.6558 27.4988 5.22643L34.9894 3.8633C37.0031 3.49768 39.0713 4.03955 40.6462 5.3558C42.2231 6.67018 43.1269 8.60143 43.1269 10.6546L43.125 31.9808Z" fill="#4A7CFD"/>
</g>
<defs>
<clipPath id="clip0_830_1688">
<rect width="45" height="45" fill="white"/>
</clipPath>
</defs>
</svg>
