<svg width="28" height="28" viewBox="0 0 28 28" fill="none" xmlns="http://www.w3.org/2000/svg">
<path d="M14.0006 14.0021C13.6786 14.0021 13.4172 13.7408 13.4172 13.4188V12.8354H12.8922C11.7896 12.8354 10.8644 12.224 10.533 11.2778C10.4268 10.9733 10.5867 10.6407 10.8912 10.5346C11.1957 10.4261 11.5282 10.5894 11.6344 10.8927C11.7989 11.3641 12.2925 11.6686 12.8922 11.6686H15.0133C15.7425 11.6686 16.3341 11.0759 16.3341 10.3479C16.3341 9.7505 15.9316 9.22547 15.3552 9.07146L12.282 8.24773C11.2319 7.96071 10.5003 7.00281 10.5003 5.91657C10.5003 4.58415 11.5843 3.50141 12.9155 3.50141H13.4172V2.91803C13.4172 2.59601 13.6786 2.33466 14.0006 2.33466C14.3226 2.33466 14.584 2.59601 14.584 2.91803V3.50141H15.2105C16.2127 3.50141 17.096 4.10578 17.4612 5.03918C17.579 5.33903 17.4297 5.67739 17.1298 5.79406C16.8288 5.91191 16.4904 5.7649 16.3737 5.46271C16.1847 4.97968 15.7285 4.66699 15.2093 4.66699H12.9155C12.2271 4.66699 11.6671 5.22703 11.6671 5.91541C11.6671 6.47661 12.0451 6.97131 12.5877 7.11949L15.6574 7.94205C16.7424 8.23373 17.5008 9.22313 17.5008 10.3467C17.5008 11.7188 16.3842 12.8342 15.0133 12.8342H14.584V13.4176C14.584 13.7396 14.3226 14.001 14.0006 14.001V14.0021ZM27.9374 18.5921C25.4079 27.7394 15.1603 28.0031 14.0006 28.0031C12.8408 28.0031 2.5933 27.7382 0.0626258 18.5921C-0.0913848 18.0367 0.042791 17.437 0.41965 16.9855C0.804677 16.5246 1.38455 16.289 1.97609 16.338C8.49004 16.9447 11.8584 21.4343 13.4172 24.469V16.3053C9.18659 16.0043 5.83336 12.4737 5.83336 8.16723C5.83336 3.66475 9.49694 0 14.0006 0C18.5042 0 22.1678 3.66475 22.1678 8.16723C22.1678 12.4737 18.8146 16.0031 14.584 16.3053V24.4678C16.1416 21.432 19.51 16.9435 26.0239 16.3368C26.6166 16.2878 27.1953 16.5235 27.5804 16.9843C27.9572 17.4359 28.0914 18.0356 27.9374 18.5909V18.5921ZM14.0006 15.1689C17.8613 15.1689 21.0011 12.0292 21.0011 8.1684C21.0011 4.30763 17.8613 1.16791 14.0006 1.16791C10.1398 1.16791 7.0001 4.30763 7.0001 8.1684C7.0001 12.0292 10.1398 15.1689 14.0006 15.1689ZM13.1967 26.8072C12.4056 24.574 9.49694 18.2118 1.86875 17.5C1.85008 17.4977 1.83025 17.4965 1.81158 17.4965C1.62373 17.4965 1.44172 17.5829 1.31455 17.7346C1.18154 17.8932 1.13487 18.0927 1.18737 18.2818C3.18951 25.5179 10.6042 26.638 13.1967 26.8072ZM26.6866 17.7346C26.5606 17.584 26.3774 17.4977 26.1896 17.4977C26.1709 17.4977 26.1511 17.4977 26.1324 17.5012C18.5042 18.2118 15.5967 24.574 14.8056 26.8083C17.3993 26.6392 24.8117 25.5203 26.8138 18.2818C26.8663 18.0939 26.8196 17.8944 26.6866 17.7346Z" fill="#4A7CFD"/>
</svg>
