<svg width="16" height="16" viewBox="0 0 16 16" fill="none" xmlns="http://www.w3.org/2000/svg">
<path d="M11.7253 5.72462L12.194 6.19795L8.168 10.186C7.846 10.5053 7.42067 10.6653 6.996 10.6653C6.574 10.6653 6.152 10.508 5.83 10.1926L3.80667 8.19862L4.274 7.72395L6.29667 9.71729C6.684 10.096 7.31267 10.094 7.69933 9.71262L11.7253 5.72462ZM16 8.00195C16 12.4133 12.4113 16.002 8 16.002C3.58867 16.002 0 12.4133 0 8.00195C0 3.59062 3.58867 0.00195312 8 0.00195312C12.4113 0.00195312 16 3.59062 16 8.00195ZM15.3333 8.00195C15.3333 3.95862 12.0433 0.66862 8 0.66862C3.95667 0.66862 0.666667 3.95862 0.666667 8.00195C0.666667 12.0453 3.95667 15.3353 8 15.3353C12.0433 15.3353 15.3333 12.0453 15.3333 8.00195Z" fill="#4A7CFD"/>
</svg>
