<svg width="29" height="28" viewBox="0 0 29 28" fill="none" xmlns="http://www.w3.org/2000/svg">
<path d="M23.8333 0C21.5968 0.0315 19.1667 0.583333 19.1667 2.04167V5.83333H9.83333V2.04167C9.83333 0.583333 7.402 0.0315 5.16667 0C2.93017 0.0315 0.5 0.583333 0.5 2.04167V10.8885C0.5 12.1193 2.46817 12.7202 4.58333 12.8147V15.1877C2.53 15.3172 0.5 15.75 0.5 17.2083V26.0552C0.5 27.398 2.84383 28 5.16667 28C7.4895 28 9.83333 27.398 9.83333 26.0552V17.2083C9.83333 15.75 7.80333 15.3172 5.75 15.1877V12.8147C7.86517 12.7213 9.83333 12.1193 9.83333 10.8885V9.99483L19.1667 17.773V26.0552C19.1667 27.398 21.5105 28 23.8333 28C26.1562 28 28.5 27.398 28.5 26.0552V17.2083C28.5 15.75 26.0687 15.1982 23.8333 15.1667C22.0215 15.1667 20.1222 15.5902 19.4432 16.485L9.83333 8.477V7H19.1667V10.8885C19.1667 12.2313 21.5105 12.8333 23.8333 12.8333C26.1562 12.8333 28.5 12.2313 28.5 10.8885V2.04167C28.5 0.568167 25.945 0 23.8333 0ZM5.16667 1.16667C7.409 1.16667 8.5955 1.80833 8.66783 2.03117C8.5955 2.275 7.409 2.91667 5.16667 2.91667C2.95467 2.91667 1.7705 2.2925 1.669 2.04167C1.7705 1.79083 2.95583 1.16667 5.16667 1.16667ZM1.66667 3.437C2.579 3.86983 3.89267 4.08333 5.16667 4.08333C6.44067 4.08333 7.7555 3.86983 8.66783 3.43583V5.02367C8.55233 5.257 7.3565 5.83333 5.16667 5.83333C3.00017 5.83333 1.80433 5.26867 1.66667 5.03067V3.437ZM1.66667 6.398C2.565 6.80283 3.86117 7 5.16667 7C6.47217 7 7.77067 6.80167 8.669 6.39683V6.40267C8.669 6.40267 8.66667 6.412 8.66667 6.41667C8.66667 6.42133 8.669 6.426 8.669 6.43067V7.938C8.55817 8.17017 7.36117 8.74883 5.16667 8.74883C3.00017 8.74883 1.80433 8.18417 1.66667 7.94617V6.39683V6.398ZM8.6725 26.0202C8.56633 26.2512 7.367 26.8333 5.16667 26.8333C2.96633 26.8333 1.767 26.2512 1.66667 26.0552V24.4813C2.565 24.8862 3.86117 25.0833 5.16667 25.0833C6.47217 25.0833 7.773 24.885 8.67133 24.479L8.6725 26.0202ZM8.6725 23.1058C8.56167 23.338 7.3635 23.9167 5.169 23.9167C3.0025 23.9167 1.80667 23.352 1.669 23.114V21.5647C2.56733 21.9695 3.8635 22.1667 5.169 22.1667C6.4745 22.1667 7.773 21.9683 8.67133 21.5635L8.6725 23.1058ZM5.17017 21C3.00367 21 1.80783 20.4353 1.67017 20.1973V18.6037C2.5825 19.0365 3.89617 19.25 5.17017 19.25C6.44417 19.25 7.759 19.0365 8.67133 18.6025V20.1903C8.55583 20.4237 7.36 21 5.17017 21ZM8.67133 17.1978C8.599 17.4417 7.4125 18.0833 5.17017 18.0833C2.95817 18.0833 1.774 17.4592 1.6725 17.2083C1.774 16.9575 2.95933 16.3333 5.17017 16.3333C7.4125 16.3333 8.599 16.975 8.67133 17.1978ZM5.17017 11.6667C2.96983 11.6667 1.7705 11.0845 1.67017 10.8885V9.31467C2.5685 9.7195 3.86467 9.91667 5.17017 9.91667C6.47567 9.91667 7.7765 9.71833 8.67483 9.31233V10.8535C8.56983 11.0845 7.3705 11.6667 5.17017 11.6667ZM23.8368 16.3333C26.0792 16.3333 27.2657 16.975 27.338 17.1978C27.2657 17.4417 26.0792 18.0833 23.8368 18.0833C21.6248 18.0833 20.4407 17.4592 20.3392 17.2083C20.4407 16.9575 21.626 16.3333 23.8368 16.3333ZM20.3368 18.6037C21.2492 19.0365 22.5628 19.25 23.8368 19.25C25.1108 19.25 26.4257 19.0365 27.338 18.6025V20.1903C27.2225 20.4237 26.0267 21 23.8368 21C21.6703 21 20.4745 20.4353 20.3368 20.1973V18.6037ZM20.3368 21.5647C21.2352 21.9695 22.5313 22.1667 23.8368 22.1667C25.1423 22.1667 26.4408 21.9683 27.3392 21.5635V23.1058C27.2283 23.338 26.0313 23.9167 23.8368 23.9167C21.6703 23.9167 20.4745 23.352 20.3368 23.114V21.5647ZM20.3368 24.4813C21.2352 24.8862 22.5313 25.0833 23.8368 25.0833C25.1423 25.0833 26.4432 24.885 27.3415 24.479V26.0202C27.2365 26.2512 26.0372 26.8333 23.8368 26.8333C21.6365 26.8333 20.4372 26.2512 20.3368 26.0552V24.4813ZM23.8333 1.16667C26.0757 1.16667 27.2622 1.80833 27.3345 2.03117C27.2622 2.275 26.0757 2.91667 23.8333 2.91667C21.6213 2.91667 20.4372 2.2925 20.3357 2.04167C20.4372 1.79083 21.6225 1.16667 23.8333 1.16667ZM20.3333 3.437C21.2457 3.86983 22.5593 4.08333 23.8333 4.08333C25.1073 4.08333 26.4222 3.86983 27.3345 3.43583V5.02367C27.219 5.257 26.0232 5.83333 23.8333 5.83333C21.6668 5.83333 20.471 5.26867 20.3333 5.03067V3.437ZM20.3333 6.398C21.2317 6.80283 22.5278 7 23.8333 7C25.1388 7 26.4373 6.80167 27.3357 6.39683V7.93917C27.2248 8.17133 26.0278 8.75 23.8333 8.75C21.6668 8.75 20.471 8.18533 20.3333 7.94733V6.398ZM23.8333 11.6667C21.633 11.6667 20.4337 11.0845 20.3333 10.8885V9.31467C21.2317 9.7195 22.5278 9.91667 23.8333 9.91667C25.1388 9.91667 26.4397 9.71833 27.338 9.31233V10.8535C27.233 11.0845 26.0337 11.6667 23.8333 11.6667Z" fill="black"/>
</svg>
