<svg width="28" height="29" viewBox="0 0 28 29" fill="none" xmlns="http://www.w3.org/2000/svg">
<path d="M14 10.1372C15.2868 10.1372 16.3333 9.09073 16.3333 7.8039C16.3333 6.51707 15.2868 5.47057 14 5.47057C12.7132 5.47057 11.6667 6.51707 11.6667 7.8039C11.6667 9.09073 12.7132 10.1372 14 10.1372ZM14 6.63723C14.644 6.63723 15.1667 7.1599 15.1667 7.8039C15.1667 8.4479 14.644 8.97057 14 8.97057C13.356 8.97057 12.8333 8.4479 12.8333 7.8039C12.8333 7.1599 13.356 6.63723 14 6.63723ZM23.3333 22.9706C24.9422 22.9706 26.25 21.6627 26.25 20.0539C26.25 18.4451 24.9422 17.1372 23.3333 17.1372C21.7245 17.1372 20.4167 18.4451 20.4167 20.0539C20.4167 21.6627 21.7245 22.9706 23.3333 22.9706ZM23.3333 18.3039C24.2982 18.3039 25.0833 19.0891 25.0833 20.0539C25.0833 21.0187 24.2982 21.8039 23.3333 21.8039C22.3685 21.8039 21.5833 21.0187 21.5833 20.0539C21.5833 19.0891 22.3685 18.3039 23.3333 18.3039ZM1.75 20.0539C1.75 21.6627 3.05783 22.9706 4.66667 22.9706C6.2755 22.9706 7.58333 21.6627 7.58333 20.0539C7.58333 18.4451 6.2755 17.1372 4.66667 17.1372C3.05783 17.1372 1.75 18.4451 1.75 20.0539ZM6.41667 20.0539C6.41667 21.0187 5.6315 21.8039 4.66667 21.8039C3.70183 21.8039 2.91667 21.0187 2.91667 20.0539C2.91667 19.0891 3.70183 18.3039 4.66667 18.3039C5.6315 18.3039 6.41667 19.0891 6.41667 20.0539ZM27.9487 28.1319C27.9977 28.4504 27.734 28.7549 27.4167 28.8039C27.1343 28.8039 26.8403 28.5974 26.796 28.3092C26.5335 26.5954 24.92 25.3039 23.0417 25.3039C21.1633 25.3039 19.5498 26.5954 19.2873 28.3092C19.2442 28.5939 18.9467 28.7969 18.6667 28.8039C18.3867 28.8039 18.0915 28.6009 18.0448 28.3151C17.7637 26.5977 16.0253 25.3039 14 25.3039C11.9747 25.3039 10.2363 26.5977 9.95517 28.3151C9.9085 28.5986 9.60517 28.8016 9.33333 28.8039C9.051 28.8039 8.757 28.5974 8.71267 28.3092C8.45017 26.5954 6.83667 25.3039 4.95833 25.3039C3.08 25.3039 1.4665 26.5954 1.204 28.3092C1.155 28.6277 0.863333 28.8447 0.539 28.7969C0.221667 28.7479 0.00233333 28.4504 0.0513333 28.1319C0.400167 25.8546 2.5095 24.1372 4.95833 24.1372C6.84017 24.1372 8.51433 25.1569 9.34967 26.6607C10.2352 25.1569 12.0073 24.1372 14 24.1372C15.9927 24.1372 17.7648 25.1569 18.6503 26.6607C19.4857 25.1569 21.1598 24.1372 23.0417 24.1372C25.4905 24.1372 27.5998 25.8546 27.9487 28.1319ZM28 11.8872V15.3872C28 15.7092 27.7387 15.9706 27.4167 15.9706C27.0947 15.9706 26.8333 15.7092 26.8333 15.3872V11.8872C26.8333 10.2784 25.5255 8.97057 23.9167 8.97057H22.75C22.428 8.97057 22.1667 8.70923 22.1667 8.38723C22.1667 8.06523 22.428 7.8039 22.75 7.8039H23.9167C26.1683 7.8039 28 9.63557 28 11.8872ZM7.7805 10.0241C7.66267 10.4779 7.72917 10.9481 7.96483 11.3506C8.20167 11.7542 8.58083 12.0412 9.0335 12.1579C9.48733 12.2792 9.9575 12.2104 10.3623 11.9724L10.6225 11.8196C11.0973 12.2162 11.6503 12.5266 12.2512 12.7366V13.0527C12.2512 14.0176 13.0363 14.8027 14.0012 14.8027C14.966 14.8027 15.7512 14.0176 15.7512 13.0527V12.7366C16.352 12.5266 16.9038 12.2162 17.3798 11.8196L17.64 11.9724C18.0448 12.2104 18.515 12.2792 18.9688 12.1579C19.4215 12.0401 19.8007 11.7531 20.0363 11.3517C20.2732 10.9481 20.3397 10.4779 20.2218 10.0241C20.104 9.5714 19.817 9.19223 19.4145 8.95423L19.1438 8.7944C19.2173 8.44557 19.2535 8.12357 19.2535 7.80273C19.2535 7.4819 19.2185 7.1599 19.1427 6.8099L19.4145 6.65007C19.8182 6.41323 20.1052 6.03407 20.2218 5.5814C20.3397 5.12757 20.2732 4.6574 20.0375 4.2549C19.8007 3.85123 19.4215 3.56423 18.9688 3.44757C18.515 3.3274 18.0448 3.39507 17.64 3.63307L17.3798 3.7859C16.905 3.38923 16.352 3.0789 15.7512 2.8689V2.55273C15.7512 1.5879 14.966 0.802734 14.0012 0.802734C13.0363 0.802734 12.2512 1.5879 12.2512 2.55273V2.8689C11.6503 3.0789 11.0985 3.38923 10.6225 3.7859L10.3623 3.63307C9.9575 3.39507 9.48733 3.3274 9.0335 3.44757C8.58083 3.5654 8.20167 3.8524 7.966 4.25373C7.72917 4.6574 7.66267 5.12757 7.7805 5.5814C7.89833 6.03407 8.18533 6.41323 8.58667 6.6489L8.85967 6.8099C8.785 7.1599 8.74883 7.4819 8.74883 7.80273C8.74883 8.12357 8.78383 8.44557 8.8585 8.7944L8.58667 8.9554C8.18417 9.19223 7.89717 9.5714 7.7805 10.0241ZM10.0917 8.91807C9.9715 8.4969 9.91667 8.14223 9.91667 7.8039C9.91667 7.46557 9.97267 7.1109 10.0917 6.68973C10.164 6.43423 10.0567 6.1624 9.82683 6.02823L9.177 5.64557C9.04283 5.5674 8.94717 5.44023 8.90867 5.28973C8.87017 5.13923 8.89117 4.98173 8.97167 4.84757C9.04983 4.7134 9.17583 4.61773 9.3275 4.57923C9.47917 4.53957 9.6355 4.56173 9.76967 4.64107L10.3997 5.01207C10.6295 5.1474 10.9223 5.11123 11.1078 4.92223C11.6107 4.41823 12.2558 4.0554 12.9792 3.86873C13.237 3.80107 13.4167 3.5689 13.4167 3.30407V2.55507C13.4167 2.23423 13.6792 1.97173 14 1.97173C14.3208 1.97173 14.5833 2.23423 14.5833 2.55507V3.30407C14.5833 3.57007 14.763 3.80223 15.0208 3.86873C15.743 4.0554 16.3893 4.4194 16.8922 4.92223C17.0788 5.11007 17.3705 5.14623 17.6003 5.01207L18.2303 4.64107C18.3633 4.5629 18.5208 4.54073 18.6725 4.57923C18.8242 4.61773 18.949 4.7134 19.0295 4.84873C19.1077 4.98173 19.1298 5.13923 19.0913 5.28973C19.0528 5.44023 18.9572 5.56623 18.8218 5.64673L18.1732 6.02823C17.9445 6.1624 17.836 6.4354 17.9083 6.68973C18.0285 7.1109 18.0833 7.46557 18.0833 7.8039C18.0833 8.14223 18.0273 8.4969 17.9083 8.91807C17.836 9.17357 17.9445 9.4454 18.1743 9.58073L18.8218 9.9599C18.9572 10.0392 19.0528 10.1664 19.0913 10.3181C19.1298 10.4686 19.1088 10.6261 19.0283 10.7602C18.9502 10.8944 18.8242 10.9901 18.6725 11.0286C18.5185 11.0671 18.3645 11.0461 18.2303 10.9667L17.6003 10.5957C17.3717 10.4616 17.08 10.4977 16.8922 10.6856C16.3893 11.1896 15.7442 11.5524 15.0208 11.7391C14.763 11.8067 14.5833 12.0389 14.5833 12.3037V13.0527C14.5833 13.3736 14.3208 13.6361 14 13.6361C13.6792 13.6361 13.4167 13.3736 13.4167 13.0527V12.3037C13.4167 12.0377 13.237 11.8056 12.9792 11.7391C12.257 11.5524 11.6107 11.1884 11.1078 10.6856C10.9958 10.5724 10.8453 10.5152 10.6948 10.5152C10.5933 10.5152 10.4907 10.5409 10.3985 10.5957L9.7685 10.9667C9.63667 11.0449 9.48033 11.0682 9.32633 11.0286C9.17467 10.9901 9.04983 10.8944 8.96933 10.7591C8.89117 10.6261 8.869 10.4686 8.9075 10.3181C8.946 10.1664 9.04167 10.0404 9.17583 9.96107L9.8245 9.58073C10.0532 9.4454 10.164 9.1724 10.0917 8.91807ZM0 15.3872V11.8872C0 9.63557 1.83167 7.8039 4.08333 7.8039H5.25C5.572 7.8039 5.83333 8.06523 5.83333 8.38723C5.83333 8.70923 5.572 8.97057 5.25 8.97057H4.08333C2.4745 8.97057 1.16667 10.2784 1.16667 11.8872V15.3872C1.16667 15.7092 0.905333 15.9706 0.583333 15.9706C0.261333 15.9706 0 15.7092 0 15.3872ZM11.0833 20.0539C11.0833 21.6627 12.3912 22.9706 14 22.9706C15.6088 22.9706 16.9167 21.6627 16.9167 20.0539C16.9167 18.4451 15.6088 17.1372 14 17.1372C12.3912 17.1372 11.0833 18.4451 11.0833 20.0539ZM15.75 20.0539C15.75 21.0187 14.9648 21.8039 14 21.8039C13.0352 21.8039 12.25 21.0187 12.25 20.0539C12.25 19.0891 13.0352 18.3039 14 18.3039C14.9648 18.3039 15.75 19.0891 15.75 20.0539Z" fill="#4A7CFD"/>
</svg>
