<svg width="29" height="28" viewBox="0 0 29 28" fill="none" xmlns="http://www.w3.org/2000/svg">
<path d="M21.4751 27.3633C21.5043 27.6843 21.2674 27.9691 20.9464 27.9971C20.9289 27.9971 20.9114 27.9995 20.8939 27.9995C20.5951 27.9995 20.3406 27.7719 20.3126 27.4684C20.0406 24.4441 17.5416 22.1634 14.501 22.1634C11.4604 22.1634 8.96138 24.4441 8.68942 27.4684C8.66024 27.7894 8.37778 28.0205 8.05562 27.9971C7.73464 27.9691 7.49769 27.6843 7.52687 27.3633C7.85369 23.7333 10.8523 20.9962 14.5022 20.9962C18.1521 20.9962 21.1495 23.7333 21.4775 27.3633H21.4751ZM18.5851 15.7437C18.5851 17.9964 16.7526 19.829 14.4998 19.829C12.2471 19.829 10.4146 17.9964 10.4146 15.7437C10.4146 13.491 12.2471 11.6584 14.4998 11.6584C16.7526 11.6584 18.5851 13.491 18.5851 15.7437ZM17.4179 15.7437C17.4179 14.1341 16.1083 12.8256 14.4998 12.8256C12.8914 12.8256 11.5818 14.1341 11.5818 15.7437C11.5818 17.3533 12.8914 18.6617 14.4998 18.6617C16.1083 18.6617 17.4179 17.3533 17.4179 15.7437ZM10.2873 4.69363C9.38158 3.9758 9.94768 2.42573 11.0962 2.45841H12.728L13.3128 0.817303C13.6734 -0.269377 15.3227 -0.270545 15.6857 0.810299L16.2728 2.45841H17.9046C19.0497 2.42106 19.6181 3.9828 18.7193 4.69013L17.419 5.7488L17.9501 7.26385C18.3598 8.3622 17.0175 9.39286 16.0639 8.72988L14.5115 7.71906L12.9871 8.73921C12.0487 9.4162 10.6912 8.40189 11.0776 7.3082L11.5935 5.75697L10.2873 4.69363ZM11.0239 3.78904L12.6428 5.10683C12.8319 5.25974 12.9054 5.51419 12.8284 5.74413L12.1876 7.66771L12.2833 7.7856C12.2973 7.7856 12.316 7.78326 12.3346 7.77042L14.1812 6.53434C14.3761 6.40594 14.6271 6.40478 14.8243 6.53084L16.6989 7.75175L16.8471 7.64903L16.1806 5.74763C16.0989 5.51652 16.1725 5.2574 16.3627 5.10216L17.9735 3.79021L17.9034 3.62446H15.8608C15.6145 3.62446 15.3939 3.46922 15.3111 3.23695L14.5874 1.20832H14.4123L13.6886 3.23695C13.6057 3.46922 13.3851 3.62446 13.1389 3.62446H11.0962L11.0239 3.78904ZM28.0571 8.06573L26.7568 9.1244L27.2879 10.6394C27.6976 11.739 26.3541 12.7685 25.4017 12.1055L23.8493 11.0947L22.3249 12.1148C21.3864 12.7918 20.0289 11.7775 20.4153 10.6838L20.9312 9.13257L19.6251 8.06923C18.7193 7.35139 19.2854 5.80133 20.434 5.83401H22.0657L22.6505 4.1929C23.0112 3.10622 24.6605 3.10505 25.0235 4.18589L25.6106 5.83401H27.2424C28.3874 5.79666 28.9558 7.35839 28.0571 8.06573ZM27.3124 7.1658L27.2424 7.00006H25.1997C24.9534 7.00006 24.7328 6.84482 24.65 6.61254L23.9263 4.58392H23.7512L23.0275 6.61254C22.9447 6.84482 22.7241 7.00006 22.4778 7.00006H20.4351L20.3628 7.16347L21.9817 8.48126C22.1708 8.63416 22.2443 8.88862 22.1673 9.11856L21.5265 11.0433L21.6222 11.16C21.6362 11.16 21.6549 11.1577 21.6736 11.1449L23.5201 9.90877C23.7139 9.78154 23.966 9.77804 24.1632 9.90526L26.0378 11.1262L26.186 11.0235L25.5195 9.12206C25.4378 8.89095 25.5114 8.63183 25.7016 8.47659L27.3124 7.1658ZM8.18635 12.0471C7.75915 12.3739 7.17204 12.3973 6.72499 12.1055L5.17259 11.0947L3.64821 12.1148C2.70976 12.7918 1.35229 11.7775 1.73864 10.6838L2.25455 9.13257L0.948431 8.06923C0.0426693 7.35139 0.60877 5.80133 1.75731 5.83401H3.38908L3.97386 4.1929C4.33453 3.10622 5.98381 3.10505 6.34682 4.18589L6.93393 5.83401H8.5657C9.71074 5.79666 10.2792 7.35839 9.38042 8.06573L8.08013 9.1244L8.61122 10.6394C8.78397 11.1577 8.61122 11.7203 8.18635 12.0471ZM7.50937 11.0246L6.84288 9.12323C6.76118 8.89212 6.83471 8.633 7.02497 8.47776L8.63573 7.1658L8.5657 7.00006H6.52307C6.27678 7.00006 6.05618 6.84482 5.97331 6.61254L5.24963 4.58392H5.07455L4.35087 6.61254C4.268 6.84482 4.0474 7.00006 3.80111 7.00006H1.75731L1.68495 7.16347L3.30388 8.48126C3.49297 8.63416 3.5665 8.88862 3.48946 9.11856L2.84866 11.0433L2.94437 11.16C2.95838 11.16 2.97706 11.1577 2.99573 11.1449L4.84227 9.90877C5.03603 9.78154 5.28932 9.77804 5.48541 9.90526L7.35996 11.1262L7.5082 11.0235L7.50937 11.0246Z" fill="#4A7CFD"/>
</svg>
