<svg width="28" height="29" viewBox="0 0 28 29" fill="none" xmlns="http://www.w3.org/2000/svg">
<path d="M28 13.0527C28 11.4451 26.691 10.1361 25.0833 10.1361H23.3333V5.4694H22.1667V10.1361H17.8232L12.8462 2.17357C12.3107 1.31607 11.3855 0.802734 10.3728 0.802734H4.66667V10.1361H2.91667C1.309 10.1361 0 11.4451 0 13.0527V15.6439C0.357 15.2379 0.7455 14.8622 1.16667 14.5239V13.0539C1.16667 12.0891 1.95183 11.3039 2.91667 11.3039H25.0833C26.0482 11.3039 26.8333 12.0891 26.8333 13.0539V15.7757L23.5118 20.2056C22.7862 19.7401 21.924 19.4706 21 19.4706C18.4263 19.4706 16.3333 21.5636 16.3333 24.1372C16.3333 26.7109 18.4263 28.8039 21 28.8039C23.5737 28.8039 25.6667 26.7109 25.6667 24.1372C25.6667 22.9076 25.1883 21.7876 24.409 20.9534L28 16.1654V13.0539V13.0527ZM5.83333 1.9694H10.374C10.9818 1.9694 11.536 2.2774 11.858 2.7919L16.4477 10.1361H5.83333V1.9694ZM21 27.6361C19.0703 27.6361 17.5 26.0657 17.5 24.1361C17.5 22.2064 19.0703 20.6361 21 20.6361C22.9297 20.6361 24.5 22.2064 24.5 24.1361C24.5 26.0657 22.9297 27.6361 21 27.6361ZM11.0997 18.5279L12.362 17.2656L11.5372 16.4407L10.2748 17.7031C9.52 17.0987 8.59367 16.6974 7.58333 16.5854V14.8027H6.41667V16.5854C5.40517 16.6974 4.48 17.0987 3.72517 17.7031L2.46283 16.4407L1.638 17.2656L2.90033 18.5279C2.296 19.2827 1.89467 20.2091 1.78267 21.2194H0V22.3861H1.78267C1.89467 23.3976 2.296 24.3227 2.90033 25.0776L1.638 26.3399L2.46283 27.1647L3.72517 25.9024C4.48 26.5067 5.40633 26.9081 6.41667 27.0201V28.8027H7.58333V27.0201C8.59483 26.9081 9.52 26.5067 10.2748 25.9024L11.5372 27.1647L12.362 26.3399L11.0997 25.0776C11.704 24.3227 12.1053 23.3964 12.2173 22.3861H14V21.2194H12.2173C12.1053 20.2079 11.704 19.2827 11.0997 18.5279ZM7 25.8861C4.74833 25.8861 2.91667 24.0544 2.91667 21.8027C2.91667 19.5511 4.74833 17.7194 7 17.7194C9.25167 17.7194 11.0833 19.5511 11.0833 21.8027C11.0833 24.0544 9.25167 25.8861 7 25.8861Z" fill="#4A7CFD"/>
</svg>
