<svg width="28" height="29" viewBox="0 0 28 29" fill="none" xmlns="http://www.w3.org/2000/svg">
<path d="M16.3327 15.291V8.96906H3.49985V15.291C3.49985 17.6009 3.06471 19.8618 2.20607 22.0072L0.0419982 27.418L0 28.8016H19.8325V27.635L17.6253 22.0072C16.7678 19.8594 16.3327 17.6009 16.3327 15.291ZM4.66647 10.1357H15.166V15.291C15.166 15.9093 15.1964 16.5241 15.2547 17.1354H4.57781C4.63614 16.5252 4.66647 15.9093 4.66647 15.291V10.1357ZM1.21212 27.635L3.28986 22.44C3.82651 21.0996 4.18816 19.7124 4.41098 18.302H15.4215C15.6455 19.7124 16.0072 21.0984 16.5426 22.44L18.6204 27.635H1.21212ZM25.7928 22.0072L28 27.635V28.8016H22.1669V27.635H26.7891L24.7113 22.44C24.1747 21.0984 23.813 19.7124 23.5902 18.302H18.6682V17.1354H23.4234C23.365 16.5241 23.3347 15.9093 23.3347 15.291V10.1357H18.6682V8.96906H24.5013V15.291C24.5013 17.5997 24.9365 19.8594 25.7939 22.0072H25.7928ZM18.6671 6.63583H17.5004V4.30259C17.5004 2.373 19.0707 0.802734 21.0003 0.802734C21.6408 0.802734 22.2579 0.978894 22.8074 1.31605C23.2705 1.12122 24.1677 0.802734 25.0835 0.802734C26.6922 0.802734 28 2.11051 28 3.71928C28 5.32805 26.6922 6.63583 25.0835 6.63583H24.5001V5.46921H25.0835C26.0482 5.46921 26.8334 4.68407 26.8334 3.71928C26.8334 2.75449 26.0482 1.96935 25.0835 1.96935C24.0778 1.96935 23.0255 2.49666 23.0162 2.5025L22.6907 2.66816L22.3991 2.44883C21.9861 2.13501 21.5019 1.97052 21.0015 1.97052C19.7147 1.97052 18.6682 3.01698 18.6682 4.30376V6.63699L18.6671 6.63583ZM7.00087 6.63583H5.83426V4.59424C5.83426 2.50366 7.53519 0.802734 9.62577 0.802734C10.3911 0.802734 11.1377 1.04072 11.7712 1.48171C12.4396 1.03606 13.2026 0.802734 14.0006 0.802734C14.7297 0.802734 15.4064 1.01039 15.999 1.34755C15.8018 1.68003 15.6397 2.03235 15.5114 2.40333C15.0692 2.13385 14.5559 1.96935 14.0006 1.96935C13.3228 1.96935 12.6776 2.20968 12.1363 2.66349L11.7478 2.98898L11.371 2.65066C10.8822 2.21084 10.2616 1.96935 9.6246 1.96935C8.17683 1.96935 6.99971 3.14764 6.99971 4.59424L7.00087 6.63583Z" fill="#4A7CFD"/>
</svg>
