<svg width="28" height="28" viewBox="0 0 28 28" fill="none" xmlns="http://www.w3.org/2000/svg">
<path d="M19.2508 0C14.2631 0 10.5004 1.75591 10.5004 4.0835V8.75036C10.5004 9.82724 11.4023 10.6171 11.4653 10.6743C11.4653 10.6743 11.4676 10.6766 11.4688 10.6778C12.8957 11.9822 15.7763 12.835 19.2508 12.835C22.5713 12.835 25.3492 12.0568 26.8345 10.8493V13.4184C26.8345 14.7986 23.7193 16.3352 19.2508 16.3352C18.2719 16.3352 17.3584 16.2617 16.5289 16.1322C16.7214 16.5335 16.887 16.95 17.0259 17.3794C17.7317 17.4599 18.4761 17.5019 19.2508 17.5019C22.5713 17.5019 25.3492 16.7237 26.8345 15.5161V18.0853C26.8345 19.4655 23.7193 21.002 19.2508 21.002C18.6359 21.002 18.0468 20.9729 17.4879 20.9192C17.4681 21.3136 17.4249 21.7009 17.3607 22.0813C17.9662 22.1384 18.5974 22.1688 19.2508 22.1688C22.5713 22.1688 25.3492 21.3906 26.8345 20.183V22.7521C26.8345 24.1323 23.7193 25.6689 19.2508 25.6689C18.1249 25.6689 17.0842 25.5709 16.1578 25.4029C15.9443 25.7704 15.7063 26.1228 15.4485 26.4576C16.586 26.7003 17.8706 26.8356 19.2496 26.8356C24.2373 26.8356 28 25.0797 28 22.7521V4.0835C28 1.75591 24.2385 0 19.2508 0ZM19.2508 1.16672C23.7193 1.16672 26.8345 2.70328 26.8345 4.0835C26.8345 5.46373 23.7193 7.00029 19.2508 7.00029C14.7823 7.00029 11.6672 5.46373 11.6672 4.0835C11.6672 2.70328 14.7823 1.16672 19.2508 1.16672ZM19.2508 11.6672C14.7823 11.6672 11.6672 10.1306 11.6672 8.75036V6.18126C13.1524 7.38881 15.9303 8.16701 19.2508 8.16701C22.5713 8.16701 25.3492 7.38881 26.8345 6.18126V8.75036C26.8345 10.1306 23.7193 11.6672 19.2508 11.6672ZM8.86354 16.8695L11.4571 19.462L10.6323 20.2868L8.16817 17.8239V23.9177H7.00146V17.7959L4.52452 20.2728L3.69965 19.448L6.27809 16.8695C6.99096 16.1567 8.14951 16.1567 8.86354 16.8695ZM7.58365 12.8339C3.40214 12.8339 0 16.236 0 20.4175C0 24.599 3.40214 28.0012 7.58365 28.0012C11.7652 28.0012 15.1673 24.599 15.1673 20.4175C15.1673 16.236 11.7652 12.8339 7.58365 12.8339ZM7.58365 26.8345C4.04617 26.8345 1.16672 23.9562 1.16672 20.4175C1.16672 16.8789 4.04617 14.0006 7.58365 14.0006C11.1211 14.0006 14.0006 16.8789 14.0006 20.4175C14.0006 23.9562 11.1211 26.8345 7.58365 26.8345Z" fill="#4A7CFD"/>
</svg>
