<svg width="28" height="29" viewBox="0 0 28 29" fill="none" xmlns="http://www.w3.org/2000/svg">
<path d="M22.1665 21.8026C24.0961 21.8026 25.6664 20.2322 25.6664 18.3026C25.6664 16.3729 24.0961 14.8026 22.1665 14.8026C20.2368 14.8026 18.6665 16.3729 18.6665 18.3026C18.6665 20.2322 20.2368 21.8026 22.1665 21.8026ZM22.1665 15.9693C23.4533 15.9693 24.4998 17.0158 24.4998 18.3026C24.4998 19.5894 23.4533 20.6359 22.1665 20.6359C20.8797 20.6359 19.8332 19.5894 19.8332 18.3026C19.8332 17.0158 20.8797 15.9693 22.1665 15.9693ZM27.9963 28.1527C28.0324 28.4723 27.8026 28.7617 27.4829 28.799C27.4596 28.8013 27.4386 28.8025 27.4153 28.8025C27.1224 28.8025 26.8704 28.5832 26.8366 28.2857C26.5694 25.9208 24.5605 24.1359 22.1665 24.1359C19.7725 24.1359 17.7647 25.9197 17.4963 28.2857C17.4602 28.6053 17.165 28.8282 16.85 28.799C16.5304 28.7628 16.2994 28.4735 16.3367 28.1527C16.6727 25.1975 19.1787 22.9692 22.1665 22.9692C25.1543 22.9692 27.6603 25.1975 27.9963 28.1527ZM17.4998 6.05269C17.4998 3.80104 15.6682 1.96939 13.4165 1.96939H5.24995C2.99831 1.96939 1.16666 3.80104 1.16666 6.05269V23.5525C1.16666 25.8042 2.99831 27.6358 5.24995 27.6358H13.4165C13.7385 27.6358 13.9999 27.8972 13.9999 28.2192C13.9999 28.5412 13.7385 28.8025 13.4165 28.8025H5.24995C2.35548 28.8025 0 26.447 0 23.5525V6.05269C0 3.15821 2.35548 0.802734 5.24995 0.802734H13.4165C16.311 0.802734 18.6665 3.15821 18.6665 6.05269V13.0526C18.6665 13.3746 18.4052 13.636 18.0832 13.636C17.7612 13.636 17.4998 13.3746 17.4998 13.0526V6.05269ZM8.1666 16.5526C8.1666 16.8746 7.90526 17.1359 7.58327 17.1359H5.24995C4.92796 17.1359 4.66663 16.8746 4.66663 16.5526C4.66663 16.2306 4.92796 15.9693 5.24995 15.9693H7.58327C7.90526 15.9693 8.1666 16.2306 8.1666 16.5526ZM13.9999 16.5526C13.9999 16.8746 13.7385 17.1359 13.4165 17.1359H11.0832C10.7612 17.1359 10.4999 16.8746 10.4999 16.5526C10.4999 16.2306 10.7612 15.9693 11.0832 15.9693H13.4165C13.7385 15.9693 13.9999 16.2306 13.9999 16.5526ZM8.1666 21.2192C8.1666 21.5412 7.90526 21.8026 7.58327 21.8026H5.24995C4.92796 21.8026 4.66663 21.5412 4.66663 21.2192C4.66663 20.8972 4.92796 20.6359 5.24995 20.6359H7.58327C7.90526 20.6359 8.1666 20.8972 8.1666 21.2192ZM13.9999 21.2192C13.9999 21.5412 13.7385 21.8026 13.4165 21.8026H11.0832C10.7612 21.8026 10.4999 21.5412 10.4999 21.2192C10.4999 20.8972 10.7612 20.6359 11.0832 20.6359H13.4165C13.7385 20.6359 13.9999 20.8972 13.9999 21.2192ZM8.1666 7.21935C8.1666 7.54134 7.90526 7.80267 7.58327 7.80267H5.24995C4.92796 7.80267 4.66663 7.54134 4.66663 7.21935C4.66663 6.89735 4.92796 6.63602 5.24995 6.63602H7.58327C7.90526 6.63602 8.1666 6.89735 8.1666 7.21935ZM13.9999 7.21935C13.9999 7.54134 13.7385 7.80267 13.4165 7.80267H11.0832C10.7612 7.80267 10.4999 7.54134 10.4999 7.21935C10.4999 6.89735 10.7612 6.63602 11.0832 6.63602H13.4165C13.7385 6.63602 13.9999 6.89735 13.9999 7.21935ZM8.1666 11.886C8.1666 12.208 7.90526 12.4693 7.58327 12.4693H5.24995C4.92796 12.4693 4.66663 12.208 4.66663 11.886C4.66663 11.564 4.92796 11.3026 5.24995 11.3026H7.58327C7.90526 11.3026 8.1666 11.564 8.1666 11.886ZM13.9999 11.886C13.9999 12.208 13.7385 12.4693 13.4165 12.4693H11.0832C10.7612 12.4693 10.4999 12.208 10.4999 11.886C10.4999 11.564 10.7612 11.3026 11.0832 11.3026H13.4165C13.7385 11.3026 13.9999 11.564 13.9999 11.886Z" fill="#4A7CFD"/>
</svg>
