<svg width="28" height="35" viewBox="0 0 28 35" fill="none" xmlns="http://www.w3.org/2000/svg">
<path d="M28 7.11808C28.0014 6.08846 27.4004 5.19893 26.4675 4.85152L17.0356 1.33961C15.1179 0.626587 13.0068 0.623785 11.0863 1.33121L1.53952 4.85572C0.603762 5.20173 0 6.08986 0 7.12088C0 8.1519 0.605163 9.04144 1.54092 9.38464L5.58655 10.8737V13.4233C5.58655 18.0586 9.35621 21.8283 13.9916 21.8283C18.627 21.8283 22.3966 18.0586 22.3966 13.4233V10.8723C22.3966 10.8723 26.5501 9.3216 26.5992 9.29919V16.9254C26.5992 17.312 26.9129 17.6258 27.2996 17.6258C27.6862 17.6258 28 17.312 28 16.9254V7.11808ZM20.9958 13.4247C20.9958 17.2868 17.8537 20.4289 13.9916 20.4289C10.1295 20.4289 6.98739 17.2868 6.98739 13.4247V11.3906L11.0344 12.8811C11.987 13.2314 12.9886 13.4065 13.9888 13.4065C14.989 13.4065 15.9906 13.2314 16.9432 12.8811L20.9944 11.3906V13.4261L20.9958 13.4247ZM25.9758 8.06365L16.4613 11.5658C14.8671 12.1527 13.1119 12.1527 11.5205 11.5658L2.02702 8.07065C1.56614 7.90115 1.40224 7.46829 1.40224 7.12088C1.40224 6.77348 1.56614 6.34062 2.02561 6.17111L11.5737 2.6466C12.3722 2.35102 13.2113 2.20393 14.0518 2.20393C14.8979 2.20393 15.744 2.35382 16.5481 2.6536L25.98 6.16551C26.4381 6.33641 26.6006 6.76927 26.6006 7.11668C26.6006 7.46549 26.4353 7.89695 25.9772 8.06505L25.9758 8.06365ZM26.5669 33.5267C26.6832 33.8951 26.4787 34.2888 26.1089 34.4051C26.0388 34.4275 25.9674 34.4373 25.8987 34.4373C25.6004 34.4373 25.3244 34.2468 25.2305 33.947C23.7653 29.2864 19.1425 26.0322 13.9916 26.0322C8.8407 26.0322 4.21793 29.2864 2.75265 33.947C2.63638 34.3168 2.24415 34.5213 1.87432 34.4051C1.5045 34.2888 1.29998 33.8951 1.41625 33.5267C3.06364 28.289 8.23554 24.6314 13.9916 24.6314C19.7476 24.6314 24.9195 28.289 26.5669 33.5267Z" fill="#4A7CFD"/>
</svg>
