<svg width="28" height="28" viewBox="0 0 28 28" fill="none" xmlns="http://www.w3.org/2000/svg">
<path d="M6.99621 13.9901C10.854 13.9901 13.9913 10.8528 13.9913 6.99505C13.9913 3.13728 10.854 0 6.99621 0C3.13844 0 0.00116584 3.13728 0.00116584 6.99505C0.00116584 10.8528 3.13844 13.9901 6.99621 13.9901ZM9.32789 12.3299C8.61207 12.6435 7.82629 12.8242 6.99621 12.8242C6.16613 12.8242 5.38036 12.6447 4.66453 12.3299V10.4926C4.66453 9.84902 5.18799 9.32673 5.83037 9.32673H8.16205C8.80443 9.32673 9.32789 9.84902 9.32789 10.4926V12.3299ZM6.99621 1.16584C10.2104 1.16584 12.8254 3.78082 12.8254 6.99505C12.8254 8.89187 11.9009 10.5637 10.4937 11.6281V10.4926C10.4937 9.20665 9.44797 8.16089 8.16205 8.16089H5.83037C4.54445 8.16089 3.49869 9.20665 3.49869 10.4926V11.6281C2.09152 10.5625 1.16701 8.8907 1.16701 6.99505C1.16701 3.78082 3.78199 1.16584 6.99621 1.16584ZM6.99621 6.99505C8.28213 6.99505 9.32789 5.94929 9.32789 4.66336C9.32789 3.37744 8.28213 2.33168 6.99621 2.33168C5.71029 2.33168 4.66453 3.37744 4.66453 4.66336C4.66453 5.94929 5.71029 6.99505 6.99621 6.99505ZM6.99621 3.49752C7.63859 3.49752 8.16205 4.01982 8.16205 4.66336C8.16205 5.30691 7.63859 5.8292 6.99621 5.8292C6.35383 5.8292 5.83037 5.30691 5.83037 4.66336C5.83037 4.01982 6.35383 3.49752 6.99621 3.49752ZM28 7.05334L26.9134 7.47654L24.7636 1.96794C23.016 7.09531 15.0941 19.0265 0 22.0344V20.8406C14.8645 17.7709 22.4215 5.85369 23.7622 1.25911L17.9271 3.53483L17.5039 2.44827L23.4194 0.141067C23.8566 -0.029146 24.3346 -0.0198193 24.7625 0.167881C25.1915 0.356747 25.5214 0.70067 25.6916 1.13786L27.9988 7.05217L28 7.05334ZM19.7901 13.7045L19.8205 27.979L18.6546 27.9813L18.6266 14.8633C19.0289 14.4797 19.4159 14.0927 19.7901 13.7045ZM1.16701 24.1457C1.56339 24.0583 1.94695 23.958 2.33285 23.8601V27.9802H1.16701V24.1457ZM24.4838 9.32673H25.6497V27.9802H24.4838V9.32673ZM13.9714 18.636L13.9913 27.979L12.8254 27.9813L12.8068 19.3856C13.1985 19.1384 13.596 18.8936 13.9714 18.636ZM8.1469 21.8618L8.16205 27.9778L6.99621 27.9802L6.98222 22.3702C7.38094 22.2104 7.75984 22.0332 8.1469 21.8618Z" fill="#4A7CFD"/>
</svg>
