<svg width="45" height="45" viewBox="0 0 45 45" fill="none" xmlns="http://www.w3.org/2000/svg">
<g clip-path="url(#clip0_830_1670)">
<path d="M31.875 9.375H39.375V11.25H31.875V9.375ZM31.875 16.875H39.375V15H31.875V16.875ZM31.875 22.5H39.375V20.625H31.875V22.5ZM31.875 28.125H39.375V26.25H31.875V28.125ZM28.125 18.75C28.125 24.9544 23.0794 30 16.875 30C10.6706 30 5.625 24.9544 5.625 18.75C5.625 12.5456 10.6706 7.5 16.875 7.5C23.0794 7.5 28.125 12.5456 28.125 18.75ZM16.875 28.125C19.1213 28.125 21.1575 27.2981 22.7738 25.9762L15.9375 19.14V9.47063C11.2125 9.94875 7.5 13.9031 7.5 18.75C7.5 23.9194 11.7056 28.125 16.875 28.125ZM26.25 18.75C26.25 13.9012 22.5375 9.94875 17.8125 9.47063V18.3619L24.1012 24.6506C25.4231 23.0344 26.25 20.9981 26.25 18.7519V18.75ZM23.4375 35.625V41.25H33.75V43.125H11.25V41.25H21.5625V35.625H0V6.5625C0 3.97875 2.10188 1.875 4.6875 1.875H40.3125C42.8981 1.875 45 3.97875 45 6.5625V35.625H23.4375ZM1.875 33.75H43.125V6.5625C43.125 5.01187 41.8631 3.75 40.3125 3.75H4.6875C3.13687 3.75 1.875 5.01187 1.875 6.5625V33.75Z" fill="#4A7CFD"/>
</g>
<defs>
<clipPath id="clip0_830_1670">
<rect width="45" height="45" fill="white"/>
</clipPath>
</defs>
</svg>
