<svg width="28" height="28" viewBox="0 0 28 28" fill="none" xmlns="http://www.w3.org/2000/svg">
<path d="M19.8334 16.9107C19.8334 17.6853 20.3537 18.3748 21.0981 18.5883L25.8884 19.958C27.1308 20.3126 28 21.4629 28 22.7556C28 24.3609 26.6945 25.6664 25.0892 25.6664H23.9167V27.4164C23.9167 27.7384 23.6554 27.9997 23.3334 27.9997C23.0114 27.9997 22.7501 27.7384 22.7501 27.4164V25.6664H21.5776C19.9722 25.6664 18.6668 24.3609 18.6668 22.7556C18.6668 22.4336 18.9281 22.1723 19.2501 22.1723C19.5721 22.1723 19.8334 22.4336 19.8334 22.7556C19.8334 23.7169 20.6162 24.4997 21.5776 24.4997H25.0892C26.0505 24.4997 26.8333 23.7169 26.8333 22.7556C26.8333 21.9809 26.313 21.2914 25.5687 21.0779L20.7784 19.7083C19.5359 19.3536 18.6668 18.2033 18.6668 16.9107C18.6668 15.3053 19.9722 13.9999 21.5776 13.9999H22.7501V12.2499C22.7501 11.9279 23.0114 11.6665 23.3334 11.6665C23.6554 11.6665 23.9167 11.9279 23.9167 12.2499V13.9999H25.0892C26.6945 13.9999 28 15.3053 28 16.9107C28 17.2327 27.7387 17.494 27.4167 17.494C27.0947 17.494 26.8333 17.2327 26.8333 16.9107C26.8333 15.9493 26.0505 15.1665 25.0892 15.1665H21.5776C20.6162 15.1665 19.8334 15.9493 19.8334 16.9107ZM26.25 0H20.4167C20.0947 0 19.8334 0.261331 19.8334 0.583327C19.8334 0.905324 20.0947 1.16665 20.4167 1.16665H26.0085L19.5779 7.59725C18.7531 8.42091 17.4138 8.42091 16.589 7.59725L13.404 4.41229C12.1253 3.13363 10.0429 3.13363 8.7642 4.41229L0.170623 13.0035C-0.0568744 13.231 -0.0568744 13.6009 0.170623 13.8284C0.284955 13.9427 0.434287 13.9987 0.583619 13.9987C0.732951 13.9987 0.882282 13.9415 0.996615 13.8284L9.58902 5.23595C10.4138 4.41229 11.7532 4.41229 12.578 5.23595L15.763 8.42091C17.0416 9.69956 19.1241 9.69956 20.4027 8.42091L26.8333 1.99031V7.58209C26.8333 7.90408 27.0947 8.16541 27.4167 8.16541C27.7387 8.16541 28 7.90408 28 7.58209V1.74998C28 0.785158 27.2148 0 26.25 0ZM14.5835 10.4999C14.2615 10.4999 14.0001 10.7612 14.0001 11.0832V27.4164C14.0001 27.7384 14.2615 27.9997 14.5835 27.9997C14.9055 27.9997 15.1668 27.7384 15.1668 27.4164V11.0832C15.1668 10.7612 14.9055 10.4999 14.5835 10.4999ZM8.7502 9.33324C8.4282 9.33324 8.16687 9.59457 8.16687 9.91656V27.4164C8.16687 27.7384 8.4282 27.9997 8.7502 27.9997C9.0722 27.9997 9.33353 27.7384 9.33353 27.4164V9.91656C9.33353 9.59457 9.0722 9.33324 8.7502 9.33324ZM2.91693 15.1665C2.59493 15.1665 2.3336 15.4278 2.3336 15.7498V27.4164C2.3336 27.7384 2.59493 27.9997 2.91693 27.9997C3.23892 27.9997 3.50026 27.7384 3.50026 27.4164V15.7498C3.50026 15.4278 3.23892 15.1665 2.91693 15.1665Z" fill="#4A7CFD"/>
</svg>
