<svg width="45" height="45" viewBox="0 0 45 45" fill="none" xmlns="http://www.w3.org/2000/svg">
<g clip-path="url(#clip0_830_1664)">
<path d="M1.7782 10.3745C0.632572 9.22891 0.000697298 7.70078 0.000697298 6.07703C0.000697298 4.45328 0.632572 2.92516 1.7782 1.77953C4.06382 -0.517344 8.0782 -0.519219 10.3751 1.77953L19.9713 11.3758C20.3369 11.7414 20.3369 12.3358 19.9713 12.7014C19.6057 13.067 19.0113 13.067 18.6457 12.7014L9.04945 3.10328C7.45945 1.51516 4.68632 1.51891 3.1057 3.10328C2.31257 3.89641 1.8757 4.95016 1.8757 6.07703C1.8757 7.20391 2.3107 8.25578 3.10382 9.04891L12.7001 18.647C13.0657 19.0127 13.0657 19.607 12.7001 19.9727C12.5163 20.1564 12.2763 20.2464 12.0363 20.2464C11.7963 20.2464 11.5563 20.1545 11.3726 19.9727L1.7782 10.3745ZM41.9782 33.3827L33.6607 25.0652C33.2951 24.6995 32.7007 24.6995 32.3351 25.0652C31.9694 25.4308 31.9694 26.0252 32.3351 26.3908L40.6526 34.7083C42.2482 36.3039 43.1238 38.4208 43.1238 40.6764V43.127H40.6713C38.4176 43.127 36.2988 42.2495 34.7051 40.6558L26.3876 32.3383C26.0219 31.9727 25.4276 31.9727 25.0619 32.3383C24.6963 32.7039 24.6963 33.2983 25.0619 33.6639L33.3794 41.9814C35.3257 43.9295 37.9151 45.002 40.6713 45.002H44.0613C44.5788 45.002 44.9988 44.582 44.9988 44.0645V40.6764C44.9988 37.9202 43.9263 35.3308 41.9782 33.3827ZM20.5713 32.8314C20.8451 35.5445 19.9432 38.3552 17.8694 40.4289C15.4807 42.8177 8.4757 44.4527 4.35257 44.9702C4.18757 44.9908 4.02445 45.002 3.86132 45.002C2.84132 45.002 1.87007 44.6008 1.1332 43.8677C0.281947 43.0164 -0.121178 41.8427 0.0288223 40.6483C0.544447 36.5252 2.17945 29.5202 4.57007 27.1314C6.64382 25.0577 9.45445 24.1577 12.1676 24.4295L34.8569 1.74203C37.1744 -0.575469 40.9432 -0.575469 43.2607 1.74203C45.5782 4.05953 45.5763 7.82641 43.2607 10.1439L20.5732 32.8295L20.5713 32.8314ZM14.3388 24.9095C15.6288 25.3614 16.8401 26.1002 17.8694 27.1295C18.8988 28.1589 19.6394 29.3702 20.0894 30.6602L41.9332 8.81828C43.5176 7.23203 43.5194 4.65203 41.9332 3.06766C40.3469 1.48328 37.7651 1.48141 36.1807 3.06766L14.3388 24.9095ZM16.5438 28.4552C15.0757 26.9889 13.1463 26.2539 11.2188 26.2539C9.29132 26.2539 7.36195 26.9889 5.8957 28.4552C3.96445 30.3864 2.38945 36.8833 1.88882 40.8808C1.81195 41.4958 2.0182 42.0995 2.45882 42.5402C2.8957 42.9789 3.49195 43.1927 4.1182 43.1102C8.1157 42.6095 14.6126 41.0364 16.5438 39.1033C19.4782 36.1689 19.4763 31.3933 16.5438 28.4552Z" fill="#4A7CFD"/>
</g>
<defs>
<clipPath id="clip0_830_1664">
<rect width="45" height="45" fill="white"/>
</clipPath>
</defs>
</svg>
