<svg width="45" height="45" viewBox="0 0 45 45" fill="none" xmlns="http://www.w3.org/2000/svg">
<path d="M25.3125 6.5625C25.3125 6.045 25.7325 5.625 26.25 5.625H32.8125C36.4312 5.625 39.375 8.56875 39.375 12.1875V18.75C39.375 19.2675 38.955 19.6875 38.4375 19.6875C37.92 19.6875 37.5 19.2675 37.5 18.75V12.1875C37.5 9.60375 35.3981 7.5 32.8125 7.5H26.25C25.7325 7.5 25.3125 7.08 25.3125 6.5625ZM11.25 11.25C9.18187 11.25 7.5 9.56813 7.5 7.5C7.5 5.43187 9.18187 3.75 11.25 3.75C13.3181 3.75 15 5.43187 15 7.5C15 9.56813 13.3181 11.25 11.25 11.25ZM11.25 9.375C12.285 9.375 13.125 8.53313 13.125 7.5C13.125 6.46687 12.285 5.625 11.25 5.625C10.215 5.625 9.375 6.46687 9.375 7.5C9.375 8.53313 10.215 9.375 11.25 9.375ZM37.5 30C37.5 32.0681 35.8181 33.75 33.75 33.75C31.6819 33.75 30 32.0681 30 30C30 27.9319 31.6819 26.25 33.75 26.25C35.8181 26.25 37.5 27.9319 37.5 30ZM35.625 30C35.625 28.9669 34.785 28.125 33.75 28.125C32.715 28.125 31.875 28.9669 31.875 30C31.875 31.0331 32.715 31.875 33.75 31.875C34.785 31.875 35.625 31.0331 35.625 30ZM45 33.75C45 39.9544 39.9544 45 33.75 45C27.5456 45 22.5 39.9544 22.5 33.75C22.5 27.5456 27.5456 22.5 33.75 22.5C39.9544 22.5 45 27.5456 45 33.75ZM37.5 41.25C37.5 39.1819 35.8181 37.5 33.75 37.5C31.6819 37.5 30 39.1819 30 41.25V42.3262C31.1513 42.8325 32.415 43.125 33.75 43.125C35.085 43.125 36.3487 42.8325 37.5 42.3262V41.25ZM43.125 33.75C43.125 28.5806 38.9194 24.375 33.75 24.375C28.5806 24.375 24.375 28.5806 24.375 33.75C24.375 36.8025 25.8637 39.4931 28.1287 41.205C28.1531 38.1244 30.6619 35.625 33.75 35.625C36.8381 35.625 39.3469 38.1244 39.3713 41.205C41.6363 39.4912 43.125 36.8025 43.125 33.75ZM18.75 37.5H12.1875C9.60188 37.5 7.5 35.3963 7.5 32.8125V26.25C7.5 25.7325 7.08 25.3125 6.5625 25.3125C6.045 25.3125 5.625 25.7325 5.625 26.25V32.8125C5.625 36.4312 8.56875 39.375 12.1875 39.375H18.75C19.2675 39.375 19.6875 38.955 19.6875 38.4375C19.6875 37.92 19.2675 37.5 18.75 37.5ZM11.25 22.5C5.04562 22.5 0 17.4544 0 11.25C0 5.04562 5.04562 0 11.25 0C17.4544 0 22.5 5.04562 22.5 11.25C22.5 17.4544 17.4544 22.5 11.25 22.5ZM11.25 13.125C14.3363 13.125 16.8469 15.6244 16.8713 18.705C19.1363 16.9912 20.625 14.3025 20.625 11.25C20.625 6.08063 16.4194 1.875 11.25 1.875C6.08063 1.875 1.875 6.08063 1.875 11.25C1.875 14.3025 3.36375 16.9931 5.62875 18.705C5.65313 15.6244 8.16188 13.125 11.25 13.125ZM7.5 19.8263C8.65125 20.3325 9.915 20.625 11.25 20.625C12.585 20.625 13.8487 20.3325 15 19.8263C15 19.7813 15 18.75 15 18.75C15 16.6819 13.3181 15 11.25 15C9.18187 15 7.5 16.6819 7.5 18.75C7.5 18.75 7.5 19.7794 7.5 19.8263Z" fill="#4A7CFD"/>
</svg>
