<svg width="28" height="29" viewBox="0 0 28 29" fill="none" xmlns="http://www.w3.org/2000/svg">
<path d="M18.0833 18H22.75V19.1667H18.0833V18ZM28 16.25V28.5H0V16.25C0 14.6412 1.30783 13.3333 2.91667 13.3333H5.83333V3.41667C5.83333 1.80783 7.14117 0.5 8.75 0.5H19.25C20.8588 0.5 22.1667 1.80783 22.1667 3.41667V13.3333H25.0833C26.6922 13.3333 28 14.6412 28 16.25ZM7 13.3333H21V3.41667C21 2.45183 20.2148 1.66667 19.25 1.66667H8.75C7.78517 1.66667 7 2.45183 7 3.41667V13.3333ZM1.16667 27.3333H13.4167V14.5H2.91667C1.95183 14.5 1.16667 15.2852 1.16667 16.25V27.3333ZM26.8333 16.25C26.8333 15.2852 26.0482 14.5 25.0833 14.5H14.5833V27.3333H26.8333V16.25ZM5.25 18V19.1667H9.91667V18H5.25ZM11.6667 6.33333H16.3333V5.16667H11.6667V6.33333Z" fill="#4A7CFD"/>
</svg>
