<svg width="28" height="39" viewBox="0 0 28 39" fill="none" xmlns="http://www.w3.org/2000/svg">
<path d="M14 19.4694C19.1473 19.4694 23.3333 15.2834 23.3333 10.1361C23.3333 4.98873 19.1473 0.802734 14 0.802734C8.85267 0.802734 4.66667 4.98873 4.66667 10.1361C4.66667 15.2834 8.85267 19.4694 14 19.4694ZM14 2.35829C18.2887 2.35829 21.7778 5.8474 21.7778 10.1361C21.7778 14.4247 18.2887 17.9138 14 17.9138C9.71133 17.9138 6.22222 14.4247 6.22222 10.1361C6.22222 5.8474 9.71133 2.35829 14 2.35829ZM21 22.5805H7C3.14067 22.5805 0 25.7212 0 29.5805V38.1361H1.55556V29.5805C1.55556 26.5783 3.99778 24.1361 7 24.1361H9.45467L12.3838 28.193L10.0442 38.1361H11.6418L14 28.1152L16.3582 38.1361H17.9558L15.6162 28.193L18.5469 24.1361H21C24.0022 24.1361 26.4444 26.5783 26.4444 29.5805V38.1361H28V29.5805C28 25.7212 24.8593 22.5805 21 22.5805ZM14 27.773L11.3727 24.1361H16.6273L14 27.773Z" fill="#4A7CFD"/>
</svg>
