<svg width="28" height="29" viewBox="0 0 28 29" fill="none" xmlns="http://www.w3.org/2000/svg">
<path d="M25.0833 7.80273H16.415L14.8447 6.28257L19.971 3.7194L14.1377 0.802734H12.8333V6.59523L11.585 7.80273H2.91667C1.30783 7.80273 0 9.11173 0 10.7194V28.8027H28V10.7194C28 9.11173 26.6922 7.80273 25.0833 7.80273ZM25.0833 8.9694C26.0482 8.9694 26.8333 9.75457 26.8333 10.7194V12.4694H21.2357L17.6202 8.9694H25.0833ZM14 2.03823L17.3623 3.7194L14 5.40057V2.03823ZM2.91667 8.9694H10.3798L6.76433 12.4694H1.16667V10.7194C1.16667 9.75457 1.95183 8.9694 2.91667 8.9694ZM16.3333 27.6361H11.6667V20.6361C11.6667 19.3492 12.7132 18.3027 14 18.3027C15.2868 18.3027 16.3333 19.3492 16.3333 20.6361V27.6361ZM17.5 27.6361V20.6361C17.5 18.7064 15.9297 17.1361 14 17.1361C12.0703 17.1361 10.5 18.7064 10.5 20.6361V27.6361H1.16667V13.6361H7.23567L14 7.08873L20.7643 13.6361H26.8333V27.6361H17.5ZM4.66667 18.3027H8.16667V19.4694H4.66667V18.3027ZM4.66667 22.9694H8.16667V24.1361H4.66667V22.9694ZM19.8333 18.3027H23.3333V19.4694H19.8333V18.3027ZM19.8333 22.9694H23.3333V24.1361H19.8333V22.9694ZM15.1667 12.4694C15.1667 13.1134 14.644 13.6361 14 13.6361C13.356 13.6361 12.8333 13.1134 12.8333 12.4694C12.8333 11.8254 13.356 11.3027 14 11.3027C14.644 11.3027 15.1667 11.8254 15.1667 12.4694Z" fill="#4A7CFD"/>
</svg>
