<svg width="28" height="29" viewBox="0 0 28 29" fill="none" xmlns="http://www.w3.org/2000/svg">
<path d="M4.6672 5.16525C5.95418 5.16525 7.0008 4.11863 7.0008 2.83165C7.0008 1.54467 5.95418 0.498047 4.6672 0.498047C3.38022 0.498047 2.3336 1.54467 2.3336 2.83165C2.3336 4.11863 3.38022 5.16525 4.6672 5.16525ZM4.6672 1.66485C5.31128 1.66485 5.834 2.18874 5.834 2.83165C5.834 3.47456 5.31128 3.99845 4.6672 3.99845C4.02313 3.99845 3.5004 3.47456 3.5004 2.83165C3.5004 2.18874 4.02313 1.66485 4.6672 1.66485ZM10.5012 6.33205C11.7882 6.33205 12.8348 5.28543 12.8348 3.99845C12.8348 2.71147 11.7882 1.66485 10.5012 1.66485C9.21423 1.66485 8.16761 2.71147 8.16761 3.99845C8.16761 5.28543 9.21423 6.33205 10.5012 6.33205ZM10.5012 2.83165C11.1453 2.83165 11.668 3.35554 11.668 3.99845C11.668 4.64136 11.1453 5.16525 10.5012 5.16525C9.85713 5.16525 9.33441 4.64136 9.33441 3.99845C9.33441 3.35554 9.85713 2.83165 10.5012 2.83165ZM16.3352 5.16525C17.6222 5.16525 18.6688 4.11863 18.6688 2.83165C18.6688 1.54467 17.6222 0.498047 16.3352 0.498047C15.0482 0.498047 14.0016 1.54467 14.0016 2.83165C14.0016 4.11863 15.0482 5.16525 16.3352 5.16525ZM16.3352 1.66485C16.9793 1.66485 17.502 2.18874 17.502 2.83165C17.502 3.47456 16.9793 3.99845 16.3352 3.99845C15.6911 3.99845 15.1684 3.47456 15.1684 2.83165C15.1684 2.18874 15.6911 1.66485 16.3352 1.66485ZM27.0476 11.7635C26.4689 11.2361 25.7163 10.9771 24.9369 11.0028C24.1551 11.0401 23.434 11.3785 22.9078 11.9572L18.5533 16.7434C18.1869 15.4506 16.9956 14.5008 15.5861 14.5008H2.917C1.30798 14.5008 0 15.81 0 17.4178V25.5854C0 27.1933 1.30798 28.5024 2.917 28.5024H16.0143L27.26 15.88C28.3241 14.6887 28.2296 12.8416 27.0476 11.7647V11.7635ZM26.3895 15.1029L15.4904 27.3345H2.917C1.95206 27.3345 1.1668 26.5492 1.1668 25.5843V17.4167C1.1668 16.4517 1.95206 15.6665 2.917 15.6665H15.585C16.6409 15.6665 17.502 16.5264 17.502 17.5823C17.502 18.5298 16.7949 19.3454 15.865 19.4784L9.25973 20.3383L9.41025 21.4946L16.0237 20.6335C17.215 20.4632 18.1753 19.6091 18.5265 18.5053L23.7724 12.7413C24.0886 12.3936 24.5227 12.1894 24.9929 12.1672C25.4573 12.1462 25.9135 12.3072 26.2624 12.6258C26.9729 13.2733 27.0301 14.3841 26.3895 15.1029ZM7.0008 9.24905C7.0008 8.28411 7.78606 7.49885 8.75101 7.49885H12.2514C13.2164 7.49885 14.0016 8.28411 14.0016 9.24905V10.9993H12.8348V9.24905C12.8348 8.92702 12.5723 8.66565 12.2514 8.66565H8.75101C8.43014 8.66565 8.16761 8.92702 8.16761 9.24905V10.9993H7.0008V9.24905ZM18.0854 6.33205C19.0504 6.33205 19.8356 7.11731 19.8356 8.08225V9.83245H18.6688V8.08225C18.6688 7.76021 18.4063 7.49885 18.0854 7.49885H15.9245C15.7156 7.0648 15.4426 6.66576 15.1007 6.33205H18.0854ZM2.3336 9.83245H1.1668V8.08225C1.1668 7.11731 1.95206 6.33205 2.917 6.33205H5.90168C5.55981 6.66576 5.28677 7.0648 5.07792 7.49885H2.917C2.59613 7.49885 2.3336 7.76021 2.3336 8.08225V9.83245Z" fill="#4A7CFD"/>
</svg>
