<svg width="28" height="39" viewBox="0 0 28 39" fill="none" xmlns="http://www.w3.org/2000/svg">
<path d="M27.7685 19.3601C27.7548 19.0652 27.5902 18.7994 27.333 18.6554C27.1906 18.5748 23.8128 16.711 20.0869 17.5854C17.4533 18.2061 15.0545 19.8642 14.0017 20.6718C12.9489 19.8642 10.5502 18.2061 7.9165 17.5854C4.19061 16.7144 0.812786 18.5748 0.670472 18.6554C0.414992 18.7994 0.248673 19.0652 0.234956 19.3601C0.109788 21.86 -0.257143 30.1194 0.298397 31.4602C1.89129 35.2753 12.5717 38.1713 13.7822 38.4953C13.976 38.5468 14.1457 38.5142 14.2178 38.4953C15.43 38.1764 26.1104 35.2753 27.7016 31.4585C28.2571 30.1194 27.8902 21.8583 27.765 19.3584L27.7685 19.3601ZM1.88614 30.807C1.61695 30.0508 1.69411 24.7869 1.92387 19.9482C2.8309 19.5384 5.11136 18.688 7.52556 19.2555C9.99806 19.8368 12.3368 21.5445 13.1444 22.1789V36.539C8.85611 35.2976 2.76061 32.9039 1.88614 30.807ZM26.1207 30.8001C25.2428 32.9039 19.149 35.2976 14.8607 36.539V22.1789C15.6683 21.5445 18.0002 19.8402 20.4796 19.2555C22.8595 18.6931 25.164 19.5401 26.0813 19.9499C26.3128 24.7869 26.3899 30.0491 26.1207 30.8001Z" fill="#4A7CFD"/>
<path d="M14.0094 14.8627C18.5052 14.8353 20.9245 12.4091 21.0085 7.81728C20.9314 3.32324 18.4451 0.831883 13.9991 0.802734C9.50164 0.831883 7 3.28723 7 7.84815C7 12.3336 9.50336 14.837 14.0094 14.8627ZM13.9991 2.51736C17.5004 2.53965 19.2339 4.28343 19.2939 7.81728C19.227 11.4832 17.5947 13.1275 14.0094 13.1481C10.4687 13.1275 8.78493 11.4386 8.71463 7.83271C8.78321 4.22856 10.4653 2.53965 13.9991 2.51736Z" fill="#4A7CFD"/>
</svg>
