<svg width="28" height="29" viewBox="0 0 28 29" fill="none" xmlns="http://www.w3.org/2000/svg">
<path d="M23.3333 0.802734H11.0833C10.7613 0.802734 10.5 1.06407 10.5 1.38607C10.5 1.70807 10.7613 1.9694 11.0833 1.9694H23.3333C25.263 1.9694 26.8333 3.53973 26.8333 5.4694V13.6361C26.8333 15.5657 25.263 17.1361 23.3333 17.1361V15.9694C23.3333 15.3266 22.8107 14.8027 22.1667 14.8027H18.6667C18.0227 14.8027 17.5 15.3266 17.5 15.9694V17.1361H11.0833C10.7613 17.1361 10.5 17.3974 10.5 17.7194C10.5 18.0414 10.7613 18.3027 11.0833 18.3027H23.3333C25.907 18.3027 28 16.2097 28 13.6361V5.4694C28 2.89573 25.907 0.802734 23.3333 0.802734ZM18.6667 15.9694H22.1667V17.1361H18.6667V15.9694ZM5.25 6.63607C6.85883 6.63607 8.16667 5.32707 8.16667 3.7194C8.16667 2.11173 6.85883 0.802734 5.25 0.802734C3.64117 0.802734 2.33333 2.11173 2.33333 3.7194C2.33333 5.32707 3.64117 6.63607 5.25 6.63607ZM5.25 1.9694C6.21483 1.9694 7 2.75457 7 3.7194C7 4.68423 6.21483 5.4694 5.25 5.4694C4.28517 5.4694 3.5 4.68423 3.5 3.7194C3.5 2.75457 4.28517 1.9694 5.25 1.9694ZM8.16667 11.8861V28.2194C8.16667 28.5414 7.90533 28.8027 7.58333 28.8027C7.26133 28.8027 7 28.5414 7 28.2194V20.6361H4.08333C3.88383 20.6361 3.6925 20.6046 3.5 20.5766V28.2194C3.5 28.5414 3.23867 28.8027 2.91667 28.8027C2.59467 28.8027 2.33333 28.5414 2.33333 28.2194V20.2266C0.959 19.5686 0 18.1756 0 16.5527V11.8861C0 9.6344 1.83167 7.80273 4.08333 7.80273H16.9167C17.2387 7.80273 17.5 8.06407 17.5 8.38607C17.5 8.70807 17.2387 8.9694 16.9167 8.9694H4.08333C2.4745 8.9694 1.16667 10.2784 1.16667 11.8861V16.5527C1.16667 18.1616 2.4745 19.4694 4.08333 19.4694H7V11.8861C7 11.5641 7.26133 11.3027 7.58333 11.3027C7.90533 11.3027 8.16667 11.5641 8.16667 11.8861Z" fill="#4A7CFD"/>
</svg>
