<svg width="28" height="29" viewBox="0 0 28 29" fill="none" xmlns="http://www.w3.org/2000/svg">
<path d="M5.25 6.63607C6.85767 6.63607 8.16667 5.32823 8.16667 3.7194C8.16667 2.11057 6.85767 0.802734 5.25 0.802734C3.64233 0.802734 2.33333 2.11057 2.33333 3.7194C2.33333 5.32823 3.64233 6.63607 5.25 6.63607ZM5.25 1.9694C6.21483 1.9694 7 2.75457 7 3.7194C7 4.68423 6.21483 5.4694 5.25 5.4694C4.28517 5.4694 3.5 4.68423 3.5 3.7194C3.5 2.75457 4.28517 1.9694 5.25 1.9694ZM9.33333 8.9694V17.1361H8.16667V8.9694H2.91667C1.95183 8.9694 1.16667 9.75457 1.16667 10.7194V17.1361H0V10.7194C0 9.11057 1.309 7.80273 2.91667 7.80273H17.5V8.9694H9.33333ZM25.0833 0.802734H9.61333C9.85367 1.16207 10.045 1.55407 10.1897 1.9694H25.0833C26.0482 1.9694 26.8333 2.75457 26.8333 3.7194V15.9694H24.5V13.6361H18.6667V15.9694H11.6667V17.1361H28V3.7194C28 2.11057 26.691 0.802734 25.0833 0.802734ZM19.8333 14.8027H23.3333V15.9694H19.8333V14.8027ZM4.08333 23.5527C5.04817 23.5527 5.83333 22.7676 5.83333 21.8027C5.83333 20.8379 5.04817 20.0527 4.08333 20.0527C3.1185 20.0527 2.33333 20.8379 2.33333 21.8027C2.33333 22.7676 3.1185 23.5527 4.08333 23.5527ZM14 23.5527C14.9648 23.5527 15.75 22.7676 15.75 21.8027C15.75 20.8379 14.9648 20.0527 14 20.0527C13.0352 20.0527 12.25 20.8379 12.25 21.8027C12.25 22.7676 13.0352 23.5527 14 23.5527ZM23.9167 23.5527C24.8815 23.5527 25.6667 22.7676 25.6667 21.8027C25.6667 20.8379 24.8815 20.0527 23.9167 20.0527C22.9518 20.0527 22.1667 20.8379 22.1667 21.8027C22.1667 22.7676 22.9518 23.5527 23.9167 23.5527ZM8.16667 27.6361V28.8027H7V27.6361C7 26.9921 6.47617 26.4694 5.83333 26.4694H2.33333C1.6905 26.4694 1.16667 26.9921 1.16667 27.6361V28.8027H0V27.6361C0 26.3492 1.0465 25.3027 2.33333 25.3027H5.83333C7.12017 25.3027 8.16667 26.3492 8.16667 27.6361ZM28 27.6361V28.8027H26.8333V27.6361C26.8333 26.9921 26.3095 26.4694 25.6667 26.4694H22.1667C21.5238 26.4694 21 26.9921 21 27.6361V28.8027H19.8333V27.6361C19.8333 26.3492 20.8798 25.3027 22.1667 25.3027H25.6667C26.9535 25.3027 28 26.3492 28 27.6361ZM18.0833 27.6361V28.8027H16.9167V27.6361C16.9167 26.9921 16.3928 26.4694 15.75 26.4694H12.25C11.6072 26.4694 11.0833 26.9921 11.0833 27.6361V28.8027H9.91667V27.6361C9.91667 26.3492 10.9632 25.3027 12.25 25.3027H15.75C17.0368 25.3027 18.0833 26.3492 18.0833 27.6361Z" fill="#4A7CFD"/>
</svg>
