<svg width="28" height="29" viewBox="0 0 28 29" fill="none" xmlns="http://www.w3.org/2000/svg">
<path d="M10.1836 19.8799V19.9028C10.2294 22.3792 11.5478 23.695 14.0051 23.709C16.4561 23.6938 17.7745 22.3779 17.819 19.8799C17.7783 17.4747 16.3873 16.0889 13.9975 16.0736C11.5821 16.0889 10.2268 17.4404 10.1836 19.8799ZM16.5464 19.8799C16.5146 21.6602 15.7523 22.425 14.0051 22.4365C12.2782 22.4263 11.4918 21.6424 11.4561 19.8913C11.4905 18.1415 12.2782 17.3576 13.9975 17.3462C15.6823 17.3564 16.5159 18.1924 16.5464 19.8799ZM22.9055 16.0736C20.4901 16.0889 19.1348 17.4404 19.0916 19.8799V19.9028C19.1361 22.3792 20.4545 23.695 22.9131 23.709C25.3641 23.6938 26.6825 22.3779 26.727 19.8799C26.6863 17.4747 25.2954 16.0889 22.9055 16.0736ZM22.9131 22.4365C21.1862 22.4263 20.3985 21.6424 20.3641 19.8913C20.3985 18.1415 21.1862 17.3576 22.9055 17.3462C24.5903 17.3564 25.4239 18.1924 25.4544 19.8799C25.4226 21.6602 24.6603 22.425 22.9131 22.4365ZM1.27554 19.8799V19.9028C1.32136 22.3792 2.63974 23.695 5.09708 23.709C7.54678 23.6938 8.86517 22.3779 8.91098 19.8799C8.86899 17.4747 7.47934 16.0889 5.08945 16.0736C2.6741 16.0889 1.31881 17.4404 1.27554 19.8799ZM7.63841 19.8799C7.60659 21.6602 6.84305 22.425 5.09708 22.4365C3.3702 22.4263 2.58375 21.6424 2.54812 19.8913C2.58248 18.1415 3.3702 17.3576 5.08945 17.3462C6.7756 17.3564 7.60914 18.1924 7.63841 19.8799ZM0.0475121 14.1927C0.0195155 13.5641 0.00297208 12.9164 0.00297208 12.2559C0.00297208 6.24807 1.32772 2.83631 1.38371 2.6925C1.44989 2.52453 1.58478 2.39472 1.75403 2.33109C1.92201 2.26874 5.96243 0.802734 14.0013 0.802734C22.0401 0.802734 26.0805 2.26874 26.2485 2.33109C26.4178 2.39472 26.5527 2.52453 26.6188 2.6925C26.6748 2.83503 27.9996 6.24807 27.9996 12.2559C27.9996 12.9176 27.983 13.5641 27.9538 14.194C27.9385 14.5351 27.6572 14.801 27.3187 14.801C27.3086 14.801 27.2984 14.801 27.2895 14.801C26.9395 14.7845 26.6685 14.488 26.6837 14.1368C26.7105 13.5272 26.727 12.8985 26.727 12.2572C26.727 7.44938 25.8311 4.33921 25.5321 3.43569C24.5064 3.11882 20.6326 2.07658 14.0013 2.07658C7.3699 2.07658 3.49618 3.11754 2.47049 3.43441C2.17144 4.33794 1.27554 7.44684 1.27554 12.2559C1.27554 12.8973 1.29209 13.5246 1.31881 14.1368C1.33408 14.4867 1.06303 14.7858 0.711795 14.7998C0.354202 14.8443 0.0640555 14.5452 0.0475121 14.1927ZM27.9983 28.1147C28.0238 28.4646 27.7603 28.7713 27.4104 28.7968C27.0642 28.8222 26.7524 28.5614 26.7283 28.2089C26.6545 27.2048 25.8578 26.4553 24.7481 26.3407C23.6003 26.2236 22.2183 26.2236 21.0691 26.3407C19.9595 26.4553 19.1628 27.2048 19.089 28.2089C19.0114 28.966 17.8941 28.9673 17.819 28.2089C17.7452 27.2048 16.9486 26.4553 15.8389 26.3407C14.6923 26.2236 13.309 26.2236 12.1599 26.3407C11.0502 26.4553 10.2535 27.2048 10.1797 28.2089C10.1021 28.9648 8.98479 28.9673 8.91098 28.2089C8.83717 27.2048 8.04054 26.4553 6.93086 26.3407C5.783 26.2236 4.39971 26.2236 3.25058 26.3407C2.14089 26.4553 1.34426 27.2048 1.27045 28.2089C1.245 28.5588 0.935768 28.8235 0.589628 28.7968C0.239671 28.7701 -0.0237519 28.4646 0.00169953 28.1147C0.120049 26.5011 1.40407 25.2514 3.12078 25.0758C4.35517 24.9485 5.82499 24.9485 7.05939 25.0758C8.10544 25.1827 8.98479 25.6917 9.54472 26.4349C10.1034 25.6917 10.984 25.1827 12.0301 25.0758C13.2645 24.9485 14.7343 24.9485 15.9674 25.0758C17.0135 25.1827 17.8941 25.6917 18.4527 26.4349C19.0114 25.6917 19.892 25.1827 20.9381 25.0758C22.1712 24.9485 23.6423 24.9485 24.8754 25.0758C26.5934 25.2514 27.8761 26.5011 27.9958 28.1147H27.9983Z" fill="#4A7CFD"/>
</svg>
