<svg width="45" height="45" viewBox="0 0 45 45" fill="none" xmlns="http://www.w3.org/2000/svg">
<path d="M26.2522 44.0643C26.2522 44.5818 25.8322 45.0019 25.3146 45.0019H8.4382C3.78594 45.0019 0 41.2178 0 36.5637V12.1885C0 7.53438 3.78594 3.75031 8.4382 3.75031H9.46954C9.90458 1.61263 11.7985 0 14.0637 0H19.6891C21.9525 0 23.8464 1.61263 24.2833 3.75031H25.3146C29.9669 3.75031 33.7528 7.53438 33.7528 12.1885V14.0637C33.7528 14.5812 33.3328 15.0012 32.8152 15.0012C32.2977 15.0012 31.8777 14.5812 31.8777 14.0637V12.1885C31.8777 8.56946 28.9337 5.62547 25.3146 5.62547H23.4395C22.9219 5.62547 22.5019 5.20543 22.5019 4.68789C22.5019 3.13714 21.2399 1.87516 19.6891 1.87516H14.0637C12.5129 1.87516 11.2509 3.13714 11.2509 4.68789C11.2509 5.20543 10.8309 5.62547 10.3134 5.62547H8.4382C4.81915 5.62547 1.87516 8.56946 1.87516 12.1885V36.5655C1.87516 40.1846 4.81915 43.1286 8.4382 43.1286H25.3146C25.8322 43.1286 26.2522 43.5468 26.2522 44.0643ZM19.6891 22.5019H8.4382C7.92066 22.5019 7.50062 22.9219 7.50062 23.4395C7.50062 23.957 7.92066 24.377 8.4382 24.377H19.6891C20.2067 24.377 20.6267 23.957 20.6267 23.4395C20.6267 22.9219 20.2067 22.5019 19.6891 22.5019ZM19.6891 30.0025H8.4382C7.92066 30.0025 7.50062 30.4225 7.50062 30.9401C7.50062 31.4576 7.92066 31.8777 8.4382 31.8777H19.6891C20.2067 31.8777 20.6267 31.4576 20.6267 30.9401C20.6267 30.4225 20.2067 30.0025 19.6891 30.0025ZM26.2522 15.9388C26.2522 15.4213 25.8322 15.0012 25.3146 15.0012H8.4382C7.92066 15.0012 7.50062 15.4213 7.50062 15.9388C7.50062 16.4564 7.92066 16.8764 8.4382 16.8764H25.3146C25.8322 16.8764 26.2522 16.4564 26.2522 15.9388ZM45 26.2522V32.6521C45 40.3365 37.7075 43.8618 35.4742 44.76C35.2623 44.8387 34.9192 45.0187 34.6904 45.0037C34.4241 45.0244 34.0828 44.805 33.8503 44.6943C31.6283 43.5843 24.3752 39.4364 24.3752 32.6521V26.2522C24.3752 24.2289 25.6653 22.44 27.5873 21.8024L33.2128 19.9367C34.1653 19.6216 35.2117 19.6216 36.1624 19.9367L41.7879 21.8024C43.7099 22.44 45 24.2289 45 26.2522ZM43.1248 26.2522C43.1248 25.039 42.3504 23.9645 41.1972 23.582L35.5717 21.7162C34.9998 21.5287 34.3716 21.5287 33.7997 21.7162L28.1761 23.582C27.0229 23.9645 26.2484 25.0371 26.2484 26.2522V32.6521C26.2634 38.3938 32.7159 42.0279 34.7316 43.0386C36.7306 42.2285 43.1098 39.1945 43.1248 32.6521V26.2522Z" fill="#4A7CFD"/>
</svg>
