<svg width="28" height="28" viewBox="0 0 28 28" fill="none" xmlns="http://www.w3.org/2000/svg">
<path d="M27.3089 6.52182C27.0441 4.78824 25.4238 3.58924 23.6839 3.85653C22.966 3.96472 22.3321 4.31857 21.8446 4.84297C21.767 4.44457 21.6932 4.07546 21.627 3.77507C21.4437 2.94519 20.9498 2.23623 20.2307 1.77674C19.5154 1.31853 18.6651 1.16579 17.8365 1.3478C17.1263 1.50309 16.5141 1.89893 16.0622 2.45516C15.8471 1.57691 15.2998 0.838674 14.5068 0.400823C13.7635 -0.0115707 12.9069 -0.109578 12.0936 0.124621C10.7902 0.495012 9.91704 1.63419 9.80375 2.9121C9.17753 2.59644 8.44693 2.46152 7.69596 2.60026C5.97129 2.91846 4.82575 4.58077 5.14268 6.30544C5.20123 6.62237 5.28142 7.01949 5.37561 7.47389C5.75364 9.3233 6.30986 12.0751 6.35568 14.3446C5.41379 13.5834 4.76211 13.1825 4.69974 13.1443C3.54911 12.5003 2.14392 12.6186 1.12057 13.4523C0.0870397 14.2949 -0.279533 15.7447 0.223231 16.9615C0.322511 17.2212 2.71287 23.3549 7.8907 27.2395C7.96707 27.2955 8.0549 27.335 8.14781 27.3541C8.28019 27.3808 11.4495 28.0032 16.5459 28.0032C21.6423 28.0032 24.2121 27.4521 24.319 27.4292C24.4921 27.391 24.6423 27.2828 24.7314 27.1301C26.8023 23.5954 28 20.4185 28 14.6399C28 12.3233 27.6436 8.72889 27.3063 6.52309L27.3089 6.52182ZM23.7806 26.2365C23.0093 26.3702 20.5807 26.7304 16.5472 26.7304C12.1725 26.7304 9.20044 26.2493 8.5373 26.1322C3.74004 22.4664 1.43496 16.5656 1.40568 16.4918C1.11039 15.7752 1.32422 14.9301 1.92499 14.44C2.55122 13.9309 3.37601 13.8609 4.06079 14.2453C4.08624 14.2606 6.60261 15.7981 9.04897 18.8555C9.26917 19.1291 9.66756 19.1737 9.94376 18.9547C10.2187 18.7345 10.262 18.3349 10.043 18.0599C9.19789 17.0035 8.35656 16.138 7.59032 15.4252C7.80288 12.2317 6.89918 8.83326 6.39641 6.07506C6.20549 5.04026 6.89281 4.04236 7.92634 3.85144C8.98788 3.66052 10.0278 4.32366 10.2276 5.30627C10.6438 7.02204 11.3248 10.2499 11.433 13.3874C11.4457 13.7311 11.727 14.0022 12.0694 14.0022H12.0923C12.4423 13.9907 12.7172 13.6954 12.7058 13.3441C12.539 9.49004 11.7932 6.20489 11.1275 3.70634C10.8411 2.69317 11.4304 1.63546 12.4436 1.3478C13.4249 1.04614 14.5386 1.66601 14.8008 2.66517C15.5925 5.54938 16.3919 9.40349 16.5268 13.3849C16.5382 13.7362 16.8285 14.0187 17.1823 14.0022C17.5336 13.9907 17.8098 13.698 17.7996 13.3467C17.7029 10.1226 17.1212 6.93421 16.6464 4.8086C16.4364 3.82471 17.1237 2.78609 18.1115 2.59135C19.1055 2.35078 20.1862 3.04574 20.3847 4.04873C20.7946 5.92232 21.5163 9.99789 21.6181 13.3861C21.6295 13.7311 21.9108 14.0035 22.2545 14.0035H22.2749C22.6249 13.992 22.9011 13.6993 22.8909 13.348C22.8349 11.3674 22.5587 9.1782 22.2749 7.2906C22.0992 6.27998 22.8578 5.249 23.8761 5.11535C24.9096 4.95625 25.8922 5.67412 26.0513 6.71529C26.381 8.87526 26.7297 12.387 26.7297 14.6399C26.7297 19.9934 25.6504 22.9908 23.7806 26.2378V26.2365ZM19.0928 16.5478C18.3177 16.5478 17.6418 16.8609 17.1836 17.3739C16.7254 16.8609 16.0495 16.5478 15.2743 16.5478C13.8704 16.5478 12.7287 17.7583 12.7287 19.2462C12.7287 21.9535 15.0427 23.8016 16.038 24.4699C16.3855 24.7041 16.7852 24.8212 17.1836 24.8212C17.582 24.8212 17.9816 24.7028 18.3291 24.4699C19.3232 23.8016 21.6384 21.9522 21.6384 19.2462C21.6384 17.7583 20.4967 16.5478 19.0928 16.5478ZM17.6189 23.4147C17.3554 23.5942 17.0117 23.5942 16.7483 23.4147C16.1029 22.9819 14.0015 21.4011 14.0015 19.2475C14.0015 18.4622 14.5717 17.8219 15.2743 17.8219C16.024 17.8219 16.5472 18.3451 16.5472 19.0947C16.5472 19.446 16.8323 19.7312 17.1836 19.7312C17.5349 19.7312 17.82 19.446 17.82 19.0947C17.82 18.3451 18.3431 17.8219 19.0928 17.8219C19.7954 17.8219 20.3656 18.4622 20.3656 19.2475C20.3656 21.4011 18.2642 22.9832 17.6189 23.4147Z" fill="#4A7CFD"/>
</svg>
