<svg width="202" height="124" viewBox="0 0 202 124" fill="none" xmlns="http://www.w3.org/2000/svg">
<path d="M197.056 5.01318H4.9436V118.987H197.056V5.01318Z" fill="white"/>
<path d="M36.8371 32.9321H32.8019V52.8634H36.8371V32.9321Z" fill="#3558A2"/>
<path d="M94.0448 37.177V32.9446H79.7209V37.177H84.859V61.1021H88.9068V37.177H94.0448Z" fill="#3558A2"/>
<path d="M102.191 32.9321H98.1553V52.8634H102.191V32.9321Z" fill="#3558A2"/>
<path d="M141.39 53.9686V32.9321H137.392V54.0942C137.392 55.5762 137.017 59.0048 133.52 59.0048C129.961 59.0048 129.685 55.212 129.685 54.0565V32.9321H125.65V54.2198C125.65 59.6076 128.896 63.3754 133.533 63.3754C133.808 63.3754 134.084 63.3628 134.36 63.3377L127.994 91.0682H132.279L133.871 83.1811H139.811L141.44 91.0682H145.851L139.022 61.1398C140.525 59.5072 141.39 57.0581 141.39 53.9686ZM134.673 79.0742L135.688 74.1385C136.001 72.5435 136.44 70.0819 136.716 68.5748H136.916C137.179 70.0945 137.631 72.5812 137.944 74.1385L138.959 79.0742H134.673Z" fill="#3558A2"/>
<path d="M158.847 32.9321H144.523V37.1645H149.661V63.1242H153.709V37.1645H158.847V32.9321Z" fill="#3558A2"/>
<path d="M61.3368 77.2783C64.169 76.0098 65.6102 73.3724 65.6102 69.4288C65.6102 64.3801 62.8657 61.3031 58.2415 61.1022V32.9321H54.2814V46.1317C54.2814 47.2495 54.3065 49.6232 54.3315 51.1302L54.131 51.1805L53.8052 50.339C53.3791 49.2338 52.8653 47.9277 52.5395 47.1616L46.5743 32.9321H42.489V61.0896H32.8019V91.0556H36.8371V77.4792H42.8524V73.3222H36.8371V65.2844H46.4365V62.8981V61.0896V47.9026C46.4365 46.7848 46.4114 44.4111 46.3864 42.904L46.5869 42.8538L46.9127 43.7078C47.3388 44.813 47.8526 46.1066 48.1784 46.8727L54.106 61.0896H49.8451V91.0556H53.8804V78.0695L57.0134 78.1449L61.1363 91.0682H65.6979L61.224 77.316L61.3368 77.2783ZM57.4645 73.925H53.9055V65.2969H57.4645C60.0335 65.2969 61.4621 66.8166 61.4621 69.567C61.4496 72.4556 60.1087 73.925 57.4645 73.925Z" fill="#3558A2"/>
<path d="M75.1971 61.1021C76.6884 59.5825 77.6533 57.4474 77.6533 55.0863C77.6533 50.2762 74.2697 47.7392 70.8485 45.3907C67.678 43.218 66.8008 42.3514 66.8008 40.1912C66.8008 38.345 68.1918 36.7877 69.9713 36.7877C71.4501 36.7877 72.6907 37.6794 73.6055 39.1237L76.6382 36.524C75.2597 33.9619 72.8411 32.4548 69.9713 32.4548C65.6604 32.4548 62.5901 36.2226 62.5901 40.3294C62.5901 45.1018 65.1967 46.9355 68.292 49.1082C71.9764 51.7079 73.3424 52.8759 73.3424 55.1993C73.3424 57.1334 71.8385 59.0299 69.7583 59.0299C68.2294 59.0299 67.1767 58.0754 65.4223 55.7896L62.2517 58.5777C64.0814 61.7803 66.6253 63.4381 69.8084 63.4381C71.5628 63.4381 73.2296 62.7599 74.5705 61.6422L67.8158 91.0556H72.1017L73.6933 83.1685H79.6333L81.2625 91.0556H85.6611L78.8188 61.0896H75.1971V61.1021ZM74.5454 79.0742L75.5605 74.1385C75.8738 72.5435 76.3249 70.0819 76.5881 68.5748H76.7886C77.0518 70.0944 77.5029 72.5811 77.8162 74.1385L78.8313 79.0742H74.5454Z" fill="#3558A2"/>
<path d="M100.699 74.2892C100.699 75.407 100.724 77.7932 100.749 79.3003L100.549 79.3505L100.223 78.4965C99.7969 77.3913 99.2831 76.0852 98.9573 75.3191L92.9921 61.0896H88.9067V91.0556H92.8668V76.0852C92.8668 74.9674 92.8417 72.5937 92.8167 71.0866L93.0172 71.0364L93.343 71.8779C93.7691 72.9831 94.2829 74.2892 94.6087 75.0553L101.288 91.0682H104.659V61.1022H100.699V74.2892Z" fill="#3558A2"/>
<path d="M153.696 70.9109H149.661V91.0682H153.696V70.9109Z" fill="#3558A2"/>
<path d="M166.429 73.5482C163.271 71.3754 162.381 70.5089 162.381 68.3487C162.381 66.5025 163.772 64.9452 165.564 64.9452C167.043 64.9452 168.283 65.8369 169.198 67.2812L172.231 64.6814C170.852 62.1194 168.434 60.6123 165.576 60.6123C161.265 60.6123 158.195 64.3926 158.195 68.4994C158.195 73.2719 160.802 75.1055 163.897 77.2782C167.569 79.8779 168.584 80.9706 168.584 83.294C168.584 85.2281 167.093 87.112 165 87.112C163.471 87.112 162.418 86.17 160.664 83.8717L157.493 86.6599C159.323 89.8624 161.867 91.5077 165.05 91.5077C169.198 91.5077 172.87 87.7651 172.87 83.1433C172.87 78.3583 169.85 75.8967 166.429 73.5482Z" fill="#3558A2"/>
<path d="M121.114 82.6661C120.324 85.9943 119.422 87.1749 117.68 87.1749C113.607 87.1749 113.281 78.6598 113.281 76.0475C113.281 71.9281 113.82 64.9955 117.392 64.9955C119.547 64.9955 120.249 66.49 120.75 69.0646L120.763 69.14L124.835 68.0348L124.823 67.972C124.033 63.0237 121.652 60.6249 117.504 60.6249C116.978 60.6249 116.477 60.6877 116.001 60.7882V37.1645H121.139V32.9321H106.815V37.1645H111.953V63.6391C110.111 66.2514 109.108 70.4964 109.108 76.1228C109.108 84.3365 111.163 89.5862 114.91 91.0933L113.645 97.3226H117.617L118.707 91.4575C122.016 90.9551 123.983 88.5438 124.861 83.9472L124.873 83.8844L121.114 82.6033V82.6661Z" fill="#3558A2"/>
<path d="M201.129 123.081H0.858276V0.918945H201.129V123.081ZM4.94365 118.987H197.056V5.01321H4.94365V118.987Z" fill="#3558A2"/>
</svg>
