<svg width="554" height="369" viewBox="0 0 554 369" fill="none" xmlns="http://www.w3.org/2000/svg">
<g clip-path="url(#clip0_537_8848)">
<path d="M432.673 20.1485C429.739 18.7646 426.705 17.4466 423.687 16.2275L424.924 13.1797C427.991 14.4153 431.074 15.7662 434.075 17.1666L432.673 20.132V20.1485Z" fill="#2D4AD1"/>
<path d="M534.539 155.538C528.669 118.074 511.455 83.9882 484.777 56.9533C473.581 45.6022 460.918 35.7668 447.134 27.7272L448.783 24.8936C462.814 33.0815 475.708 43.0816 487.118 54.6468C514.275 82.176 531.802 116.888 537.787 155.027L534.539 155.538Z" fill="#2D4AD1"/>
<path d="M213.393 292.705C190.557 261.947 178.355 225.489 178.075 187.251H181.356C181.62 224.764 193.607 260.563 216.015 290.745L213.377 292.705H213.393Z" fill="#2D4AD1"/>
<path d="M212.75 85.9482L210.063 84.07C211.959 81.3517 213.954 78.6499 215.999 76.0469L218.587 78.0733C216.576 80.6268 214.63 83.2793 212.767 85.9482H212.75Z" fill="#2D4AD1"/>
<path d="M243.468 52.2581L241.358 49.754C260.204 33.8724 281.738 22.2742 305.35 15.2725L306.289 18.4191C283.107 25.2891 261.968 36.6731 243.468 52.2581Z" fill="#2D4AD1"/>
<path d="M374.172 12.2575C368.484 11.6479 362.697 11.3184 356.975 11.269C355.095 11.269 353.216 11.269 351.352 11.3184L351.27 8.03998C353.183 7.99055 355.095 7.97408 357.008 7.99055C362.845 8.03998 368.748 8.36947 374.535 8.99551L374.189 12.2575H374.172Z" fill="#2D4AD1"/>
<path d="M430.464 28.2215C427.529 26.8211 424.512 25.4702 421.511 24.2511L422.764 21.2197C425.814 22.4718 428.898 23.8392 431.882 25.2725L430.464 28.2379V28.2215Z" fill="#2D4AD1"/>
<path d="M527.597 166.13C523.673 127.316 506.41 90.6104 478.957 62.7682C465.667 49.2919 450.333 38.1385 433.399 29.6376L434.866 26.7051C452.13 35.3543 467.744 46.7218 481.298 60.4617C509.262 88.8311 526.872 126.245 530.862 165.801L527.597 166.13Z" fill="#2D4AD1"/>
<path d="M217.037 283.661C199.147 258.01 188.644 227.977 186.649 196.807L189.93 196.593C191.876 227.153 202.181 256.61 219.725 281.783L217.037 283.661Z" fill="#2D4AD1"/>
<path d="M519.864 172.572C517.276 133.494 500.672 96.5579 473.119 68.6003C456.697 51.928 437.274 39.1601 415.41 30.6756L416.597 27.6113C438.889 36.2605 458.692 49.2755 475.461 66.2939C503.557 94.828 520.491 132.489 523.145 172.358L519.864 172.572Z" fill="#2D4AD1"/>
<path d="M522.766 198.949L519.501 198.636C519.798 195.407 520.013 192.112 520.128 188.866L523.409 188.982C523.294 192.293 523.079 195.637 522.766 198.932V198.949Z" fill="#2D4AD1"/>
<path d="M223.221 278.109C206.765 254.188 197.004 226.28 194.959 197.383L198.241 197.152C200.236 225.472 209.816 252.82 225.925 276.247L223.221 278.109Z" fill="#2D4AD1"/>
<path d="M287.74 43.1468L286.322 40.1813C290.312 38.2703 294.434 36.5075 298.573 34.9424L299.743 38.0067C295.687 39.5388 291.664 41.2687 287.74 43.1468Z" fill="#2D4AD1"/>
<path d="M302.81 36.8867L301.706 33.7895C302.744 33.4106 303.8 33.0481 304.855 32.7021L305.894 35.8159C304.855 36.1618 303.833 36.5078 302.81 36.8867Z" fill="#2D4AD1"/>
<path d="M515.066 191.271L511.785 191.106C511.9 188.948 511.95 186.773 511.966 184.664C512.313 143.198 496.451 104.054 467.283 74.4323C439.78 46.4912 403.011 29.9836 363.752 27.9572L363.917 24.6787C404 26.738 441.528 43.5917 469.624 72.1258C499.402 102.373 515.594 142.357 515.248 184.681C515.231 186.839 515.165 189.063 515.05 191.271H515.066Z" fill="#2D4AD1"/>
<path d="M229.948 273.364C218.868 257.219 211.036 239.377 206.666 220.299L209.865 219.574C214.136 238.24 221.803 255.703 232.652 271.502L229.948 273.364Z" fill="#2D4AD1"/>
<path d="M206.683 220.3C206.073 217.615 205.512 214.863 205.05 212.128L208.282 211.568C208.744 214.237 209.288 216.923 209.881 219.559L206.683 220.283V220.3Z" fill="#2D4AD1"/>
<path d="M503.557 176.081C501.776 140.051 486.821 106.014 461.462 80.2314C433.729 52.0267 396.613 36.3099 356.958 35.9639H355.491V32.6689H356.991C397.52 33.0314 435.46 49.0942 463.804 77.9249C489.723 104.284 505.008 139.079 506.838 175.9L503.557 176.065V176.081Z" fill="#2D4AD1"/>
<path d="M233.559 263.842C224.012 248.702 217.4 232.129 213.888 214.6L217.103 213.957C220.533 231.091 226.997 247.285 236.329 262.096L233.542 263.842H233.559Z" fill="#2D4AD1"/>
<path d="M369.077 44.8441C365.071 44.4652 360.998 44.251 356.958 44.2016C353.413 44.1687 349.819 44.2675 346.274 44.5146L346.06 41.2362C349.687 40.989 353.364 40.8902 356.991 40.9231C361.114 40.9561 365.285 41.1867 369.391 41.5657L369.077 44.8276V44.8441Z" fill="#2D4AD1"/>
<path d="M492.955 157.036C487.745 130.166 474.834 105.635 455.625 86.08C433.432 63.4768 403.835 48.9626 372.309 45.2063L372.705 41.9443C404.973 45.7994 435.262 60.6431 457.983 83.7736C477.654 103.79 490.861 128.914 496.187 156.41L492.955 157.036Z" fill="#2D4AD1"/>
<path d="M234.664 249.196C230.08 240.3 226.452 230.909 223.897 221.239L227.079 220.398C229.585 229.822 233.114 238.998 237.599 247.681L234.68 249.18L234.664 249.196Z" fill="#2D4AD1"/>
<path d="M317.139 58.1719L316.183 55.0253C319.348 54.0697 322.613 53.1966 325.861 52.4717L326.587 55.6678C323.421 56.3762 320.239 57.2164 317.139 58.1554V58.1719Z" fill="#2D4AD1"/>
<path d="M371.913 53.4438C366.967 52.8342 361.938 52.5048 356.958 52.4553C352.193 52.4059 347.379 52.6201 342.646 53.0814L342.317 49.8194C347.164 49.3416 352.094 49.1274 356.975 49.1769C362.086 49.2263 367.231 49.5723 372.293 50.1983L371.897 53.4603L371.913 53.4438Z" fill="#2D4AD1"/>
<path d="M481.116 143.874C474.933 124.45 464.1 106.476 449.805 91.8962C429.87 71.5829 403.357 58.0901 375.129 53.8891L375.607 50.6436C404.528 54.9434 431.701 68.7822 452.13 89.6062C466.788 104.549 477.885 122.967 484.233 142.885L481.1 143.874H481.116Z" fill="#2D4AD1"/>
<path d="M239.825 241.008C237.467 235.984 235.422 230.761 233.724 225.489L236.857 224.484C238.506 229.624 240.501 234.715 242.809 239.608L239.841 241.008H239.825Z" fill="#2D4AD1"/>
<path d="M309.851 69.4243L308.647 66.3765C314.847 63.9217 321.277 61.9448 327.774 60.4785L328.499 63.6746C322.168 65.0914 315.902 67.019 309.851 69.4078V69.4243Z" fill="#2D4AD1"/>
<path d="M367.313 61.2364C363.883 60.9069 360.404 60.7257 356.958 60.6928C353.908 60.6598 350.841 60.7422 347.807 60.9399L347.593 57.6614C350.709 57.4637 353.858 57.3813 356.975 57.4143C360.503 57.4472 364.081 57.6449 367.61 57.9744L367.296 61.2364H367.313Z" fill="#2D4AD1"/>
<path d="M435.312 89.6886C417.784 74.9438 396.498 65.372 373.777 62.0111L374.255 58.7656C397.586 62.2088 419.417 72.0278 437.422 87.168L435.312 89.6721V89.6886Z" fill="#2D4AD1"/>
<path d="M438.972 92.9005C438.577 92.538 438.164 92.1756 437.769 91.8131L439.945 89.3584C440.357 89.7208 440.769 90.0998 441.182 90.4787L438.972 92.9005Z" fill="#2D4AD1"/>
<path d="M473.004 145.586C467.184 127.711 457.142 111.171 443.968 97.7275C442.352 96.08 440.67 94.4655 438.972 92.9169L441.181 90.4951C442.929 92.0932 444.66 93.7571 446.309 95.4375C459.83 109.243 470.135 126.229 476.12 144.582L473.004 145.603V145.586Z" fill="#2D4AD1"/>
<path d="M430.909 284.237L428.98 281.585C433.349 278.422 437.537 274.929 441.462 271.189L443.721 273.562C439.697 277.4 435.377 280.992 430.893 284.254L430.909 284.237Z" fill="#2D4AD1"/>
<path d="M369.061 307.352L368.781 304.09C378.492 303.233 388.105 301.19 397.355 298.027L398.427 301.125C388.93 304.387 379.053 306.479 369.078 307.352H369.061Z" fill="#2D4AD1"/>
<path d="M320.09 74.4989L319.084 71.3687C324.377 69.6718 329.835 68.3209 335.309 67.3818L335.87 70.6109C330.544 71.5335 325.251 72.835 320.09 74.4989Z" fill="#2D4AD1"/>
<path d="M441.742 107.398C440.571 106.08 439.351 104.779 438.148 103.543C416.647 81.5659 387.808 69.2758 356.958 68.9298C351.006 68.8639 344.971 69.2593 339.068 70.116L338.59 66.8705C344.658 65.9973 350.841 65.5855 356.991 65.6514C388.715 66.0138 418.378 78.6499 440.489 101.253C441.742 102.522 442.979 103.856 444.199 105.224L441.742 107.415V107.398Z" fill="#2D4AD1"/>
<path d="M464.579 146.378C460.341 134.038 454.059 122.588 445.93 112.357L448.502 110.314C456.862 120.842 463.325 132.605 467.695 145.307L464.595 146.378H464.579Z" fill="#2D4AD1"/>
<path d="M467.349 155.719C466.821 153.626 466.228 151.518 465.584 149.458L468.717 148.486C469.377 150.595 469.987 152.753 470.531 154.911L467.349 155.702V155.719Z" fill="#2D4AD1"/>
<path d="M429.87 274.699L427.842 272.129C430.926 269.691 433.91 267.071 436.73 264.32C440.868 260.284 444.726 255.885 448.205 251.239L450.844 253.2C447.266 257.961 443.292 262.491 439.038 266.66C436.152 269.477 433.069 272.179 429.887 274.699H429.87Z" fill="#2D4AD1"/>
<path d="M365.252 299.362L365.054 296.083C379.201 295.227 392.887 291.751 405.764 285.737L407.149 288.703C393.909 294.897 379.811 298.472 365.252 299.362Z" fill="#2D4AD1"/>
<path d="M405.286 89.2926C390.447 81.5495 373.727 77.3649 356.959 77.1672C344.444 77.0025 332.077 79.0289 320.222 83.1475L319.134 80.0503C331.352 75.7998 344.048 73.7075 356.992 73.8888C374.271 74.1029 391.502 78.4193 406.803 86.3931L405.286 89.3091V89.2926Z" fill="#2D4AD1"/>
<path d="M454.62 143.297C449.426 130.611 441.924 119.194 432.311 109.375C425.171 102.077 417.042 95.8496 408.139 90.8578L409.738 87.9912C418.922 93.1313 427.298 99.5564 434.652 107.085C444.545 117.217 452.278 128.98 457.637 142.061L454.603 143.297H454.62Z" fill="#2D4AD1"/>
<path d="M460.918 165.076C459.797 158.701 458.066 152.391 455.807 146.328L458.89 145.175C461.231 151.435 463.012 157.943 464.166 164.516L460.935 165.093L460.918 165.076Z" fill="#2D4AD1"/>
<path d="M434.289 259.739L431.964 257.417C432.723 256.642 433.481 255.868 434.223 255.077L436.631 257.318C435.872 258.125 435.097 258.932 434.306 259.723L434.289 259.739Z" fill="#2D4AD1"/>
<path d="M362.4 291.256L362.268 287.977C379.581 287.302 396.63 282.244 411.535 273.348L413.217 276.165C397.833 285.341 380.257 290.564 362.383 291.256H362.4Z" fill="#2D4AD1"/>
<path d="M310.609 96.1624L309.125 93.2299C310.115 92.7192 311.121 92.2414 312.143 91.7637L313.528 94.7456C312.555 95.2069 311.582 95.6682 310.609 96.1624Z" fill="#2D4AD1"/>
<path d="M392.359 92.4232C381.048 87.9256 369.143 85.5533 356.958 85.405C346.323 85.2567 335.771 86.8218 325.614 90.0344L324.625 86.9042C335.111 83.5763 345.994 81.9783 357.008 82.1101C369.605 82.2748 381.905 84.7131 393.596 89.3754L392.376 92.4232H392.359Z" fill="#2D4AD1"/>
<path d="M440.736 133.841C436.762 127.086 431.964 120.809 426.474 115.191C419.862 108.42 412.327 102.638 404.066 98.0082L405.665 95.1416C414.206 99.9193 422.005 105.9 428.832 112.901C434.487 118.717 439.45 125.191 443.572 132.177L440.736 133.841Z" fill="#2D4AD1"/>
<path d="M453.399 170.331C451.948 159.59 448.733 149.227 443.853 139.524L446.787 138.041C451.833 148.074 455.164 158.783 456.664 169.887L453.416 170.331H453.399Z" fill="#2D4AD1"/>
<path d="M360.52 283.084L360.454 279.806C384.527 279.262 407.364 269.724 424.759 252.969L427.034 255.325C409.046 272.656 385.434 282.524 360.537 283.084H360.52Z" fill="#2D4AD1"/>
<path d="M445.6 174.664C443.622 154.582 434.767 135.52 420.653 121.006C403.819 103.691 381.197 93.9713 356.959 93.6253C339.102 93.3452 321.69 98.3206 306.586 107.909L304.822 105.141C320.47 95.1904 338.541 90.0668 357.008 90.3468C382.12 90.7093 405.566 100.775 423.011 118.716C437.653 133.774 446.837 153.527 448.882 174.335L445.617 174.664H445.6Z" fill="#2D4AD1"/>
<path d="M448.173 197.762L444.924 197.251C445.584 193.1 445.947 188.866 446.013 184.648C446.029 183.478 446.013 182.309 445.996 181.139L449.277 181.057C449.31 182.276 449.31 183.478 449.294 184.698C449.228 189.063 448.849 193.462 448.173 197.762Z" fill="#2D4AD1"/>
<path d="M359.63 274.864L359.58 271.585C381.938 271.256 403.126 262.458 419.219 246.84C421.197 244.929 423.11 242.886 424.891 240.794L427.397 242.919C425.534 245.094 423.555 247.219 421.511 249.196C404.808 265.407 382.829 274.518 359.63 274.864Z" fill="#2D4AD1"/>
<path d="M310.197 115.389L308.4 112.638C314.979 108.354 322.118 104.977 329.604 102.604L330.593 105.735C323.388 108.008 316.529 111.254 310.197 115.389Z" fill="#2D4AD1"/>
<path d="M346.373 102.39L346.01 99.128C348.22 98.8809 350.479 98.7162 352.721 98.6338L352.836 101.912C350.693 101.978 348.516 102.143 346.389 102.39H346.373Z" fill="#2D4AD1"/>
<path d="M368.946 102.934C365.005 102.292 360.965 101.929 356.959 101.88H356.068L356.085 98.585H357.008C361.18 98.6509 365.368 99.0298 369.473 99.6888L368.946 102.934Z" fill="#2D4AD1"/>
<path d="M401.758 115.899C392.755 109.837 382.779 105.669 372.128 103.51L372.787 100.298C383.868 102.538 394.239 106.888 403.604 113.181L401.774 115.899H401.758Z" fill="#2D4AD1"/>
<path d="M437.604 178.058C436.35 158.882 428.255 140.694 414.817 126.838C412.36 124.318 409.722 121.913 406.968 119.721L409.013 117.151C411.882 119.425 414.635 121.913 417.174 124.548C431.157 138.964 439.566 157.893 440.885 177.844L437.604 178.058Z" fill="#2D4AD1"/>
<path d="M436.4 210.925L433.3 209.838C436.136 201.716 437.636 193.248 437.768 184.632C437.785 183.511 437.768 182.391 437.768 181.271L441.05 181.188C441.083 182.358 441.083 183.511 441.05 184.681C440.901 193.643 439.335 202.457 436.4 210.909V210.925Z" fill="#2D4AD1"/>
<path d="M358.327 266.626C357.865 266.626 357.403 266.626 356.958 266.626C355.639 266.61 354.32 266.544 353.001 266.461L353.215 263.183C354.485 263.265 355.738 263.315 357.008 263.331C378.129 263.71 398.163 255.753 413.398 240.991C416.91 237.581 420.142 233.841 422.978 229.854L425.649 231.749C422.698 235.901 419.351 239.805 415.69 243.347C400.141 258.389 379.828 266.61 358.327 266.61V266.626Z" fill="#2D4AD1"/>
<path d="M288.053 152.424L285.102 150.974C286.091 148.964 287.163 146.971 288.317 145.06L291.136 146.74C290.032 148.569 288.993 150.48 288.053 152.407V152.424Z" fill="#2D4AD1"/>
<path d="M292.851 144.021L290.114 142.209C290.724 141.27 291.367 140.348 292.027 139.441L294.698 141.369C294.071 142.242 293.461 143.132 292.868 144.021H292.851Z" fill="#2D4AD1"/>
<path d="M305.449 129.392L303.256 126.954C308.268 122.44 313.841 118.601 319.843 115.521L321.343 118.437C315.605 121.385 310.263 125.076 305.449 129.392Z" fill="#2D4AD1"/>
<path d="M365.153 110.71C364.082 110.579 363.026 110.463 361.938 110.364L362.218 107.086C363.34 107.185 364.461 107.3 365.565 107.448L365.153 110.71Z" fill="#2D4AD1"/>
<path d="M380.817 114.466C378.789 113.741 376.728 113.098 374.651 112.555L375.492 109.375C377.652 109.952 379.812 110.611 381.922 111.368L380.817 114.466Z" fill="#2D4AD1"/>
<path d="M358.327 258.406C357.865 258.406 357.404 258.406 356.942 258.406C355.969 258.389 355.013 258.356 354.056 258.29L354.238 255.012C355.161 255.061 356.068 255.094 356.991 255.111C375.904 255.44 393.876 248.373 407.561 235.193C421.379 221.865 429.178 203.924 429.524 184.649C429.87 165.192 422.566 146.724 408.979 132.671C407.133 130.76 405.154 128.915 403.093 127.218L405.187 124.697C407.331 126.477 409.392 128.388 411.337 130.398C425.534 145.093 433.168 164.385 432.805 184.715C432.442 204.863 424.297 223.628 409.837 237.565C395.855 251.042 377.602 258.422 358.31 258.422L358.327 258.406Z" fill="#2D4AD1"/>
<path d="M288.68 181.551L285.398 181.336C286.553 163.56 294.236 147.003 307.015 134.697C319.711 122.472 336.364 115.504 353.908 115.075L353.99 118.354C337.271 118.766 321.393 125.421 309.29 137.069C297.089 148.799 289.768 164.598 288.68 181.551Z" fill="#2D4AD1"/>
<path d="M411.107 148.585C408.798 144.977 406.127 141.583 403.143 138.486C399.433 134.631 395.245 131.237 390.71 128.387L392.458 125.603C397.223 128.584 401.626 132.159 405.517 136.212C408.65 139.458 411.453 143.033 413.877 146.822L411.107 148.585Z" fill="#2D4AD1"/>
<path d="M415.69 157.054C414.833 155.11 413.843 153.182 412.788 151.32L415.641 149.689C416.762 151.65 417.784 153.676 418.691 155.703L415.69 157.037V157.054Z" fill="#2D4AD1"/>
<path d="M359.514 250.151L359.448 246.873C375.261 246.576 390.282 240.349 401.741 229.36C414.009 217.597 420.934 201.716 421.28 184.648C421.428 177.3 420.324 170.052 417.999 163.066L421.115 162.028C423.555 169.36 424.71 177.004 424.561 184.714C424.198 202.655 416.91 219.36 404.017 231.733C391.947 243.314 376.151 249.855 359.514 250.168V250.151Z" fill="#2D4AD1"/>
<path d="M293.972 193.775C293.593 190.76 293.445 187.68 293.511 184.632C293.874 167.778 300.733 152.127 312.852 140.529C324.839 129.063 340.536 122.951 357.024 123.313C359.629 123.363 362.268 123.593 364.856 123.989L364.362 127.234C361.905 126.855 359.415 126.641 356.942 126.592C341.327 126.262 326.471 132.045 315.127 142.901C303.651 153.89 297.138 168.734 296.792 184.714C296.726 187.597 296.874 190.513 297.237 193.38L293.972 193.775Z" fill="#2D4AD1"/>
<path d="M359.217 241.915L359.168 238.636C372.886 238.422 385.945 233.051 395.921 223.529C406.622 213.314 412.706 199.509 413.036 184.632C413.382 169.574 407.792 155.258 397.322 144.302C390.826 137.514 382.664 132.374 373.694 129.442L374.717 126.328C384.181 129.425 392.821 134.862 399.68 142.028C410.76 153.61 416.663 168.767 416.3 184.698C415.938 200.448 409.507 215.077 398.163 225.885C387.578 235.984 373.744 241.667 359.184 241.898L359.217 241.915Z" fill="#2D4AD1"/>
<path d="M358.327 233.693C357.865 233.693 357.404 233.693 356.942 233.677H356.513L356.629 230.382H357.024C369.358 230.761 381.097 226.23 390.1 217.696C399.251 209.047 404.462 197.3 404.808 184.631C405.154 171.781 400.422 159.524 391.502 150.133C382.45 140.611 370.182 135.174 356.942 134.828C343.52 134.499 330.742 139.425 320.948 148.733C311.022 158.173 305.366 170.941 305.036 184.714C304.888 190.793 305.795 196.823 307.74 202.605L304.624 203.643C302.547 197.498 301.59 191.089 301.739 184.631C302.101 169.985 308.103 156.394 318.672 146.344C329.093 136.443 342.712 131.155 357.008 131.55C371.122 131.912 384.197 137.712 393.86 147.876C403.39 157.909 408.435 170.99 408.073 184.73C407.71 198.272 402.12 210.843 392.343 220.101C383.043 228.915 370.99 233.71 358.31 233.71L358.327 233.693Z" fill="#2D4AD1"/>
<path d="M358.327 225.456C357.865 225.456 357.387 225.456 356.925 225.439C355.079 225.373 353.216 225.192 351.402 224.879L351.962 221.65C353.644 221.93 355.359 222.111 357.041 222.177C367.165 222.523 376.827 218.866 384.28 211.881C391.864 204.78 396.234 195.093 396.564 184.631C396.91 173.972 393.035 163.791 385.665 155.949C378.163 147.975 367.956 143.412 356.942 143.066C345.713 142.72 335.012 146.806 326.785 154.565C318.425 162.44 313.627 173.149 313.297 184.73C313.149 190.019 313.94 195.241 315.671 200.266L312.572 201.337C310.708 195.95 309.851 190.332 310.016 184.631C310.379 172.193 315.539 160.661 324.542 152.176C333.413 143.824 344.971 139.425 357.057 139.787C368.962 140.15 379.976 145.092 388.072 153.692C396.036 162.16 400.224 173.182 399.861 184.714C399.499 196.065 394.766 206.559 386.539 214.253C378.789 221.502 368.83 225.456 358.343 225.456H358.327Z" fill="#2D4AD1"/>
<path d="M358.261 217.219C357.816 217.219 357.354 217.219 356.909 217.186C353.644 217.054 350.429 216.428 347.362 215.325L348.467 212.227C351.22 213.216 354.122 213.776 357.057 213.908C364.823 214.254 372.655 211.371 378.459 206.016C384.395 200.547 387.99 192.738 388.319 184.583C388.649 176.247 385.549 167.927 379.828 161.732C373.974 155.406 365.631 151.6 356.925 151.271C348.038 150.941 339.167 154.253 332.605 160.365C325.795 166.691 321.871 175.34 321.541 184.698C321.343 190.514 322.58 196.379 325.152 201.634L322.201 203.084C319.398 197.334 318.029 190.942 318.243 184.583C318.606 174.335 322.91 164.879 330.363 157.96C337.568 151.271 347.28 147.63 357.041 147.992C366.604 148.355 375.788 152.539 382.235 159.492C388.55 166.312 391.963 175.505 391.601 184.698C391.238 193.71 387.264 202.359 380.685 208.405C374.585 214.023 366.472 217.186 358.261 217.186V217.219Z" fill="#2D4AD1"/>
<path d="M358.261 208.998C357.799 208.998 357.338 208.998 356.876 208.965C350.561 208.602 344.576 205.719 340.437 201.057C336.43 196.526 334.336 190.53 334.716 184.582C335.078 178.816 337.749 173.363 342.036 169.623C346.191 165.999 351.666 164.137 357.074 164.516C362.301 164.879 367.231 167.333 370.594 171.238C373.843 175.01 375.475 179.953 375.079 184.813C374.7 189.492 372.474 193.89 368.946 196.856C365.565 199.706 361.13 201.123 356.81 200.727C352.671 200.349 348.797 198.322 346.224 195.175C343.751 192.177 342.564 188.273 342.96 184.5C343.339 180.892 345.153 177.58 347.923 175.373C350.544 173.281 353.925 172.325 357.173 172.737C360.24 173.132 363.026 174.73 364.84 177.119C366.538 179.376 367.264 182.226 366.835 184.912C366.439 187.432 365.038 189.689 363.01 191.09C361.114 192.391 358.789 192.885 356.629 192.424C354.634 191.996 352.902 190.793 351.913 189.113C350.99 187.564 350.759 185.752 351.286 184.137C351.765 182.655 352.82 181.485 354.172 180.925C355.425 180.414 356.794 180.513 357.849 181.188C358.888 181.847 359.465 182.984 359.333 184.104C359.184 185.34 358.162 186.279 356.975 186.279V183.001C356.464 183.001 356.118 183.363 356.068 183.726C356.052 183.874 356.085 183.973 356.118 183.989C355.969 183.89 355.705 183.857 355.409 183.989C354.963 184.17 354.601 184.599 354.419 185.142C354.188 185.867 354.304 186.707 354.749 187.449C355.277 188.338 356.216 188.981 357.321 189.212C358.607 189.492 359.992 189.179 361.147 188.388C362.449 187.498 363.339 186.032 363.603 184.385C363.9 182.556 363.389 180.628 362.235 179.08C360.965 177.383 358.97 176.263 356.777 175.982C354.403 175.686 351.929 176.394 349.984 177.926C347.906 179.574 346.538 182.095 346.241 184.829C345.928 187.745 346.851 190.744 348.764 193.083C350.792 195.554 353.842 197.152 357.123 197.449C360.586 197.778 364.131 196.625 366.852 194.335C369.721 191.93 371.534 188.355 371.831 184.533C372.144 180.529 370.792 176.46 368.121 173.363C365.318 170.117 361.229 168.075 356.86 167.778C352.309 167.449 347.708 169.03 344.213 172.078C340.585 175.258 338.31 179.887 338.013 184.78C337.683 189.854 339.481 194.994 342.91 198.882C346.472 202.902 351.633 205.373 357.074 205.686C362.696 205.999 368.368 204.006 372.639 200.2C377.041 196.263 379.745 190.579 380.059 184.582C380.389 178.421 378.163 172.21 373.958 167.564C369.638 162.786 363.405 159.854 356.876 159.541C350.149 159.195 343.421 161.649 338.392 166.229C333.215 170.925 330.066 177.679 329.753 184.747C329.538 189.327 330.511 193.956 332.556 198.108L329.604 199.558C327.329 194.912 326.24 189.739 326.471 184.599C326.834 176.674 330.379 169.08 336.183 163.808C341.855 158.651 349.44 155.9 357.041 156.262C364.428 156.625 371.485 159.936 376.398 165.373C381.18 170.661 383.703 177.729 383.34 184.763C382.977 191.617 379.877 198.124 374.815 202.638C370.248 206.724 364.279 208.998 358.245 208.998H358.261Z" fill="#2D4AD1"/>
<path d="M209.106 300.679C183.483 267.615 169.551 226.412 169.847 184.648V183.1L173.145 183.149V184.665C172.832 225.687 186.534 266.181 211.712 298.67L209.106 300.679Z" fill="#2D4AD1"/>
<path d="M200.137 90.1985L197.334 88.4851C197.911 87.5461 198.504 86.607 199.098 85.668L201.868 87.4308C201.291 88.3533 200.697 89.2759 200.137 90.1985Z" fill="#2D4AD1"/>
<path d="M203.649 84.6803L200.912 82.868C202.132 81.0229 203.402 79.1777 204.688 77.3984L207.359 79.3095C206.106 81.0723 204.853 82.8845 203.649 84.6803Z" fill="#2D4AD1"/>
<path d="M209.271 76.6735L206.633 74.713C209.271 71.171 212.058 67.6783 214.943 64.334L217.433 66.4757C214.597 69.7706 211.86 73.1974 209.271 76.6735Z" fill="#2D4AD1"/>
<path d="M235.851 47.9413L233.691 45.4701C255.406 26.5406 281.639 12.7348 309.538 5.56836L310.362 8.74797C282.958 15.7827 257.187 29.3413 235.851 47.9413Z" fill="#2D4AD1"/>
<path d="M425.666 8.15509C422.649 6.95244 419.549 5.81568 416.465 4.77778L417.521 1.66406C420.653 2.71844 423.819 3.88814 426.886 5.10727L425.682 8.15509H425.666Z" fill="#2D4AD1"/>
<path d="M443.49 16.3102C441.561 15.3052 439.599 14.3167 437.636 13.3942L439.054 10.4287C441.05 11.3842 443.045 12.3892 445.007 13.4106L443.49 16.3266V16.3102Z" fill="#2D4AD1"/>
<path d="M543.195 157.679C537.672 117.728 519.007 79.8855 490.614 51.1207C478.346 38.6987 464.43 28.0396 449.228 19.4234L450.844 16.5732C466.31 25.3378 480.473 36.1781 492.939 48.8142C521.826 78.0732 540.821 116.575 546.427 157.234L543.179 157.679H543.195Z" fill="#2D4AD1"/>
<path d="M205.116 308.917C176.74 273.825 161.29 229.69 161.587 184.648C161.587 183.989 161.587 183.346 161.603 182.688L164.884 182.753C164.884 183.396 164.868 184.038 164.868 184.681C164.571 228.965 179.757 272.359 207.655 306.857L205.1 308.917H205.116Z" fill="#2D4AD1"/>
<path d="M165.874 166.46L162.609 166.131C162.823 163.956 163.104 161.732 163.401 159.524L166.649 159.969C166.352 162.144 166.088 164.319 165.874 166.46Z" fill="#2D4AD1"/>
<path d="M187.803 95.0917L184.918 93.5267C191.217 81.8296 198.752 70.7586 207.309 60.5938L209.816 62.7025C201.406 72.6862 194.003 83.5759 187.803 95.0753V95.0917Z" fill="#2D4AD1"/>
<path d="M235.406 37.5459L233.328 35.0088C252.834 19.1437 274.896 7.36431 298.936 0.0166016L299.892 3.14679C276.264 10.3792 254.565 21.9609 235.406 37.5459Z" fill="#2D4AD1"/>
<path d="M552.726 169.887C549.494 123.033 529.51 78.7816 496.434 45.305C487.052 35.7991 476.648 27.2158 465.535 19.8022L467.365 17.0674C478.676 24.6128 489.245 33.3279 498.776 42.9821C532.396 77.0188 552.726 122.011 556.007 169.656L552.726 169.887Z" fill="#2D4AD1"/>
<path d="M198.735 314.139C169.171 277.582 153.046 231.601 153.359 184.665C153.359 182.589 153.425 180.497 153.491 178.421L156.772 178.536C156.69 180.579 156.657 182.622 156.64 184.665C156.343 230.843 172.189 276.099 201.291 312.064L198.735 314.123V314.139Z" fill="#2D4AD1"/>
<path d="M157.679 165.504L154.414 165.175C154.645 162.984 154.909 160.776 155.206 158.585L158.454 159.03C158.157 161.188 157.91 163.346 157.679 165.521V165.504Z" fill="#2D4AD1"/>
<path d="M174.794 102.719L171.81 101.352C172.271 100.347 172.733 99.3419 173.211 98.3369L176.179 99.7537C175.701 100.742 175.256 101.731 174.794 102.719Z" fill="#2D4AD1"/>
<path d="M177.614 96.8216L174.679 95.3554C183.599 77.4639 195.091 61.0386 208.826 46.5244L211.217 48.7814C197.697 63.065 186.402 79.2267 177.63 96.8216H177.614Z" fill="#2D4AD1"/>
<path d="M220.5 39.5726L218.274 37.1673C219.082 36.4095 219.907 35.6681 220.731 34.9268L222.924 37.365C222.116 38.0899 221.308 38.8313 220.5 39.5726Z" fill="#2D4AD1"/>
<path d="M238.159 25.0246L236.214 22.3722C248.267 13.5417 261.342 6.02927 275.044 0.0654297L276.363 3.0803C262.875 8.94528 250.031 16.3259 238.159 25.0246Z" fill="#2D4AD1"/>
<path d="M564.697 186.658L561.415 186.609C561.415 185.966 561.432 185.307 561.432 184.665C561.778 130.002 540.772 78.4359 502.271 39.4733C493.714 30.8076 484.315 22.8668 474.373 15.8651L476.269 13.1797C486.376 20.2968 495.923 28.3693 504.629 37.1668C543.74 76.7555 565.092 129.145 564.746 184.681C564.746 185.34 564.746 185.999 564.729 186.658H564.697Z" fill="#2D4AD1"/>
<path d="M193.673 320.977C162.049 282.673 144.785 234.254 145.098 184.665V182.902L148.396 182.952V184.698C148.066 233.529 165.049 281.19 196.196 318.901L193.657 320.993L193.673 320.977Z" fill="#2D4AD1"/>
<path d="M149.995 160.118L146.73 159.706C146.862 158.602 147.011 157.515 147.176 156.411L150.424 156.872C150.275 157.943 150.127 159.031 149.995 160.118Z" fill="#2D4AD1"/>
<path d="M164.142 106.541L161.108 105.289C170.029 83.691 182.379 63.872 197.828 46.3594L200.301 48.534C185.099 65.783 172.947 85.2891 164.159 106.558L164.142 106.541Z" fill="#2D4AD1"/>
<path d="M202.462 46.0961L200.038 43.8885C202.577 41.1042 205.215 38.353 207.903 35.7005C209.931 33.6906 212.025 31.7137 214.135 29.7861L216.345 32.2079C214.267 34.086 212.206 36.0465 210.211 38.0235C207.573 40.6265 204.968 43.3283 202.478 46.0796L202.462 46.0961Z" fill="#2D4AD1"/>
<path d="M236.758 15.8819L234.878 13.1965C241.209 8.7648 247.838 4.62966 254.615 0.922852L256.198 3.80592C249.536 7.4633 242.99 11.5325 236.758 15.8983V15.8819Z" fill="#2D4AD1"/>
<path d="M569.66 180.167C568.835 124.993 546.971 72.9664 508.108 33.6413C497.226 22.6362 485.123 12.8008 472.13 4.39873L473.911 1.64746C487.102 10.1813 499.386 20.165 510.433 31.3348C549.906 71.253 572.1 124.087 572.941 180.118L569.66 180.167Z" fill="#2D4AD1"/>
<path d="M189.37 328.653C177.168 314.304 166.847 298.422 158.668 281.47L161.62 280.053C169.666 296.758 179.84 312.409 191.86 326.544L189.353 328.67L189.37 328.653Z" fill="#2D4AD1"/>
<path d="M149.699 260.037C141.454 237.005 137.151 212.919 136.871 188.487L140.152 188.454C140.432 212.54 144.686 236.247 152.798 258.949L149.699 260.053V260.037Z" fill="#2D4AD1"/>
<path d="M141.817 159.08L138.552 158.668C138.833 156.477 139.13 154.286 139.476 152.095L142.724 152.605C142.394 154.764 142.081 156.922 141.817 159.08Z" fill="#2D4AD1"/>
<path d="M150.193 120.809L147.061 119.821C156.162 91.0394 170.787 64.9106 190.557 42.1426L193.03 44.3008C173.557 66.7228 159.147 92.4727 150.177 120.809H150.193Z" fill="#2D4AD1"/>
<path d="M195.207 41.8296L192.767 39.6385C195.751 36.3106 198.884 33.0156 202.066 29.869C205.149 26.8212 208.381 23.8228 211.646 20.9727L213.806 23.4439C210.591 26.261 207.425 29.21 204.374 32.2084C201.225 35.3056 198.142 38.5511 195.207 41.8296Z" fill="#2D4AD1"/>
<path d="M223.897 15.1241L221.885 12.5211C227.112 8.4683 232.602 4.61322 238.176 1.05469L239.94 3.82243C234.449 7.33154 229.041 11.1207 223.897 15.1076V15.1241Z" fill="#2D4AD1"/>
<path d="M581.053 191.848L577.772 191.716C577.854 189.343 577.92 186.971 577.92 184.648C578.267 125.586 555.545 69.8855 513.929 27.8092C506.509 20.3132 498.479 13.2785 490.07 6.91928L492.048 4.2998C500.589 10.7579 508.735 17.8914 516.253 25.5027C558.48 68.2051 581.548 124.73 581.201 184.665C581.201 187.021 581.136 189.426 581.037 191.848H581.053Z" fill="#2D4AD1"/>
<path d="M186.418 337.83C176.872 327.088 168.298 315.408 160.944 303.085L163.763 301.404C171.018 313.546 179.46 325.078 188.875 335.655L186.418 337.83Z" fill="#2D4AD1"/>
<path d="M136.425 245.193C136.145 244.122 135.865 243.051 135.584 241.98L138.767 241.173C139.031 242.227 139.311 243.282 139.591 244.336L136.425 245.193Z" fill="#2D4AD1"/>
<path d="M134.793 238.752C133.012 231.239 131.594 223.562 130.572 215.918L133.82 215.489C134.826 223.018 136.211 230.597 137.975 237.994L134.777 238.752H134.793Z" fill="#2D4AD1"/>
<path d="M128.709 192.77C128.643 190.563 128.61 188.355 128.61 186.131H131.891C131.891 188.306 131.924 190.497 131.99 192.671L128.709 192.77Z" fill="#2D4AD1"/>
<path d="M134.249 153.528L131.001 153.05C131.166 151.963 131.331 150.859 131.512 149.771L134.76 150.299C134.595 151.37 134.414 152.457 134.265 153.528H134.249Z" fill="#2D4AD1"/>
<path d="M135.881 143.857L132.65 143.247C138.091 114.779 148.742 87.9583 164.324 63.5264L167.094 65.2892C151.743 89.3587 141.224 115.801 135.865 143.857H135.881Z" fill="#2D4AD1"/>
<path d="M182.445 44.0864L179.906 42.0106C180.598 41.1539 181.307 40.2972 182.016 39.457L184.539 41.5658C183.83 42.406 183.137 43.2462 182.445 44.0864Z" fill="#2D4AD1"/>
<path d="M193.245 31.8124L190.854 29.5554C192.602 27.7102 194.415 25.8486 196.245 24.0529C199.131 21.2027 202.148 18.3856 205.166 15.7002L207.342 18.1549C204.358 20.8073 201.39 23.5751 198.554 26.3923C196.757 28.1715 194.976 29.9837 193.245 31.8124Z" fill="#2D4AD1"/>
<path d="M209.799 15.9967L207.656 13.5091C213.08 8.83025 218.802 4.36561 224.655 0.230469L226.551 2.91584C220.78 7.00156 215.141 11.4003 209.799 16.0132V15.9967Z" fill="#2D4AD1"/>
<path d="M584.45 155.34C578.266 105.273 555.298 57.9251 519.765 22.0103C516.781 18.9954 513.698 16.0464 510.581 13.2293L512.791 10.791C515.957 13.6576 519.089 16.656 522.107 19.7038C558.15 56.1294 581.465 104.153 587.714 154.945L584.45 155.34Z" fill="#2D4AD1"/>
<path d="M201.983 364.783C201.143 364.058 200.318 363.333 199.494 362.592L201.687 360.153C202.495 360.878 203.319 361.603 204.143 362.312L201.983 364.783Z" fill="#2D4AD1"/>
<path d="M187.523 351.109C176.74 340.021 166.995 327.83 158.569 314.864L161.323 313.085C169.633 325.869 179.229 337.896 189.864 348.835L187.507 351.125L187.523 351.109Z" fill="#2D4AD1"/>
<path d="M120.366 186.23V184.665C120.399 179.673 120.58 174.632 120.926 169.656L124.208 169.887C123.861 174.796 123.68 179.772 123.647 184.681V186.23H120.366Z" fill="#2D4AD1"/>
<path d="M129.451 134.302L126.252 133.577C132.171 107.563 142.378 82.917 156.574 60.3467L159.361 62.093C145.362 84.3503 135.288 108.65 129.451 134.302Z" fill="#2D4AD1"/>
<path d="M172.502 43.3445L169.914 41.3345C173.294 36.9852 176.872 32.6853 180.549 28.5996L182.989 30.7907C179.361 34.827 175.849 39.061 172.502 43.3445Z" fill="#2D4AD1"/>
<path d="M185.182 28.3532L182.758 26.1291C185.231 23.4437 187.804 20.7913 190.392 18.2213C196.427 12.2574 202.857 6.57366 209.486 1.30176L211.53 3.87181C204.984 9.06133 198.653 14.6792 192.701 20.5607C190.145 23.0813 187.606 25.7172 185.165 28.3532H185.182Z" fill="#2D4AD1"/>
<path d="M592.776 155.554C586.758 104.548 563.823 56.0139 528.208 18.88L530.582 16.6064C566.692 54.2511 589.924 103.461 596.041 155.175L592.776 155.554Z" fill="#2D4AD1"/>
<path d="M194.3 369C190.474 365.59 186.715 362.031 183.104 358.39C176.327 351.553 169.897 344.239 163.978 336.644L166.566 334.634C172.403 342.113 178.751 349.329 185.429 356.084C188.991 359.675 192.7 363.201 196.476 366.562L194.283 369.016L194.3 369Z" fill="#2D4AD1"/>
<path d="M115.502 179.162L112.22 179.063C112.435 171.353 113.028 163.56 113.968 155.916L117.233 156.328C116.293 163.873 115.716 171.55 115.502 179.162Z" fill="#2D4AD1"/>
<path d="M121.124 133.758L117.909 133.049C123.927 105.916 134.447 80.2151 149.155 56.6562L151.941 58.3861C137.431 81.6319 127.044 106.986 121.108 133.758H121.124Z" fill="#2D4AD1"/>
<path d="M159.196 47.4803L156.508 45.6022C161.57 38.3863 167.094 31.3681 172.931 24.7617L175.404 26.9364C169.666 33.4604 164.208 40.3797 159.212 47.4968L159.196 47.4803Z" fill="#2D4AD1"/>
<path d="M179.774 22.0598L177.366 19.8192C178.125 19.012 178.883 18.2047 179.642 17.3975L182.016 19.671C181.257 20.4618 180.516 21.2525 179.774 22.0598Z" fill="#2D4AD1"/>
<path d="M184.308 17.3315L181.967 15.0416C182.824 14.1519 183.698 13.2788 184.588 12.4221C188.414 8.64938 192.42 4.94257 196.476 1.41699L198.62 3.90467C194.613 7.38083 190.656 11.0217 186.88 14.7615C186.006 15.6182 185.149 16.4749 184.291 17.348L184.308 17.3315Z" fill="#2D4AD1"/>
<path d="M600.79 153.033C594.508 102.604 573.139 56.0139 538.958 18.3033L541.398 16.0957C576.024 54.317 597.69 101.533 604.054 152.638L600.79 153.05V153.033Z" fill="#2D4AD1"/>
<path d="M107.406 174.928L104.125 174.78C104.322 170.398 104.636 165.933 105.064 161.551L108.329 161.864C107.917 166.197 107.604 170.595 107.406 174.928Z" fill="#2D4AD1"/>
<path d="M112.913 132.786L109.698 132.094C118.189 93.1976 136.063 56.3767 161.34 25.6514L163.879 27.7437C138.915 58.0735 121.289 94.4002 112.913 132.786Z" fill="#2D4AD1"/>
<path d="M165.973 25.2231L163.467 23.0978C168.298 17.3976 173.426 11.8292 178.751 6.57373L179.576 5.75L181.868 8.0894L181.043 8.89666C175.8 14.0862 170.721 19.5723 165.956 25.2066L165.973 25.2231Z" fill="#2D4AD1"/>
<path d="M601.696 115.653C592.281 81.682 576.238 50.5778 553.995 23.1969L556.551 21.1211C579.074 48.848 595.332 80.3641 604.862 114.78L601.696 115.653Z" fill="#2D4AD1"/>
<path d="M99.3923 170.348L96.1111 170.15C96.3749 165.751 96.7541 161.303 97.2488 156.938L100.513 157.3C100.035 161.616 99.6561 165.999 99.3923 170.348Z" fill="#2D4AD1"/>
<path d="M103.449 137.877L100.217 137.267C109.154 90.2484 130.852 46.6399 162.939 11.1699L165.379 13.3775C133.688 48.4027 112.27 91.4511 103.449 137.877Z" fill="#2D4AD1"/>
<path d="M91.2307 168.767L87.9495 168.553C91.4945 113.824 111.347 62.1924 145.362 19.21L147.934 21.2528C114.347 63.7081 94.7427 114.714 91.2307 168.784V168.767Z" fill="#2D4AD1"/>
<path d="M149.995 18.6821L147.44 16.6228C148.825 14.9094 150.243 13.2125 151.677 11.5156L154.183 13.6409C152.765 15.3048 151.364 16.9852 149.995 18.6821Z" fill="#2D4AD1"/>
<path d="M83.0854 166.955L79.8042 166.724C83.5965 112.127 103.234 60.3634 136.59 17.0186L139.196 19.012C106.235 61.8462 86.8283 113 83.0689 166.938L83.0854 166.955Z" fill="#2D4AD1"/>
<path d="M141.224 16.4418L138.651 14.4154C140.02 12.6855 141.405 10.9557 142.823 9.25879L145.362 11.3511C143.961 13.0315 142.592 14.7284 141.24 16.4418H141.224Z" fill="#2D4AD1"/>
<path d="M75.8799 155.175L72.6152 154.812C77.5618 109.771 93.4072 65.9974 118.453 28.2539L121.19 30.0661C96.441 67.3813 80.7605 110.644 75.8799 155.175Z" fill="#2D4AD1"/>
<path d="M123.004 27.348L120.283 25.5029C122.13 22.7846 124.059 20.0498 126.021 17.3809L128.676 19.3249C126.747 21.9773 124.834 24.6791 123.004 27.348Z" fill="#2D4AD1"/>
<path d="M67.817 153.05L64.5522 152.671C64.7996 150.48 65.0799 148.289 65.3767 146.098L68.6249 146.542C68.3281 148.701 68.0643 150.875 67.817 153.05Z" fill="#2D4AD1"/>
<path d="M69.5978 140.068L66.3496 139.557C72.879 98.782 87.5867 60.5772 110.093 25.9639L112.847 27.7431C90.6041 61.9611 76.0448 99.754 69.5813 140.068H69.5978Z" fill="#2D4AD1"/>
<path d="M61.0895 141.056L57.8413 140.562C64.041 99.7872 78.254 61.3682 100.068 26.376L102.855 28.1058C81.2879 62.7191 67.2232 100.726 61.0895 141.056Z" fill="#2D4AD1"/>
<path d="M53.637 135.455L50.4053 134.911C50.5866 133.824 50.768 132.737 50.9659 131.649L54.1976 132.226C53.9998 133.297 53.8184 134.384 53.637 135.455Z" fill="#2D4AD1"/>
<path d="M56.0771 122.571L52.8618 121.896C59.9683 88.2546 72.5325 56.2278 90.1917 26.7217L93.0112 28.4021C75.5334 57.5952 63.1011 89.2761 56.0771 122.571Z" fill="#2D4AD1"/>
<path d="M51.1803 107.366L47.998 106.542C48.2784 105.471 48.5587 104.4 48.839 103.346L52.0047 104.202C51.7244 105.257 51.4441 106.311 51.1638 107.366H51.1803Z" fill="#2D4AD1"/>
<path d="M64.5522 66.953L61.5183 65.7174C67.3387 51.4503 74.2639 37.4798 82.0959 24.2012L84.9319 25.8651C77.1823 38.9954 70.3231 52.8177 64.5522 66.953Z" fill="#2D4AD1"/>
<path d="M60.5292 55.3715L57.5283 54.0535C61.9802 43.9875 66.9927 34.0368 72.4174 24.4814L75.2699 26.1124C69.8947 35.5689 64.9316 45.4208 60.5292 55.388V55.3715Z" fill="#2D4AD1"/>
<path d="M52.664 52.7686L49.6631 51.4506C54.082 41.3846 59.0615 31.4174 64.4532 21.8291L67.3222 23.4436C61.98 32.933 57.0499 42.8014 52.6805 52.7686H52.664Z" fill="#2D4AD1"/>
<path d="M43.5296 53.1307L40.5122 51.8457C44.387 42.7352 48.6905 33.6906 53.3402 24.959L56.2422 26.4911C51.6419 35.1403 47.3714 44.1026 43.5296 53.1142V53.1307Z" fill="#2D4AD1"/>
<path d="M32.0039 59.5559L28.937 58.3697C32.9272 48.1225 37.4615 37.9576 42.4081 28.1387L45.343 29.6049C40.4459 39.3415 35.9611 49.4075 32.0039 59.5559Z" fill="#2D4AD1"/>
<path d="M21.8968 62.966L18.8135 61.8293C22.2266 52.554 26.0849 43.2952 30.2565 34.333L33.2409 35.7169C29.1023 44.5967 25.2934 53.7731 21.9133 62.966H21.8968Z" fill="#2D4AD1"/>
<path d="M13.0261 63.279L9.92627 62.1752C10.3055 61.1373 10.6682 60.0994 11.0475 59.0615L14.1308 60.1983C13.7516 61.2197 13.3724 62.2576 13.0096 63.279H13.0261Z" fill="#2D4AD1"/>
<path d="M15.2846 57.1181L12.2178 55.9649C13.7677 51.8627 15.4165 47.7276 17.1148 43.6748L20.1487 44.9434C18.4669 48.9632 16.8181 53.0654 15.2846 57.1346V57.1181Z" fill="#2D4AD1"/>
<path d="M22.7377 38.9129L19.7368 37.5949C20.182 36.59 20.6272 35.585 21.0889 34.5801L24.0898 35.931C23.6446 36.936 23.1994 37.9244 22.7542 38.9294L22.7377 38.9129Z" fill="#2D4AD1"/>
<path d="M3.11632 66.6729L0 65.6185C0.346257 64.5806 0.709003 63.5262 1.07175 62.4883L4.17158 63.5591C3.80883 64.597 3.46257 65.6349 3.11632 66.6564V66.6729Z" fill="#2D4AD1"/>
</g>
<defs>
<clipPath id="clip0_537_8848">
<rect width="554" height="369" fill="white"/>
</clipPath>
</defs>
</svg>
